<svg width="444" height="118" viewBox="0 0 444 118" fill="none" xmlns="http://www.w3.org/2000/svg">
<path d="M12.6 71.42C10.64 71.42 8.876 71.182 7.308 70.706C5.74 70.202 4.242 69.334 2.814 68.102C2.45 67.794 2.17 67.444 1.974 67.052C1.778 66.66 1.68 66.268 1.68 65.876C1.68 65.232 1.904 64.672 2.352 64.196C2.828 63.692 3.416 63.44 4.116 63.44C4.648 63.44 5.124 63.608 5.544 63.944C6.608 64.812 7.658 65.47 8.694 65.918C9.758 66.366 11.06 66.59 12.6 66.59C13.636 66.59 14.588 66.436 15.456 66.128C16.324 65.792 17.024 65.358 17.556 64.826C18.088 64.266 18.354 63.636 18.354 62.936C18.354 62.096 18.102 61.382 17.598 60.794C17.094 60.206 16.324 59.716 15.288 59.324C14.252 58.904 12.936 58.582 11.34 58.358C9.828 58.134 8.498 57.798 7.35 57.35C6.202 56.874 5.236 56.286 4.452 55.586C3.696 54.858 3.122 54.018 2.73 53.066C2.338 52.086 2.142 50.994 2.142 49.79C2.142 47.97 2.604 46.416 3.528 45.128C4.48 43.84 5.754 42.86 7.35 42.188C8.946 41.516 10.71 41.18 12.642 41.18C14.462 41.18 16.142 41.46 17.682 42.02C19.25 42.552 20.524 43.238 21.504 44.078C22.316 44.722 22.722 45.464 22.722 46.304C22.722 46.92 22.484 47.48 22.008 47.984C21.532 48.488 20.972 48.74 20.328 48.74C19.908 48.74 19.53 48.614 19.194 48.362C18.746 47.97 18.144 47.606 17.388 47.27C16.632 46.906 15.834 46.612 14.994 46.388C14.154 46.136 13.37 46.01 12.642 46.01C11.438 46.01 10.416 46.164 9.576 46.472C8.764 46.78 8.148 47.2 7.728 47.732C7.308 48.264 7.098 48.88 7.098 49.58C7.098 50.42 7.336 51.12 7.812 51.68C8.316 52.212 9.03 52.646 9.954 52.982C10.878 53.29 11.984 53.57 13.272 53.822C14.952 54.13 16.422 54.494 17.682 54.914C18.97 55.334 20.034 55.88 20.874 56.552C21.714 57.196 22.344 58.022 22.764 59.03C23.184 60.01 23.394 61.214 23.394 62.642C23.394 64.462 22.89 66.03 21.882 67.346C20.874 68.662 19.544 69.67 17.892 70.37C16.268 71.07 14.504 71.42 12.6 71.42ZM30.7725 41.6H44.8425C45.5705 41.6 46.1725 41.838 46.6485 42.314C47.1525 42.762 47.4045 43.35 47.4045 44.078C47.4045 44.778 47.1525 45.352 46.6485 45.8C46.1725 46.22 45.5705 46.43 44.8425 46.43H33.0825L33.4605 45.716V53.906L33.1245 53.57H42.9525C43.6805 53.57 44.2825 53.808 44.7585 54.284C45.2625 54.732 45.5145 55.32 45.5145 56.048C45.5145 56.748 45.2625 57.322 44.7585 57.77C44.2825 58.19 43.6805 58.4 42.9525 58.4H33.2505L33.4605 58.064V66.548L33.1245 66.17H44.8425C45.5705 66.17 46.1725 66.422 46.6485 66.926C47.1525 67.402 47.4045 67.962 47.4045 68.606C47.4045 69.306 47.1525 69.88 46.6485 70.328C46.1725 70.776 45.5705 71 44.8425 71H30.7725C30.0445 71 29.4285 70.762 28.9245 70.286C28.4485 69.782 28.2105 69.166 28.2105 68.438V44.162C28.2105 43.434 28.4485 42.832 28.9245 42.356C29.4285 41.852 30.0445 41.6 30.7725 41.6ZM58.6815 71.42C57.0855 71.42 55.6015 71.098 54.2295 70.454C52.8575 69.81 51.7375 68.886 50.8695 67.682C50.5335 67.178 50.3655 66.688 50.3655 66.212C50.3655 65.512 50.6315 64.924 51.1635 64.448C51.7235 63.972 52.2695 63.734 52.8015 63.734C53.2215 63.734 53.6275 63.86 54.0195 64.112C54.4395 64.364 54.8175 64.658 55.1535 64.994C55.7135 65.498 56.2595 65.862 56.7915 66.086C57.3515 66.282 57.9815 66.38 58.6815 66.38C59.5215 66.38 60.3055 66.17 61.0335 65.75C61.7615 65.33 62.3495 64.77 62.7975 64.07C63.2455 63.37 63.4695 62.614 63.4695 61.802V44.162C63.4695 43.434 63.7355 42.832 64.2675 42.356C64.7995 41.852 65.4155 41.6 66.1155 41.6C66.8995 41.6 67.5295 41.852 68.0055 42.356C68.4815 42.832 68.7195 43.434 68.7195 44.162V61.802C68.7195 63.51 68.2715 65.092 67.3755 66.548C66.4795 68.004 65.2755 69.18 63.7635 70.076C62.2515 70.972 60.5575 71.42 58.6815 71.42ZM85.1881 48.194L76.1161 69.53C75.9201 70.062 75.6121 70.482 75.1921 70.79C74.8001 71.07 74.3661 71.21 73.8901 71.21C73.1341 71.21 72.5741 71 72.2101 70.58C71.8461 70.16 71.6641 69.642 71.6641 69.026C71.6641 68.774 71.7061 68.508 71.7901 68.228L82.2481 43.112C82.4721 42.552 82.8081 42.118 83.2561 41.81C83.7321 41.502 84.2361 41.376 84.7681 41.432C85.2721 41.432 85.7341 41.586 86.1541 41.894C86.6021 42.174 86.9241 42.58 87.1201 43.112L97.4521 67.724C97.5921 68.088 97.6621 68.424 97.6621 68.732C97.6621 69.488 97.4101 70.09 96.9061 70.538C96.4301 70.986 95.8981 71.21 95.3101 71.21C94.8061 71.21 94.3441 71.056 93.9241 70.748C93.5321 70.44 93.2241 70.02 93.0001 69.488L83.9701 48.446L85.1881 48.194ZM77.4181 64.406L79.7281 59.576H91.0681L91.8661 64.406H77.4181ZM126.136 41.6C128.824 41.6 130.826 42.23 132.142 43.49C133.458 44.75 134.116 46.612 134.116 49.076C134.116 50.392 133.794 51.554 133.15 52.562C132.506 53.542 131.554 54.312 130.294 54.872C129.034 55.404 127.48 55.67 125.632 55.67L125.8 53.78C126.668 53.78 127.662 53.906 128.782 54.158C129.902 54.382 130.98 54.802 132.016 55.418C133.08 56.006 133.948 56.846 134.62 57.938C135.32 59.002 135.67 60.374 135.67 62.054C135.67 63.902 135.362 65.414 134.746 66.59C134.158 67.766 133.374 68.676 132.394 69.32C131.414 69.964 130.364 70.412 129.244 70.664C128.124 70.888 127.046 71 126.01 71H115.552C114.824 71 114.208 70.762 113.704 70.286C113.228 69.782 112.99 69.166 112.99 68.438V44.162C112.99 43.434 113.228 42.832 113.704 42.356C114.208 41.852 114.824 41.6 115.552 41.6H126.136ZM125.38 46.556H117.904L118.45 45.884V53.486L117.946 53.108H125.506C126.318 53.108 127.046 52.842 127.69 52.31C128.334 51.778 128.656 51.008 128.656 50C128.656 48.796 128.348 47.928 127.732 47.396C127.144 46.836 126.36 46.556 125.38 46.556ZM125.716 58.064H118.072L118.45 57.728V66.59L118.03 66.17H126.01C127.298 66.17 128.32 65.834 129.076 65.162C129.832 64.462 130.21 63.426 130.21 62.054C130.21 60.794 129.958 59.884 129.454 59.324C128.95 58.764 128.348 58.414 127.648 58.274C126.948 58.134 126.304 58.064 125.716 58.064ZM143.073 41.6H157.143C157.871 41.6 158.473 41.838 158.949 42.314C159.453 42.762 159.705 43.35 159.705 44.078C159.705 44.778 159.453 45.352 158.949 45.8C158.473 46.22 157.871 46.43 157.143 46.43H145.383L145.761 45.716V53.906L145.425 53.57H155.253C155.981 53.57 156.583 53.808 157.059 54.284C157.563 54.732 157.815 55.32 157.815 56.048C157.815 56.748 157.563 57.322 157.059 57.77C156.583 58.19 155.981 58.4 155.253 58.4H145.551L145.761 58.064V66.548L145.425 66.17H157.143C157.871 66.17 158.473 66.422 158.949 66.926C159.453 67.402 159.705 67.962 159.705 68.606C159.705 69.306 159.453 69.88 158.949 70.328C158.473 70.776 157.871 71 157.143 71H143.073C142.345 71 141.729 70.762 141.225 70.286C140.749 69.782 140.511 69.166 140.511 68.438V44.162C140.511 43.434 140.749 42.832 141.225 42.356C141.729 41.852 142.345 41.6 143.073 41.6ZM167.192 41.558C167.584 41.558 167.99 41.67 168.41 41.894C168.858 42.09 169.194 42.356 169.418 42.692L179.624 58.4L177.524 58.316L187.982 42.692C188.514 41.936 189.2 41.558 190.04 41.558C190.712 41.558 191.314 41.796 191.846 42.272C192.378 42.748 192.644 43.364 192.644 44.12V68.438C192.644 69.166 192.406 69.782 191.93 70.286C191.454 70.762 190.824 71 190.04 71C189.256 71 188.612 70.762 188.108 70.286C187.632 69.782 187.394 69.166 187.394 68.438V48.656L189.032 49.034L180.464 62.096C180.212 62.404 179.89 62.67 179.498 62.894C179.134 63.118 178.756 63.216 178.364 63.188C178 63.216 177.622 63.118 177.23 62.894C176.866 62.67 176.558 62.404 176.306 62.096L168.284 49.412L169.376 47.186V68.438C169.376 69.166 169.152 69.782 168.704 70.286C168.256 70.762 167.668 71 166.94 71C166.24 71 165.666 70.762 165.218 70.286C164.77 69.782 164.546 69.166 164.546 68.438V44.12C164.546 43.42 164.798 42.818 165.302 42.314C165.834 41.81 166.464 41.558 167.192 41.558ZM200.471 60.626C199.743 60.626 199.127 60.388 198.623 59.912C198.147 59.436 197.909 58.834 197.909 58.106C197.909 57.378 198.147 56.79 198.623 56.342C199.127 55.866 199.743 55.628 200.471 55.628H207.779C208.507 55.628 209.109 55.88 209.585 56.384C210.089 56.86 210.341 57.462 210.341 58.19C210.341 58.89 210.089 59.478 209.585 59.954C209.109 60.402 208.507 60.626 207.779 60.626H200.471ZM237.073 41.516C237.773 41.516 238.375 41.754 238.879 42.23C239.411 42.678 239.677 43.252 239.677 43.952C239.677 44.316 239.593 44.694 239.425 45.086L229.051 69.362C228.799 69.922 228.435 70.342 227.959 70.622C227.511 70.874 227.049 71 226.573 71C226.125 70.972 225.691 70.832 225.271 70.58C224.851 70.3 224.529 69.908 224.305 69.404L213.931 45.044C213.847 44.876 213.791 44.708 213.763 44.54C213.735 44.344 213.721 44.162 213.721 43.994C213.721 43.182 214.015 42.566 214.603 42.146C215.191 41.698 215.751 41.474 216.283 41.474C217.347 41.474 218.117 42.02 218.593 43.112L227.791 64.742L226.321 64.784L234.763 43.112C235.239 42.048 236.009 41.516 237.073 41.516ZM249.326 68.438C249.326 69.166 249.06 69.782 248.528 70.286C247.996 70.762 247.38 71 246.68 71C245.896 71 245.266 70.762 244.79 70.286C244.314 69.782 244.076 69.166 244.076 68.438V44.162C244.076 43.434 244.328 42.832 244.832 42.356C245.336 41.852 245.98 41.6 246.764 41.6C247.436 41.6 248.024 41.852 248.528 42.356C249.06 42.832 249.326 43.434 249.326 44.162V68.438ZM277.944 41.6C278.616 41.6 279.162 41.824 279.582 42.272C280.002 42.72 280.212 43.28 280.212 43.952V68.438C280.212 69.166 279.96 69.782 279.456 70.286C278.98 70.762 278.378 71 277.65 71C277.286 71 276.908 70.944 276.516 70.832C276.152 70.692 275.872 70.51 275.676 70.286L259.17 49.328L260.262 48.656V68.648C260.262 69.32 260.038 69.88 259.59 70.328C259.17 70.776 258.61 71 257.91 71C257.238 71 256.692 70.776 256.272 70.328C255.852 69.88 255.642 69.32 255.642 68.648V44.162C255.642 43.434 255.88 42.832 256.356 42.356C256.86 41.852 257.476 41.6 258.204 41.6C258.596 41.6 259.002 41.684 259.422 41.852C259.842 41.992 260.15 42.216 260.346 42.524L276.348 62.936L275.634 63.44V43.952C275.634 43.28 275.844 42.72 276.264 42.272C276.684 41.824 277.244 41.6 277.944 41.6ZM299.127 41.6C301.143 41.6 302.935 41.978 304.503 42.734C306.071 43.49 307.387 44.554 308.451 45.926C309.543 47.27 310.355 48.838 310.887 50.63C311.447 52.394 311.727 54.284 311.727 56.3C311.727 59.016 311.237 61.494 310.257 63.734C309.277 65.946 307.849 67.71 305.973 69.026C304.125 70.342 301.843 71 299.127 71H289.089C288.361 71 287.745 70.762 287.241 70.286C286.765 69.782 286.527 69.166 286.527 68.438V44.162C286.527 43.434 286.765 42.832 287.241 42.356C287.745 41.852 288.361 41.6 289.089 41.6H299.127ZM298.707 66.17C300.471 66.17 301.913 65.722 303.033 64.826C304.153 63.902 304.965 62.698 305.469 61.214C306.001 59.702 306.267 58.064 306.267 56.3C306.267 54.984 306.113 53.738 305.805 52.562C305.525 51.358 305.077 50.308 304.461 49.412C303.845 48.488 303.061 47.76 302.109 47.228C301.157 46.696 300.023 46.43 298.707 46.43H291.357L291.777 46.052V66.632L291.525 66.17H298.707ZM343.598 56.3C343.598 58.4 343.248 60.36 342.548 62.18C341.848 64 340.854 65.61 339.566 67.01C338.306 68.382 336.794 69.46 335.03 70.244C333.294 71.028 331.39 71.42 329.318 71.42C327.246 71.42 325.342 71.028 323.606 70.244C321.87 69.46 320.358 68.382 319.07 67.01C317.81 65.61 316.83 64 316.13 62.18C315.43 60.36 315.08 58.4 315.08 56.3C315.08 54.2 315.43 52.24 316.13 50.42C316.83 48.6 317.81 47.004 319.07 45.632C320.358 44.232 321.87 43.14 323.606 42.356C325.342 41.572 327.246 41.18 329.318 41.18C331.39 41.18 333.294 41.572 335.03 42.356C336.794 43.14 338.306 44.232 339.566 45.632C340.854 47.004 341.848 48.6 342.548 50.42C343.248 52.24 343.598 54.2 343.598 56.3ZM338.138 56.3C338.138 54.424 337.76 52.73 337.004 51.218C336.248 49.678 335.212 48.46 333.896 47.564C332.58 46.668 331.054 46.22 329.318 46.22C327.582 46.22 326.056 46.668 324.74 47.564C323.424 48.46 322.388 49.664 321.632 51.176C320.904 52.688 320.54 54.396 320.54 56.3C320.54 58.176 320.904 59.884 321.632 61.424C322.388 62.936 323.424 64.14 324.74 65.036C326.056 65.932 327.582 66.38 329.318 66.38C331.054 66.38 332.58 65.932 333.896 65.036C335.212 64.14 336.248 62.936 337.004 61.424C337.76 59.884 338.138 58.176 338.138 56.3ZM350.898 61.718C349.946 61.718 349.428 61.186 349.344 60.122L348.126 44.666C348.07 43.798 348.294 43.07 348.798 42.482C349.33 41.894 350.016 41.6 350.856 41.6C351.696 41.6 352.382 41.894 352.914 42.482C353.446 43.07 353.67 43.798 353.586 44.666L352.41 60.122C352.326 61.186 351.822 61.718 350.898 61.718ZM350.604 71C349.792 71 349.162 70.79 348.714 70.37C348.294 69.922 348.084 69.292 348.084 68.48V67.766C348.084 66.954 348.294 66.338 348.714 65.918C349.162 65.47 349.792 65.246 350.604 65.246H351.15C351.962 65.246 352.578 65.47 352.998 65.918C353.446 66.338 353.67 66.954 353.67 67.766V68.48C353.67 69.292 353.446 69.922 352.998 70.37C352.578 70.79 351.962 71 351.15 71H350.604Z" fill="#004742"/>
<path d="M9.68 103.632C9.808 103.717 9.88267 103.829 9.904 103.968C9.92533 104.096 9.89333 104.224 9.808 104.352C9.73333 104.448 9.63733 104.501 9.52 104.512C9.40267 104.523 9.29067 104.501 9.184 104.448C8.77867 104.181 8.34133 103.973 7.872 103.824C7.41333 103.675 6.91733 103.6 6.384 103.6C5.73333 103.6 5.12533 103.717 4.56 103.952C4.00533 104.176 3.52 104.507 3.104 104.944C2.688 105.371 2.36267 105.877 2.128 106.464C1.904 107.051 1.792 107.696 1.792 108.4C1.792 109.125 1.90933 109.787 2.144 110.384C2.37867 110.971 2.704 111.477 3.12 111.904C3.54667 112.331 4.03733 112.656 4.592 112.88C5.14667 113.104 5.744 113.216 6.384 113.216C6.90667 113.216 7.39733 113.141 7.856 112.992C8.32533 112.843 8.76267 112.64 9.168 112.384C9.27467 112.32 9.38667 112.299 9.504 112.32C9.632 112.331 9.73333 112.389 9.808 112.496C9.904 112.613 9.936 112.741 9.904 112.88C9.88267 113.008 9.81333 113.109 9.696 113.184C9.42933 113.355 9.11467 113.515 8.752 113.664C8.38933 113.813 8.00533 113.931 7.6 114.016C7.19467 114.112 6.78933 114.16 6.384 114.16C5.616 114.16 4.896 114.021 4.224 113.744C3.552 113.467 2.95467 113.077 2.432 112.576C1.90933 112.064 1.49867 111.456 1.2 110.752C0.912 110.048 0.768 109.264 0.768 108.4C0.768 107.568 0.912 106.805 1.2 106.112C1.488 105.408 1.888 104.8 2.4 104.288C2.912 103.776 3.50933 103.376 4.192 103.088C4.87467 102.8 5.60533 102.656 6.384 102.656C6.992 102.656 7.57867 102.741 8.144 102.912C8.70933 103.083 9.22133 103.323 9.68 103.632ZM18.4211 105.824C18.5598 105.824 18.6718 105.872 18.7571 105.968C18.8531 106.064 18.9011 106.181 18.9011 106.32V113.52C18.9011 113.648 18.8531 113.76 18.7571 113.856C18.6611 113.952 18.5491 114 18.4211 114C18.2825 114 18.1651 113.952 18.0691 113.856C17.9838 113.76 17.9411 113.648 17.9411 113.52V111.616L18.2131 111.488C18.2131 111.787 18.1278 112.091 17.9571 112.4C17.7971 112.709 17.5731 112.997 17.2851 113.264C16.9971 113.531 16.6558 113.749 16.2611 113.92C15.8771 114.08 15.4611 114.16 15.0131 114.16C14.2878 114.16 13.6371 113.973 13.0611 113.6C12.4958 113.227 12.0478 112.715 11.7171 112.064C11.3971 111.413 11.2371 110.683 11.2371 109.872C11.2371 109.04 11.4025 108.309 11.7331 107.68C12.0638 107.04 12.5118 106.539 13.0771 106.176C13.6425 105.813 14.2825 105.632 14.9971 105.632C15.4558 105.632 15.8825 105.712 16.2771 105.872C16.6825 106.032 17.0345 106.251 17.3331 106.528C17.6318 106.805 17.8611 107.125 18.0211 107.488C18.1918 107.84 18.2771 108.208 18.2771 108.592L17.9411 108.352V106.32C17.9411 106.181 17.9838 106.064 18.0691 105.968C18.1651 105.872 18.2825 105.824 18.4211 105.824ZM15.0931 113.264C15.6585 113.264 16.1598 113.12 16.5971 112.832C17.0345 112.533 17.3758 112.128 17.6211 111.616C17.8771 111.093 18.0051 110.512 18.0051 109.872C18.0051 109.243 17.8771 108.677 17.6211 108.176C17.3758 107.675 17.0345 107.275 16.5971 106.976C16.1598 106.677 15.6585 106.528 15.0931 106.528C14.5385 106.528 14.0371 106.672 13.5891 106.96C13.1518 107.248 12.8051 107.643 12.5491 108.144C12.3038 108.645 12.1811 109.221 12.1811 109.872C12.1811 110.512 12.3038 111.093 12.5491 111.616C12.8051 112.128 13.1518 112.533 13.5891 112.832C14.0265 113.12 14.5278 113.264 15.0931 113.264ZM28.1243 102.16C28.2629 102.16 28.3749 102.208 28.4603 102.304C28.5563 102.389 28.6042 102.501 28.6042 102.64V113.52C28.6042 113.648 28.5563 113.76 28.4603 113.856C28.3643 113.952 28.2523 114 28.1243 114C27.9856 114 27.8683 113.952 27.7723 113.856C27.6869 113.76 27.6443 113.648 27.6443 113.52V111.616L27.9163 111.392C27.9163 111.691 27.8363 112.005 27.6763 112.336C27.5163 112.656 27.2869 112.955 26.9883 113.232C26.7003 113.509 26.3589 113.733 25.9643 113.904C25.5803 114.075 25.1643 114.16 24.7163 114.16C24.0016 114.16 23.3563 113.973 22.7803 113.6C22.2149 113.227 21.7669 112.72 21.4363 112.08C21.1056 111.44 20.9403 110.709 20.9403 109.888C20.9403 109.077 21.1056 108.352 21.4363 107.712C21.7669 107.061 22.2149 106.555 22.7803 106.192C23.3456 105.819 23.9856 105.632 24.7003 105.632C25.1376 105.632 25.5536 105.712 25.9483 105.872C26.3429 106.032 26.6896 106.251 26.9883 106.528C27.2976 106.805 27.5376 107.125 27.7083 107.488C27.8896 107.84 27.9803 108.208 27.9803 108.592L27.6443 108.352V102.64C27.6443 102.512 27.6869 102.4 27.7723 102.304C27.8683 102.208 27.9856 102.16 28.1243 102.16ZM24.7963 113.264C25.3723 113.264 25.8736 113.12 26.3003 112.832C26.7376 112.533 27.0789 112.133 27.3243 111.632C27.5803 111.12 27.7083 110.539 27.7083 109.888C27.7083 109.248 27.5803 108.677 27.3243 108.176C27.0789 107.664 26.7376 107.264 26.3003 106.976C25.8629 106.677 25.3616 106.528 24.7963 106.528C24.2416 106.528 23.7403 106.677 23.2923 106.976C22.8549 107.264 22.5083 107.664 22.2523 108.176C22.0069 108.677 21.8843 109.248 21.8843 109.888C21.8843 110.528 22.0069 111.104 22.2523 111.616C22.5083 112.128 22.8549 112.533 23.2923 112.832C23.7403 113.12 24.2416 113.264 24.7963 113.264ZM37.8274 105.824C37.966 105.824 38.078 105.872 38.1634 105.968C38.2594 106.064 38.3074 106.181 38.3074 106.32V113.52C38.3074 113.648 38.2594 113.76 38.1634 113.856C38.0674 113.952 37.9554 114 37.8274 114C37.6887 114 37.5714 113.952 37.4754 113.856C37.39 113.76 37.3474 113.648 37.3474 113.52V111.616L37.6194 111.488C37.6194 111.787 37.534 112.091 37.3634 112.4C37.2034 112.709 36.9794 112.997 36.6914 113.264C36.4034 113.531 36.062 113.749 35.6674 113.92C35.2834 114.08 34.8674 114.16 34.4194 114.16C33.694 114.16 33.0434 113.973 32.4674 113.6C31.902 113.227 31.454 112.715 31.1234 112.064C30.8034 111.413 30.6434 110.683 30.6434 109.872C30.6434 109.04 30.8087 108.309 31.1394 107.68C31.47 107.04 31.918 106.539 32.4834 106.176C33.0487 105.813 33.6887 105.632 34.4034 105.632C34.862 105.632 35.2887 105.712 35.6834 105.872C36.0887 106.032 36.4407 106.251 36.7394 106.528C37.038 106.805 37.2674 107.125 37.4274 107.488C37.598 107.84 37.6834 108.208 37.6834 108.592L37.3474 108.352V106.32C37.3474 106.181 37.39 106.064 37.4754 105.968C37.5714 105.872 37.6887 105.824 37.8274 105.824ZM34.4994 113.264C35.0647 113.264 35.566 113.12 36.0034 112.832C36.4407 112.533 36.782 112.128 37.0274 111.616C37.2834 111.093 37.4114 110.512 37.4114 109.872C37.4114 109.243 37.2834 108.677 37.0274 108.176C36.782 107.675 36.4407 107.275 36.0034 106.976C35.566 106.677 35.0647 106.528 34.4994 106.528C33.9447 106.528 33.4434 106.672 32.9954 106.96C32.558 107.248 32.2114 107.643 31.9554 108.144C31.71 108.645 31.5874 109.221 31.5874 109.872C31.5874 110.512 31.71 111.093 31.9554 111.616C32.2114 112.128 32.558 112.533 32.9954 112.832C33.4327 113.12 33.934 113.264 34.4994 113.264ZM40.3625 112.704C40.2772 112.576 40.2345 112.453 40.2345 112.336C40.2452 112.208 40.3145 112.107 40.4425 112.032C40.5278 111.957 40.6238 111.925 40.7305 111.936C40.8478 111.947 40.9545 112 41.0505 112.096C41.3385 112.469 41.6852 112.773 42.0905 113.008C42.5065 113.232 42.9972 113.344 43.5625 113.344C43.8612 113.344 44.1545 113.296 44.4425 113.2C44.7412 113.093 44.9865 112.939 45.1785 112.736C45.3705 112.523 45.4665 112.256 45.4665 111.936C45.4665 111.605 45.3705 111.339 45.1785 111.136C44.9865 110.933 44.7358 110.773 44.4265 110.656C44.1278 110.539 43.8078 110.437 43.4665 110.352C43.1038 110.256 42.7518 110.149 42.4105 110.032C42.0692 109.904 41.7652 109.749 41.4985 109.568C41.2425 109.376 41.0345 109.147 40.8745 108.88C40.7145 108.613 40.6345 108.288 40.6345 107.904C40.6345 107.456 40.7572 107.061 41.0025 106.72C41.2478 106.379 41.5785 106.112 41.9945 105.92C42.4212 105.728 42.9012 105.632 43.4345 105.632C43.7012 105.632 43.9892 105.669 44.2985 105.744C44.6078 105.808 44.9118 105.92 45.2105 106.08C45.5092 106.24 45.7758 106.459 46.0105 106.736C46.1065 106.832 46.1545 106.944 46.1545 107.072C46.1545 107.189 46.1012 107.296 45.9945 107.392C45.9092 107.456 45.8078 107.488 45.6905 107.488C45.5838 107.488 45.4932 107.445 45.4185 107.36C45.1625 107.072 44.8585 106.853 44.5065 106.704C44.1545 106.555 43.7758 106.48 43.3705 106.48C43.0612 106.48 42.7678 106.533 42.4905 106.64C42.2238 106.736 41.9998 106.885 41.8185 107.088C41.6372 107.291 41.5465 107.557 41.5465 107.888C41.5678 108.197 41.6745 108.448 41.8665 108.64C42.0692 108.832 42.3305 108.992 42.6505 109.12C42.9812 109.248 43.3492 109.365 43.7545 109.472C44.0958 109.557 44.4212 109.659 44.7305 109.776C45.0505 109.893 45.3278 110.043 45.5625 110.224C45.8078 110.395 45.9998 110.613 46.1385 110.88C46.2878 111.147 46.3625 111.483 46.3625 111.888C46.3625 112.357 46.2292 112.763 45.9625 113.104C45.7065 113.445 45.3598 113.707 44.9225 113.888C44.4852 114.069 43.9998 114.16 43.4665 114.16C42.8905 114.16 42.3305 114.048 41.7865 113.824C41.2532 113.6 40.7785 113.227 40.3625 112.704ZM47.7985 105.856H51.5265C51.6545 105.856 51.7612 105.904 51.8465 106C51.9318 106.085 51.9745 106.192 51.9745 106.32C51.9745 106.437 51.9318 106.539 51.8465 106.624C51.7612 106.709 51.6545 106.752 51.5265 106.752H47.7985C47.6705 106.752 47.5585 106.709 47.4625 106.624C47.3772 106.528 47.3345 106.421 47.3345 106.304C47.3345 106.176 47.3772 106.069 47.4625 105.984C47.5585 105.899 47.6705 105.856 47.7985 105.856ZM49.4465 103.6C49.5852 103.6 49.6972 103.648 49.7825 103.744C49.8785 103.84 49.9265 103.952 49.9265 104.08V112.112C49.9265 112.411 49.9638 112.635 50.0385 112.784C50.1238 112.933 50.2305 113.035 50.3585 113.088C50.4865 113.131 50.6145 113.152 50.7425 113.152C50.8278 113.152 50.9025 113.141 50.9665 113.12C51.0412 113.088 51.1212 113.072 51.2065 113.072C51.3025 113.072 51.3825 113.109 51.4465 113.184C51.5212 113.259 51.5585 113.355 51.5585 113.472C51.5585 113.621 51.4732 113.749 51.3025 113.856C51.1318 113.952 50.9292 114 50.6945 114C50.5985 114 50.4545 113.995 50.2625 113.984C50.0705 113.963 49.8732 113.904 49.6705 113.808C49.4678 113.701 49.2972 113.52 49.1585 113.264C49.0305 113.008 48.9665 112.64 48.9665 112.16V104.08C48.9665 103.952 49.0092 103.84 49.0945 103.744C49.1905 103.648 49.3078 103.6 49.4465 103.6ZM54.2284 114C54.079 114 53.9617 113.952 53.8764 113.856C53.791 113.76 53.7484 113.648 53.7484 113.52V106.352C53.7484 106.224 53.791 106.112 53.8764 106.016C53.9724 105.92 54.0897 105.872 54.2284 105.872C54.367 105.872 54.479 105.92 54.5644 106.016C54.6604 106.112 54.7084 106.224 54.7084 106.352V108.752L54.4684 108.8C54.5004 108.427 54.591 108.059 54.7404 107.696C54.9004 107.323 55.1137 106.981 55.3804 106.672C55.647 106.363 55.9617 106.112 56.3244 105.92C56.6977 105.728 57.1137 105.632 57.5724 105.632C57.7644 105.632 57.951 105.675 58.1324 105.76C58.3137 105.835 58.4044 105.963 58.4044 106.144C58.4044 106.304 58.3617 106.427 58.2764 106.512C58.191 106.597 58.0897 106.64 57.9724 106.64C57.8764 106.64 57.7697 106.613 57.6524 106.56C57.5457 106.507 57.4017 106.48 57.2204 106.48C56.9217 106.48 56.623 106.571 56.3244 106.752C56.0257 106.923 55.7537 107.157 55.5084 107.456C55.263 107.755 55.0657 108.091 54.9164 108.464C54.7777 108.827 54.7084 109.195 54.7084 109.568V113.52C54.7084 113.648 54.6604 113.76 54.5644 113.856C54.4684 113.952 54.3564 114 54.2284 114ZM63.2413 114.16C62.4199 114.16 61.6946 113.984 61.0653 113.632C60.4359 113.28 59.9453 112.789 59.5933 112.16C59.2413 111.531 59.0653 110.795 59.0653 109.952C59.0653 109.045 59.2413 108.272 59.5933 107.632C59.9559 106.992 60.4199 106.501 60.9853 106.16C61.5613 105.808 62.1693 105.632 62.8093 105.632C63.2786 105.632 63.7319 105.717 64.1693 105.888C64.6173 106.048 65.0119 106.293 65.3533 106.624C65.7053 106.944 65.9826 107.339 66.1853 107.808C66.3986 108.277 66.5159 108.821 66.5373 109.44C66.5266 109.568 66.4733 109.68 66.3773 109.776C66.2813 109.861 66.1693 109.904 66.0413 109.904H59.6253L59.4333 109.04H65.7373L65.5293 109.232V108.912C65.4866 108.411 65.3266 107.984 65.0493 107.632C64.7719 107.28 64.4359 107.013 64.0413 106.832C63.6466 106.651 63.2359 106.56 62.8093 106.56C62.4893 106.56 62.1586 106.624 61.8173 106.752C61.4866 106.88 61.1826 107.083 60.9053 107.36C60.6386 107.627 60.4199 107.973 60.2493 108.4C60.0786 108.816 59.9933 109.312 59.9933 109.888C59.9933 110.517 60.1213 111.088 60.3773 111.6C60.6333 112.112 61.0013 112.517 61.4813 112.816C61.9719 113.115 62.5533 113.264 63.2253 113.264C63.5986 113.264 63.9346 113.211 64.2333 113.104C64.5319 112.997 64.7933 112.859 65.0173 112.688C65.2413 112.507 65.4279 112.32 65.5773 112.128C65.6946 112.032 65.8119 111.984 65.9293 111.984C66.0359 111.984 66.1266 112.027 66.2013 112.112C66.2866 112.197 66.3293 112.293 66.3293 112.4C66.3293 112.528 66.2759 112.64 66.1693 112.736C65.8493 113.12 65.4333 113.456 64.9213 113.744C64.4093 114.021 63.8493 114.16 63.2413 114.16ZM68.7201 109.472C68.5921 109.472 68.4801 109.424 68.3841 109.328C68.2988 109.232 68.2561 109.115 68.2561 108.976C68.2561 108.848 68.2988 108.741 68.3841 108.656C68.4801 108.56 68.5921 108.512 68.7201 108.512H72.1761C72.3041 108.512 72.4161 108.56 72.5121 108.656C72.6081 108.752 72.6561 108.869 72.6561 109.008C72.6561 109.136 72.6081 109.248 72.5121 109.344C72.4161 109.429 72.3041 109.472 72.1761 109.472H68.7201ZM74.3625 112.704C74.2772 112.576 74.2345 112.453 74.2345 112.336C74.2452 112.208 74.3145 112.107 74.4425 112.032C74.5278 111.957 74.6238 111.925 74.7305 111.936C74.8478 111.947 74.9545 112 75.0505 112.096C75.3385 112.469 75.6852 112.773 76.0905 113.008C76.5065 113.232 76.9972 113.344 77.5625 113.344C77.8612 113.344 78.1545 113.296 78.4425 113.2C78.7412 113.093 78.9865 112.939 79.1785 112.736C79.3705 112.523 79.4665 112.256 79.4665 111.936C79.4665 111.605 79.3705 111.339 79.1785 111.136C78.9865 110.933 78.7358 110.773 78.4265 110.656C78.1278 110.539 77.8078 110.437 77.4665 110.352C77.1038 110.256 76.7518 110.149 76.4105 110.032C76.0692 109.904 75.7652 109.749 75.4985 109.568C75.2425 109.376 75.0345 109.147 74.8745 108.88C74.7145 108.613 74.6345 108.288 74.6345 107.904C74.6345 107.456 74.7572 107.061 75.0025 106.72C75.2478 106.379 75.5785 106.112 75.9945 105.92C76.4212 105.728 76.9012 105.632 77.4345 105.632C77.7012 105.632 77.9892 105.669 78.2985 105.744C78.6078 105.808 78.9118 105.92 79.2105 106.08C79.5092 106.24 79.7758 106.459 80.0105 106.736C80.1065 106.832 80.1545 106.944 80.1545 107.072C80.1545 107.189 80.1012 107.296 79.9945 107.392C79.9092 107.456 79.8078 107.488 79.6905 107.488C79.5838 107.488 79.4932 107.445 79.4185 107.36C79.1625 107.072 78.8585 106.853 78.5065 106.704C78.1545 106.555 77.7758 106.48 77.3705 106.48C77.0612 106.48 76.7678 106.533 76.4905 106.64C76.2238 106.736 75.9998 106.885 75.8185 107.088C75.6372 107.291 75.5465 107.557 75.5465 107.888C75.5678 108.197 75.6745 108.448 75.8665 108.64C76.0692 108.832 76.3305 108.992 76.6505 109.12C76.9812 109.248 77.3492 109.365 77.7545 109.472C78.0958 109.557 78.4212 109.659 78.7305 109.776C79.0505 109.893 79.3278 110.043 79.5625 110.224C79.8078 110.395 79.9998 110.613 80.1385 110.88C80.2878 111.147 80.3625 111.483 80.3625 111.888C80.3625 112.357 80.2292 112.763 79.9625 113.104C79.7065 113.445 79.3598 113.707 78.9225 113.888C78.4852 114.069 77.9998 114.16 77.4665 114.16C76.8905 114.16 76.3305 114.048 75.7865 113.824C75.2532 113.6 74.7785 113.227 74.3625 112.704ZM86.0225 114.16C85.2012 114.16 84.4758 113.984 83.8465 113.632C83.2172 113.28 82.7265 112.789 82.3745 112.16C82.0225 111.531 81.8465 110.795 81.8465 109.952C81.8465 109.045 82.0225 108.272 82.3745 107.632C82.7372 106.992 83.2012 106.501 83.7665 106.16C84.3425 105.808 84.9505 105.632 85.5905 105.632C86.0598 105.632 86.5132 105.717 86.9505 105.888C87.3985 106.048 87.7932 106.293 88.1345 106.624C88.4865 106.944 88.7638 107.339 88.9665 107.808C89.1798 108.277 89.2972 108.821 89.3185 109.44C89.3078 109.568 89.2545 109.68 89.1585 109.776C89.0625 109.861 88.9505 109.904 88.8225 109.904H82.4065L82.2145 109.04H88.5185L88.3105 109.232V108.912C88.2678 108.411 88.1078 107.984 87.8305 107.632C87.5532 107.28 87.2172 107.013 86.8225 106.832C86.4278 106.651 86.0172 106.56 85.5905 106.56C85.2705 106.56 84.9398 106.624 84.5985 106.752C84.2678 106.88 83.9638 107.083 83.6865 107.36C83.4198 107.627 83.2012 107.973 83.0305 108.4C82.8598 108.816 82.7745 109.312 82.7745 109.888C82.7745 110.517 82.9025 111.088 83.1585 111.6C83.4145 112.112 83.7825 112.517 84.2625 112.816C84.7532 113.115 85.3345 113.264 86.0065 113.264C86.3798 113.264 86.7158 113.211 87.0145 113.104C87.3132 112.997 87.5745 112.859 87.7985 112.688C88.0225 112.507 88.2092 112.32 88.3585 112.128C88.4758 112.032 88.5932 111.984 88.7105 111.984C88.8172 111.984 88.9078 112.027 88.9825 112.112C89.0678 112.197 89.1105 112.293 89.1105 112.4C89.1105 112.528 89.0572 112.64 88.9505 112.736C88.6305 113.12 88.2145 113.456 87.7025 113.744C87.1905 114.021 86.6305 114.16 86.0225 114.16ZM99.4444 114.16C98.623 114.16 97.8977 113.984 97.2684 113.632C96.639 113.28 96.1484 112.789 95.7964 112.16C95.4444 111.531 95.2684 110.795 95.2684 109.952C95.2684 109.045 95.4444 108.272 95.7964 107.632C96.159 106.992 96.623 106.501 97.1884 106.16C97.7644 105.808 98.3724 105.632 99.0124 105.632C99.4817 105.632 99.935 105.717 100.372 105.888C100.82 106.048 101.215 106.293 101.556 106.624C101.908 106.944 102.186 107.339 102.388 107.808C102.602 108.277 102.719 108.821 102.74 109.44C102.73 109.568 102.676 109.68 102.58 109.776C102.484 109.861 102.372 109.904 102.244 109.904H95.8284L95.6364 109.04H101.94L101.732 109.232V108.912C101.69 108.411 101.53 107.984 101.252 107.632C100.975 107.28 100.639 107.013 100.244 106.832C99.8497 106.651 99.439 106.56 99.0124 106.56C98.6924 106.56 98.3617 106.624 98.0204 106.752C97.6897 106.88 97.3857 107.083 97.1084 107.36C96.8417 107.627 96.623 107.973 96.4524 108.4C96.2817 108.816 96.1964 109.312 96.1964 109.888C96.1964 110.517 96.3244 111.088 96.5804 111.6C96.8364 112.112 97.2044 112.517 97.6844 112.816C98.175 113.115 98.7564 113.264 99.4284 113.264C99.8017 113.264 100.138 113.211 100.436 113.104C100.735 112.997 100.996 112.859 101.22 112.688C101.444 112.507 101.631 112.32 101.78 112.128C101.898 112.032 102.015 111.984 102.132 111.984C102.239 111.984 102.33 112.027 102.404 112.112C102.49 112.197 102.532 112.293 102.532 112.4C102.532 112.528 102.479 112.64 102.372 112.736C102.052 113.12 101.636 113.456 101.124 113.744C100.612 114.021 100.052 114.16 99.4444 114.16ZM112.13 102.224C112.29 102.224 112.461 102.24 112.642 102.272C112.834 102.304 113 102.363 113.138 102.448C113.277 102.523 113.346 102.64 113.346 102.8C113.346 102.917 113.304 103.024 113.218 103.12C113.133 103.205 113.037 103.248 112.93 103.248C112.824 103.248 112.69 103.221 112.53 103.168C112.37 103.104 112.2 103.072 112.018 103.072C111.794 103.072 111.602 103.125 111.442 103.232C111.282 103.328 111.16 103.472 111.074 103.664C110.989 103.845 110.946 104.069 110.946 104.336V113.52C110.946 113.648 110.898 113.76 110.802 113.856C110.717 113.952 110.605 114 110.466 114C110.328 114 110.21 113.952 110.114 113.856C110.029 113.76 109.986 113.648 109.986 113.52V104.336C109.986 103.653 110.184 103.131 110.578 102.768C110.984 102.405 111.501 102.224 112.13 102.224ZM112.738 105.984C112.866 105.984 112.973 106.027 113.058 106.112C113.144 106.197 113.186 106.304 113.186 106.432C113.186 106.56 113.144 106.667 113.058 106.752C112.973 106.837 112.866 106.88 112.738 106.88H108.818C108.701 106.88 108.594 106.837 108.498 106.752C108.413 106.656 108.37 106.549 108.37 106.432C108.37 106.293 108.413 106.187 108.498 106.112C108.594 106.027 108.701 105.984 108.818 105.984H112.738ZM121.64 105.824C121.779 105.824 121.891 105.872 121.976 105.968C122.072 106.064 122.12 106.181 122.12 106.32V113.52C122.12 113.648 122.072 113.76 121.976 113.856C121.88 113.952 121.768 114 121.64 114C121.501 114 121.384 113.952 121.288 113.856C121.203 113.76 121.16 113.648 121.16 113.52V111.616L121.432 111.488C121.432 111.787 121.347 112.091 121.176 112.4C121.016 112.709 120.792 112.997 120.504 113.264C120.216 113.531 119.875 113.749 119.48 113.92C119.096 114.08 118.68 114.16 118.232 114.16C117.507 114.16 116.856 113.973 116.28 113.6C115.715 113.227 115.267 112.715 114.936 112.064C114.616 111.413 114.456 110.683 114.456 109.872C114.456 109.04 114.621 108.309 114.952 107.68C115.283 107.04 115.731 106.539 116.296 106.176C116.861 105.813 117.501 105.632 118.216 105.632C118.675 105.632 119.101 105.712 119.496 105.872C119.901 106.032 120.253 106.251 120.552 106.528C120.851 106.805 121.08 107.125 121.24 107.488C121.411 107.84 121.496 108.208 121.496 108.592L121.16 108.352V106.32C121.16 106.181 121.203 106.064 121.288 105.968C121.384 105.872 121.501 105.824 121.64 105.824ZM118.312 113.264C118.877 113.264 119.379 113.12 119.816 112.832C120.253 112.533 120.595 112.128 120.84 111.616C121.096 111.093 121.224 110.512 121.224 109.872C121.224 109.243 121.096 108.677 120.84 108.176C120.595 107.675 120.253 107.275 119.816 106.976C119.379 106.677 118.877 106.528 118.312 106.528C117.757 106.528 117.256 106.672 116.808 106.96C116.371 107.248 116.024 107.643 115.768 108.144C115.523 108.645 115.4 109.221 115.4 109.872C115.4 110.512 115.523 111.093 115.768 111.616C116.024 112.128 116.371 112.533 116.808 112.832C117.245 113.12 117.747 113.264 118.312 113.264ZM128.239 105.632C128.751 105.632 129.22 105.691 129.647 105.808C130.074 105.915 130.415 106.064 130.671 106.256C130.938 106.448 131.071 106.656 131.071 106.88C131.071 106.987 131.034 107.093 130.959 107.2C130.884 107.296 130.783 107.344 130.655 107.344C130.527 107.344 130.42 107.312 130.335 107.248C130.26 107.184 130.18 107.109 130.095 107.024C130.02 106.939 129.908 106.859 129.759 106.784C129.62 106.72 129.423 106.661 129.167 106.608C128.911 106.555 128.618 106.528 128.287 106.528C127.69 106.528 127.151 106.677 126.671 106.976C126.191 107.275 125.812 107.68 125.535 108.192C125.258 108.693 125.119 109.259 125.119 109.888C125.119 110.528 125.252 111.104 125.519 111.616C125.786 112.128 126.154 112.533 126.623 112.832C127.092 113.12 127.642 113.264 128.271 113.264C128.698 113.264 129.028 113.227 129.263 113.152C129.498 113.077 129.7 112.992 129.871 112.896C130.074 112.779 130.218 112.667 130.303 112.56C130.399 112.443 130.522 112.384 130.671 112.384C130.81 112.384 130.911 112.427 130.975 112.512C131.05 112.587 131.087 112.688 131.087 112.816C131.087 112.987 130.959 113.179 130.703 113.392C130.458 113.595 130.116 113.776 129.679 113.936C129.242 114.085 128.74 114.16 128.175 114.16C127.375 114.16 126.671 113.973 126.063 113.6C125.466 113.227 124.996 112.72 124.655 112.08C124.324 111.429 124.159 110.699 124.159 109.888C124.159 109.109 124.33 108.4 124.671 107.76C125.012 107.12 125.487 106.608 126.095 106.224C126.714 105.829 127.428 105.632 128.239 105.632ZM127.199 116.288C127.124 116.288 127.034 116.267 126.927 116.224C126.82 116.181 126.724 116.123 126.639 116.048C126.554 115.973 126.511 115.888 126.511 115.792C126.511 115.675 126.548 115.579 126.623 115.504L128.015 113.76H128.639L127.615 115.984C127.519 116.187 127.38 116.288 127.199 116.288ZM139.624 105.824C139.763 105.824 139.875 105.872 139.96 105.968C140.056 106.064 140.104 106.181 140.104 106.32V113.52C140.104 113.648 140.056 113.76 139.96 113.856C139.864 113.952 139.752 114 139.624 114C139.486 114 139.368 113.952 139.272 113.856C139.187 113.76 139.144 113.648 139.144 113.52V111.616L139.416 111.488C139.416 111.787 139.331 112.091 139.16 112.4C139 112.709 138.776 112.997 138.488 113.264C138.2 113.531 137.859 113.749 137.464 113.92C137.08 114.08 136.664 114.16 136.216 114.16C135.491 114.16 134.84 113.973 134.264 113.6C133.699 113.227 133.251 112.715 132.92 112.064C132.6 111.413 132.44 110.683 132.44 109.872C132.44 109.04 132.606 108.309 132.936 107.68C133.267 107.04 133.715 106.539 134.28 106.176C134.846 105.813 135.486 105.632 136.2 105.632C136.659 105.632 137.086 105.712 137.48 105.872C137.886 106.032 138.238 106.251 138.536 106.528C138.835 106.805 139.064 107.125 139.224 107.488C139.395 107.84 139.48 108.208 139.48 108.592L139.144 108.352V106.32C139.144 106.181 139.187 106.064 139.272 105.968C139.368 105.872 139.486 105.824 139.624 105.824ZM136.296 113.264C136.862 113.264 137.363 113.12 137.8 112.832C138.238 112.533 138.579 112.128 138.824 111.616C139.08 111.093 139.208 110.512 139.208 109.872C139.208 109.243 139.08 108.677 138.824 108.176C138.579 107.675 138.238 107.275 137.8 106.976C137.363 106.677 136.862 106.528 136.296 106.528C135.742 106.528 135.24 106.672 134.792 106.96C134.355 107.248 134.008 107.643 133.752 108.144C133.507 108.645 133.384 109.221 133.384 109.872C133.384 110.512 133.507 111.093 133.752 111.616C134.008 112.128 134.355 112.533 134.792 112.832C135.23 113.12 135.731 113.264 136.296 113.264ZM148.166 114.736C148.166 115.248 148.044 115.68 147.798 116.032C147.564 116.395 147.27 116.672 146.918 116.864C146.566 117.056 146.214 117.152 145.862 117.152C145.724 117.152 145.617 117.109 145.542 117.024C145.457 116.939 145.414 116.837 145.414 116.72V116.656C145.414 116.528 145.457 116.427 145.542 116.352C145.628 116.277 145.724 116.229 145.83 116.208C146.076 116.155 146.3 116.064 146.502 115.936C146.716 115.808 146.886 115.632 147.014 115.408C147.142 115.184 147.206 114.912 147.206 114.592V106.336C147.206 106.208 147.249 106.096 147.334 106C147.43 105.904 147.548 105.856 147.686 105.856C147.825 105.856 147.937 105.904 148.022 106C148.118 106.096 148.166 106.208 148.166 106.336V114.736ZM147.686 104.592C147.462 104.592 147.292 104.544 147.174 104.448C147.068 104.341 147.014 104.192 147.014 104V103.84C147.014 103.648 147.073 103.504 147.19 103.408C147.318 103.301 147.489 103.248 147.702 103.248C147.905 103.248 148.06 103.301 148.166 103.408C148.284 103.504 148.342 103.648 148.342 103.84V104C148.342 104.192 148.284 104.341 148.166 104.448C148.06 104.544 147.9 104.592 147.686 104.592ZM158.015 105.824C158.154 105.824 158.266 105.872 158.351 105.968C158.447 106.064 158.495 106.181 158.495 106.32V113.52C158.495 113.648 158.447 113.76 158.351 113.856C158.255 113.952 158.143 114 158.015 114C157.876 114 157.759 113.952 157.663 113.856C157.578 113.76 157.535 113.648 157.535 113.52V111.616L157.807 111.488C157.807 111.787 157.722 112.091 157.551 112.4C157.391 112.709 157.167 112.997 156.879 113.264C156.591 113.531 156.25 113.749 155.855 113.92C155.471 114.08 155.055 114.16 154.607 114.16C153.882 114.16 153.231 113.973 152.655 113.6C152.09 113.227 151.642 112.715 151.311 112.064C150.991 111.413 150.831 110.683 150.831 109.872C150.831 109.04 150.996 108.309 151.327 107.68C151.658 107.04 152.106 106.539 152.671 106.176C153.236 105.813 153.876 105.632 154.591 105.632C155.05 105.632 155.476 105.712 155.871 105.872C156.276 106.032 156.628 106.251 156.927 106.528C157.226 106.805 157.455 107.125 157.615 107.488C157.786 107.84 157.871 108.208 157.871 108.592L157.535 108.352V106.32C157.535 106.181 157.578 106.064 157.663 105.968C157.759 105.872 157.876 105.824 158.015 105.824ZM154.687 113.264C155.252 113.264 155.754 113.12 156.191 112.832C156.628 112.533 156.97 112.128 157.215 111.616C157.471 111.093 157.599 110.512 157.599 109.872C157.599 109.243 157.471 108.677 157.215 108.176C156.97 107.675 156.628 107.275 156.191 106.976C155.754 106.677 155.252 106.528 154.687 106.528C154.132 106.528 153.631 106.672 153.183 106.96C152.746 107.248 152.399 107.643 152.143 108.144C151.898 108.645 151.775 109.221 151.775 109.872C151.775 110.512 151.898 111.093 152.143 111.616C152.399 112.128 152.746 112.533 153.183 112.832C153.62 113.12 154.122 113.264 154.687 113.264ZM154.575 105.168C154.522 105.168 154.463 105.141 154.399 105.088C154.346 105.024 154.319 104.955 154.319 104.88C154.319 104.816 154.346 104.741 154.399 104.656L155.375 103.136C155.428 103.051 155.498 102.971 155.583 102.896C155.679 102.821 155.791 102.784 155.919 102.784C156.079 102.784 156.207 102.827 156.303 102.912C156.399 102.997 156.442 103.12 156.431 103.28C156.431 103.355 156.415 103.424 156.383 103.488C156.362 103.541 156.324 103.595 156.271 103.648L155.071 104.912C155.007 104.987 154.932 105.051 154.847 105.104C154.762 105.147 154.671 105.168 154.575 105.168ZM173.005 109.904C173.005 110.715 172.829 111.445 172.477 112.096C172.125 112.736 171.645 113.243 171.037 113.616C170.429 113.979 169.736 114.16 168.957 114.16C168.2 114.16 167.512 113.979 166.893 113.616C166.285 113.243 165.8 112.736 165.437 112.096C165.085 111.445 164.909 110.715 164.909 109.904C164.909 109.083 165.085 108.352 165.437 107.712C165.8 107.072 166.285 106.565 166.893 106.192C167.512 105.819 168.2 105.632 168.957 105.632C169.736 105.632 170.429 105.819 171.037 106.192C171.645 106.565 172.125 107.072 172.477 107.712C172.829 108.352 173.005 109.083 173.005 109.904ZM172.045 109.904C172.045 109.253 171.912 108.677 171.645 108.176C171.378 107.664 171.01 107.264 170.541 106.976C170.082 106.677 169.554 106.528 168.957 106.528C168.381 106.528 167.858 106.677 167.389 106.976C166.92 107.264 166.546 107.664 166.269 108.176C166.002 108.677 165.869 109.253 165.869 109.904C165.869 110.555 166.002 111.131 166.269 111.632C166.546 112.133 166.92 112.533 167.389 112.832C167.858 113.12 168.381 113.264 168.957 113.264C169.554 113.264 170.082 113.12 170.541 112.832C171.01 112.533 171.378 112.133 171.645 111.632C171.912 111.131 172.045 110.555 172.045 109.904ZM178.956 112.704C178.871 112.576 178.828 112.453 178.828 112.336C178.839 112.208 178.908 112.107 179.036 112.032C179.122 111.957 179.218 111.925 179.324 111.936C179.442 111.947 179.548 112 179.644 112.096C179.932 112.469 180.279 112.773 180.684 113.008C181.1 113.232 181.591 113.344 182.156 113.344C182.455 113.344 182.748 113.296 183.036 113.2C183.335 113.093 183.58 112.939 183.772 112.736C183.964 112.523 184.06 112.256 184.06 111.936C184.06 111.605 183.964 111.339 183.772 111.136C183.58 110.933 183.33 110.773 183.02 110.656C182.722 110.539 182.402 110.437 182.06 110.352C181.698 110.256 181.346 110.149 181.004 110.032C180.663 109.904 180.359 109.749 180.092 109.568C179.836 109.376 179.628 109.147 179.468 108.88C179.308 108.613 179.228 108.288 179.228 107.904C179.228 107.456 179.351 107.061 179.596 106.72C179.842 106.379 180.172 106.112 180.588 105.92C181.015 105.728 181.495 105.632 182.028 105.632C182.295 105.632 182.583 105.669 182.892 105.744C183.202 105.808 183.506 105.92 183.804 106.08C184.103 106.24 184.37 106.459 184.604 106.736C184.7 106.832 184.748 106.944 184.748 107.072C184.748 107.189 184.695 107.296 184.588 107.392C184.503 107.456 184.402 107.488 184.284 107.488C184.178 107.488 184.087 107.445 184.012 107.36C183.756 107.072 183.452 106.853 183.1 106.704C182.748 106.555 182.37 106.48 181.964 106.48C181.655 106.48 181.362 106.533 181.084 106.64C180.818 106.736 180.594 106.885 180.412 107.088C180.231 107.291 180.14 107.557 180.14 107.888C180.162 108.197 180.268 108.448 180.46 108.64C180.663 108.832 180.924 108.992 181.244 109.12C181.575 109.248 181.943 109.365 182.348 109.472C182.69 109.557 183.015 109.659 183.324 109.776C183.644 109.893 183.922 110.043 184.156 110.224C184.402 110.395 184.594 110.613 184.732 110.88C184.882 111.147 184.956 111.483 184.956 111.888C184.956 112.357 184.823 112.763 184.556 113.104C184.3 113.445 183.954 113.707 183.516 113.888C183.079 114.069 182.594 114.16 182.06 114.16C181.484 114.16 180.924 114.048 180.38 113.824C179.847 113.6 179.372 113.227 178.956 112.704ZM190.616 114.16C189.795 114.16 189.07 113.984 188.44 113.632C187.811 113.28 187.32 112.789 186.968 112.16C186.616 111.531 186.44 110.795 186.44 109.952C186.44 109.045 186.616 108.272 186.968 107.632C187.331 106.992 187.795 106.501 188.36 106.16C188.936 105.808 189.544 105.632 190.184 105.632C190.654 105.632 191.107 105.717 191.544 105.888C191.992 106.048 192.387 106.293 192.728 106.624C193.08 106.944 193.358 107.339 193.56 107.808C193.774 108.277 193.891 108.821 193.912 109.44C193.902 109.568 193.848 109.68 193.752 109.776C193.656 109.861 193.544 109.904 193.416 109.904H187L186.808 109.04H193.112L192.904 109.232V108.912C192.862 108.411 192.702 107.984 192.424 107.632C192.147 107.28 191.811 107.013 191.416 106.832C191.022 106.651 190.611 106.56 190.184 106.56C189.864 106.56 189.534 106.624 189.192 106.752C188.862 106.88 188.558 107.083 188.28 107.36C188.014 107.627 187.795 107.973 187.624 108.4C187.454 108.816 187.368 109.312 187.368 109.888C187.368 110.517 187.496 111.088 187.752 111.6C188.008 112.112 188.376 112.517 188.856 112.816C189.347 113.115 189.928 113.264 190.6 113.264C190.974 113.264 191.31 113.211 191.608 113.104C191.907 112.997 192.168 112.859 192.392 112.688C192.616 112.507 192.803 112.32 192.952 112.128C193.07 112.032 193.187 111.984 193.304 111.984C193.411 111.984 193.502 112.027 193.576 112.112C193.662 112.197 193.704 112.293 193.704 112.4C193.704 112.528 193.651 112.64 193.544 112.736C193.224 113.12 192.808 113.456 192.296 113.744C191.784 114.021 191.224 114.16 190.616 114.16ZM202.079 105.872C202.218 105.872 202.33 105.92 202.415 106.016C202.511 106.112 202.559 106.224 202.559 106.352V110.864C202.559 111.92 202.26 112.725 201.663 113.28C201.066 113.835 200.26 114.112 199.247 114.112C198.244 114.112 197.444 113.835 196.847 113.28C196.26 112.725 195.967 111.92 195.967 110.864V106.352C195.967 106.224 196.01 106.112 196.095 106.016C196.191 105.92 196.308 105.872 196.447 105.872C196.586 105.872 196.698 105.92 196.783 106.016C196.879 106.112 196.927 106.224 196.927 106.352V110.864C196.927 111.632 197.13 112.219 197.535 112.624C197.951 113.019 198.522 113.216 199.247 113.216C199.983 113.216 200.559 113.019 200.975 112.624C201.391 112.219 201.599 111.632 201.599 110.864V106.352C201.599 106.224 201.642 106.112 201.727 106.016C201.812 105.92 201.93 105.872 202.079 105.872ZM213.34 105.76C214.065 105.76 214.705 105.941 215.26 106.304C215.825 106.656 216.273 107.147 216.604 107.776C216.934 108.395 217.1 109.109 217.1 109.92C217.1 110.731 216.934 111.451 216.604 112.08C216.273 112.709 215.825 113.205 215.26 113.568C214.694 113.931 214.06 114.112 213.356 114.112C212.982 114.112 212.625 114.059 212.284 113.952C211.953 113.835 211.649 113.68 211.372 113.488C211.094 113.296 210.849 113.072 210.636 112.816C210.422 112.549 210.252 112.261 210.124 111.952L210.412 111.744V116.72C210.412 116.848 210.364 116.96 210.268 117.056C210.182 117.152 210.07 117.2 209.932 117.2C209.793 117.2 209.676 117.152 209.58 117.056C209.494 116.96 209.452 116.848 209.452 116.72V106.288C209.452 106.149 209.494 106.032 209.58 105.936C209.665 105.84 209.782 105.792 209.932 105.792C210.07 105.792 210.182 105.84 210.268 105.936C210.364 106.032 210.412 106.149 210.412 106.288V108.016L210.188 107.888C210.294 107.557 210.449 107.264 210.652 107.008C210.865 106.741 211.11 106.517 211.388 106.336C211.665 106.144 211.969 106 212.299 105.904C212.63 105.808 212.977 105.76 213.34 105.76ZM213.26 106.656C212.684 106.656 212.177 106.8 211.74 107.088C211.302 107.365 210.956 107.749 210.7 108.24C210.454 108.72 210.332 109.28 210.332 109.92C210.332 110.549 210.454 111.115 210.7 111.616C210.956 112.117 211.302 112.512 211.74 112.8C212.177 113.077 212.684 113.216 213.26 113.216C213.825 113.216 214.321 113.077 214.748 112.8C215.185 112.512 215.532 112.117 215.788 111.616C216.044 111.115 216.172 110.549 216.172 109.92C216.172 109.291 216.044 108.731 215.788 108.24C215.532 107.749 215.185 107.365 214.748 107.088C214.321 106.8 213.825 106.656 213.26 106.656ZM222.851 114.16C222.029 114.16 221.304 113.984 220.675 113.632C220.045 113.28 219.555 112.789 219.203 112.16C218.851 111.531 218.675 110.795 218.675 109.952C218.675 109.045 218.851 108.272 219.203 107.632C219.565 106.992 220.029 106.501 220.595 106.16C221.171 105.808 221.779 105.632 222.419 105.632C222.888 105.632 223.341 105.717 223.779 105.888C224.227 106.048 224.621 106.293 224.963 106.624C225.315 106.944 225.592 107.339 225.795 107.808C226.008 108.277 226.125 108.821 226.147 109.44C226.136 109.568 226.083 109.68 225.987 109.776C225.891 109.861 225.779 109.904 225.651 109.904H219.235L219.043 109.04H225.347L225.139 109.232V108.912C225.096 108.411 224.936 107.984 224.659 107.632C224.381 107.28 224.045 107.013 223.651 106.832C223.256 106.651 222.845 106.56 222.419 106.56C222.099 106.56 221.768 106.624 221.427 106.752C221.096 106.88 220.792 107.083 220.515 107.36C220.248 107.627 220.029 107.973 219.859 108.4C219.688 108.816 219.603 109.312 219.603 109.888C219.603 110.517 219.731 111.088 219.987 111.6C220.243 112.112 220.611 112.517 221.091 112.816C221.581 113.115 222.163 113.264 222.835 113.264C223.208 113.264 223.544 113.211 223.843 113.104C224.141 112.997 224.403 112.859 224.627 112.688C224.851 112.507 225.037 112.32 225.187 112.128C225.304 112.032 225.421 111.984 225.539 111.984C225.645 111.984 225.736 112.027 225.811 112.112C225.896 112.197 225.939 112.293 225.939 112.4C225.939 112.528 225.885 112.64 225.779 112.736C225.459 113.12 225.043 113.456 224.531 113.744C224.019 114.021 223.459 114.16 222.851 114.16ZM234.906 102.16C235.044 102.16 235.156 102.208 235.242 102.304C235.338 102.389 235.385 102.501 235.385 102.64V113.52C235.385 113.648 235.338 113.76 235.242 113.856C235.146 113.952 235.034 114 234.906 114C234.767 114 234.65 113.952 234.554 113.856C234.468 113.76 234.426 113.648 234.426 113.52V111.616L234.698 111.392C234.698 111.691 234.618 112.005 234.458 112.336C234.298 112.656 234.068 112.955 233.77 113.232C233.482 113.509 233.14 113.733 232.746 113.904C232.362 114.075 231.946 114.16 231.498 114.16C230.783 114.16 230.138 113.973 229.562 113.6C228.996 113.227 228.548 112.72 228.218 112.08C227.887 111.44 227.722 110.709 227.722 109.888C227.722 109.077 227.887 108.352 228.218 107.712C228.548 107.061 228.996 106.555 229.562 106.192C230.127 105.819 230.767 105.632 231.482 105.632C231.919 105.632 232.335 105.712 232.73 105.872C233.124 106.032 233.471 106.251 233.77 106.528C234.079 106.805 234.319 107.125 234.49 107.488C234.671 107.84 234.762 108.208 234.762 108.592L234.426 108.352V102.64C234.426 102.512 234.468 102.4 234.554 102.304C234.65 102.208 234.767 102.16 234.906 102.16ZM231.578 113.264C232.154 113.264 232.655 113.12 233.082 112.832C233.519 112.533 233.86 112.133 234.106 111.632C234.362 111.12 234.49 110.539 234.49 109.888C234.49 109.248 234.362 108.677 234.106 108.176C233.86 107.664 233.519 107.264 233.082 106.976C232.644 106.677 232.143 106.528 231.578 106.528C231.023 106.528 230.522 106.677 230.074 106.976C229.636 107.264 229.29 107.664 229.034 108.176C228.788 108.677 228.666 109.248 228.666 109.888C228.666 110.528 228.788 111.104 229.034 111.616C229.29 112.128 229.636 112.533 230.074 112.832C230.522 113.12 231.023 113.264 231.578 113.264ZM238.833 113.52C238.833 113.648 238.785 113.76 238.689 113.856C238.593 113.952 238.481 114 238.353 114C238.214 114 238.097 113.952 238.001 113.856C237.915 113.76 237.873 113.648 237.873 113.52V106.16C237.873 106.032 237.915 105.92 238.001 105.824C238.097 105.728 238.214 105.68 238.353 105.68C238.491 105.68 238.603 105.728 238.689 105.824C238.785 105.92 238.833 106.032 238.833 106.16V113.52ZM238.353 104.608C238.129 104.608 237.958 104.56 237.841 104.464C237.734 104.357 237.681 104.208 237.681 104.016V103.856C237.681 103.664 237.739 103.52 237.857 103.424C237.985 103.317 238.155 103.264 238.369 103.264C238.571 103.264 238.726 103.317 238.833 103.424C238.95 103.52 239.009 103.664 239.009 103.856V104.016C239.009 104.208 238.95 104.357 238.833 104.464C238.726 104.56 238.566 104.608 238.353 104.608ZM248.031 102.16C248.169 102.16 248.281 102.208 248.367 102.304C248.463 102.389 248.51 102.501 248.51 102.64V113.52C248.51 113.648 248.463 113.76 248.367 113.856C248.271 113.952 248.159 114 248.031 114C247.892 114 247.775 113.952 247.679 113.856C247.593 113.76 247.551 113.648 247.551 113.52V111.616L247.823 111.392C247.823 111.691 247.743 112.005 247.583 112.336C247.423 112.656 247.193 112.955 246.895 113.232C246.607 113.509 246.265 113.733 245.871 113.904C245.487 114.075 245.071 114.16 244.623 114.16C243.908 114.16 243.263 113.973 242.687 113.6C242.121 113.227 241.673 112.72 241.343 112.08C241.012 111.44 240.847 110.709 240.847 109.888C240.847 109.077 241.012 108.352 241.343 107.712C241.673 107.061 242.121 106.555 242.687 106.192C243.252 105.819 243.892 105.632 244.607 105.632C245.044 105.632 245.46 105.712 245.855 105.872C246.249 106.032 246.596 106.251 246.895 106.528C247.204 106.805 247.444 107.125 247.615 107.488C247.796 107.84 247.887 108.208 247.887 108.592L247.551 108.352V102.64C247.551 102.512 247.593 102.4 247.679 102.304C247.775 102.208 247.892 102.16 248.031 102.16ZM244.703 113.264C245.279 113.264 245.78 113.12 246.207 112.832C246.644 112.533 246.985 112.133 247.231 111.632C247.487 111.12 247.615 110.539 247.615 109.888C247.615 109.248 247.487 108.677 247.231 108.176C246.985 107.664 246.644 107.264 246.207 106.976C245.769 106.677 245.268 106.528 244.703 106.528C244.148 106.528 243.647 106.677 243.199 106.976C242.761 107.264 242.415 107.664 242.159 108.176C241.913 108.677 241.791 109.248 241.791 109.888C241.791 110.528 241.913 111.104 242.159 111.616C242.415 112.128 242.761 112.533 243.199 112.832C243.647 113.12 244.148 113.264 244.703 113.264ZM258.646 109.904C258.646 110.715 258.47 111.445 258.118 112.096C257.766 112.736 257.286 113.243 256.678 113.616C256.07 113.979 255.376 114.16 254.598 114.16C253.84 114.16 253.152 113.979 252.534 113.616C251.926 113.243 251.44 112.736 251.078 112.096C250.726 111.445 250.55 110.715 250.55 109.904C250.55 109.083 250.726 108.352 251.078 107.712C251.44 107.072 251.926 106.565 252.534 106.192C253.152 105.819 253.84 105.632 254.598 105.632C255.376 105.632 256.07 105.819 256.678 106.192C257.286 106.565 257.766 107.072 258.118 107.712C258.47 108.352 258.646 109.083 258.646 109.904ZM257.686 109.904C257.686 109.253 257.552 108.677 257.286 108.176C257.019 107.664 256.651 107.264 256.182 106.976C255.723 106.677 255.195 106.528 254.598 106.528C254.022 106.528 253.499 106.677 253.03 106.976C252.56 107.264 252.187 107.664 251.91 108.176C251.643 108.677 251.51 109.253 251.51 109.904C251.51 110.555 251.643 111.131 251.91 111.632C252.187 112.133 252.56 112.533 253.03 112.832C253.499 113.12 254.022 113.264 254.598 113.264C255.195 113.264 255.723 113.12 256.182 112.832C256.651 112.533 257.019 112.133 257.286 111.632C257.552 111.131 257.686 110.555 257.686 109.904ZM268.661 105.632C269.173 105.632 269.642 105.691 270.069 105.808C270.496 105.915 270.837 106.064 271.093 106.256C271.36 106.448 271.493 106.656 271.493 106.88C271.493 106.987 271.456 107.093 271.381 107.2C271.306 107.296 271.205 107.344 271.077 107.344C270.949 107.344 270.842 107.312 270.757 107.248C270.682 107.184 270.602 107.109 270.517 107.024C270.442 106.939 270.33 106.859 270.181 106.784C270.042 106.72 269.845 106.661 269.589 106.608C269.333 106.555 269.04 106.528 268.709 106.528C268.112 106.528 267.573 106.677 267.093 106.976C266.613 107.275 266.234 107.68 265.957 108.192C265.68 108.693 265.541 109.259 265.541 109.888C265.541 110.528 265.674 111.104 265.941 111.616C266.208 112.128 266.576 112.533 267.045 112.832C267.514 113.12 268.064 113.264 268.693 113.264C269.12 113.264 269.45 113.227 269.685 113.152C269.92 113.077 270.122 112.992 270.293 112.896C270.496 112.779 270.64 112.667 270.725 112.56C270.821 112.443 270.944 112.384 271.093 112.384C271.232 112.384 271.333 112.427 271.397 112.512C271.472 112.587 271.509 112.688 271.509 112.816C271.509 112.987 271.381 113.179 271.125 113.392C270.88 113.595 270.538 113.776 270.101 113.936C269.664 114.085 269.162 114.16 268.597 114.16C267.797 114.16 267.093 113.973 266.485 113.6C265.888 113.227 265.418 112.72 265.077 112.08C264.746 111.429 264.581 110.699 264.581 109.888C264.581 109.109 264.752 108.4 265.093 107.76C265.434 107.12 265.909 106.608 266.517 106.224C267.136 105.829 267.85 105.632 268.661 105.632ZM280.958 109.904C280.958 110.715 280.782 111.445 280.43 112.096C280.078 112.736 279.598 113.243 278.99 113.616C278.382 113.979 277.689 114.16 276.91 114.16C276.153 114.16 275.465 113.979 274.846 113.616C274.238 113.243 273.753 112.736 273.39 112.096C273.038 111.445 272.862 110.715 272.862 109.904C272.862 109.083 273.038 108.352 273.39 107.712C273.753 107.072 274.238 106.565 274.846 106.192C275.465 105.819 276.153 105.632 276.91 105.632C277.689 105.632 278.382 105.819 278.99 106.192C279.598 106.565 280.078 107.072 280.43 107.712C280.782 108.352 280.958 109.083 280.958 109.904ZM279.998 109.904C279.998 109.253 279.865 108.677 279.598 108.176C279.331 107.664 278.963 107.264 278.494 106.976C278.035 106.677 277.507 106.528 276.91 106.528C276.334 106.528 275.811 106.677 275.342 106.976C274.873 107.264 274.499 107.664 274.222 108.176C273.955 108.677 273.822 109.253 273.822 109.904C273.822 110.555 273.955 111.131 274.222 111.632C274.499 112.133 274.873 112.533 275.342 112.832C275.811 113.12 276.334 113.264 276.91 113.264C277.507 113.264 278.035 113.12 278.494 112.832C278.963 112.533 279.331 112.133 279.598 111.632C279.865 111.131 279.998 110.555 279.998 109.904ZM286.678 105.76C287.34 105.76 287.905 105.936 288.374 106.288C288.844 106.629 289.164 107.141 289.334 107.824L289.11 107.888L289.206 107.6C289.345 107.28 289.574 106.981 289.894 106.704C290.225 106.416 290.598 106.187 291.014 106.016C291.43 105.845 291.852 105.76 292.278 105.76C292.95 105.76 293.489 105.904 293.894 106.192C294.31 106.48 294.609 106.869 294.79 107.36C294.982 107.84 295.078 108.384 295.078 108.992V113.52C295.078 113.648 295.03 113.76 294.934 113.856C294.849 113.952 294.737 114 294.598 114C294.46 114 294.342 113.952 294.246 113.856C294.161 113.76 294.118 113.648 294.118 113.52V109.04C294.118 108.603 294.049 108.203 293.91 107.84C293.772 107.477 293.553 107.189 293.254 106.976C292.956 106.763 292.556 106.656 292.054 106.656C291.617 106.656 291.196 106.763 290.79 106.976C290.396 107.189 290.07 107.477 289.814 107.84C289.569 108.203 289.446 108.603 289.446 109.04V113.52C289.446 113.648 289.398 113.76 289.302 113.856C289.217 113.952 289.105 114 288.966 114C288.828 114 288.71 113.952 288.614 113.856C288.529 113.76 288.486 113.648 288.486 113.52V108.992C288.486 108.555 288.422 108.16 288.294 107.808C288.166 107.456 287.958 107.179 287.67 106.976C287.382 106.763 286.993 106.656 286.502 106.656C286.065 106.656 285.649 106.763 285.254 106.976C284.87 107.179 284.556 107.456 284.31 107.808C284.076 108.16 283.958 108.555 283.958 108.992V113.52C283.958 113.648 283.91 113.76 283.814 113.856C283.718 113.952 283.606 114 283.478 114C283.329 114 283.212 113.952 283.126 113.856C283.041 113.76 282.998 113.648 282.998 113.52V106.352C282.998 106.224 283.041 106.112 283.126 106.016C283.222 105.92 283.34 105.872 283.478 105.872C283.617 105.872 283.729 105.92 283.814 106.016C283.91 106.112 283.958 106.224 283.958 106.352V107.84L283.526 108.432C283.558 108.112 283.66 107.792 283.83 107.472C284.012 107.152 284.246 106.864 284.534 106.608C284.822 106.352 285.148 106.149 285.51 106C285.884 105.84 286.273 105.76 286.678 105.76ZM305.823 105.632C306.527 105.632 307.087 105.776 307.503 106.064C307.93 106.341 308.234 106.725 308.415 107.216C308.607 107.696 308.703 108.229 308.703 108.816V113.52C308.703 113.648 308.655 113.76 308.559 113.856C308.463 113.952 308.351 114 308.223 114C308.074 114 307.956 113.952 307.871 113.856C307.786 113.76 307.743 113.648 307.743 113.52V108.864C307.743 108.437 307.674 108.048 307.535 107.696C307.396 107.344 307.167 107.061 306.847 106.848C306.538 106.635 306.127 106.528 305.615 106.528C305.156 106.528 304.719 106.635 304.303 106.848C303.898 107.061 303.567 107.344 303.311 107.696C303.055 108.048 302.927 108.437 302.927 108.864V113.52C302.927 113.648 302.879 113.76 302.783 113.856C302.687 113.952 302.575 114 302.447 114C302.298 114 302.18 113.952 302.095 113.856C302.01 113.76 301.967 113.648 301.967 113.52V106.352C301.967 106.224 302.01 106.112 302.095 106.016C302.191 105.92 302.308 105.872 302.447 105.872C302.586 105.872 302.698 105.92 302.783 106.016C302.879 106.112 302.927 106.224 302.927 106.352V107.696L302.559 108.272C302.58 107.931 302.687 107.605 302.879 107.296C303.082 106.976 303.338 106.693 303.647 106.448C303.956 106.192 304.298 105.995 304.671 105.856C305.055 105.707 305.439 105.632 305.823 105.632ZM318.833 109.904C318.833 110.715 318.657 111.445 318.305 112.096C317.953 112.736 317.473 113.243 316.865 113.616C316.257 113.979 315.564 114.16 314.785 114.16C314.028 114.16 313.34 113.979 312.721 113.616C312.113 113.243 311.628 112.736 311.265 112.096C310.913 111.445 310.737 110.715 310.737 109.904C310.737 109.083 310.913 108.352 311.265 107.712C311.628 107.072 312.113 106.565 312.721 106.192C313.34 105.819 314.028 105.632 314.785 105.632C315.564 105.632 316.257 105.819 316.865 106.192C317.473 106.565 317.953 107.072 318.305 107.712C318.657 108.352 318.833 109.083 318.833 109.904ZM317.873 109.904C317.873 109.253 317.74 108.677 317.473 108.176C317.206 107.664 316.838 107.264 316.369 106.976C315.91 106.677 315.382 106.528 314.785 106.528C314.209 106.528 313.686 106.677 313.217 106.976C312.748 107.264 312.374 107.664 312.097 108.176C311.83 108.677 311.697 109.253 311.697 109.904C311.697 110.555 311.83 111.131 312.097 111.632C312.374 112.133 312.748 112.533 313.217 112.832C313.686 113.12 314.209 113.264 314.785 113.264C315.382 113.264 315.91 113.12 316.369 112.832C316.838 112.533 317.206 112.133 317.473 111.632C317.74 111.131 317.873 110.555 317.873 109.904ZM320.409 112.704C320.324 112.576 320.281 112.453 320.281 112.336C320.292 112.208 320.361 112.107 320.489 112.032C320.575 111.957 320.671 111.925 320.777 111.936C320.895 111.947 321.001 112 321.097 112.096C321.385 112.469 321.732 112.773 322.137 113.008C322.553 113.232 323.044 113.344 323.609 113.344C323.908 113.344 324.201 113.296 324.489 113.2C324.788 113.093 325.033 112.939 325.225 112.736C325.417 112.523 325.513 112.256 325.513 111.936C325.513 111.605 325.417 111.339 325.225 111.136C325.033 110.933 324.783 110.773 324.473 110.656C324.175 110.539 323.855 110.437 323.513 110.352C323.151 110.256 322.799 110.149 322.457 110.032C322.116 109.904 321.812 109.749 321.545 109.568C321.289 109.376 321.081 109.147 320.921 108.88C320.761 108.613 320.681 108.288 320.681 107.904C320.681 107.456 320.804 107.061 321.049 106.72C321.295 106.379 321.625 106.112 322.041 105.92C322.468 105.728 322.948 105.632 323.481 105.632C323.748 105.632 324.036 105.669 324.345 105.744C324.655 105.808 324.959 105.92 325.257 106.08C325.556 106.24 325.823 106.459 326.057 106.736C326.153 106.832 326.201 106.944 326.201 107.072C326.201 107.189 326.148 107.296 326.041 107.392C325.956 107.456 325.855 107.488 325.737 107.488C325.631 107.488 325.54 107.445 325.465 107.36C325.209 107.072 324.905 106.853 324.553 106.704C324.201 106.555 323.823 106.48 323.417 106.48C323.108 106.48 322.815 106.533 322.537 106.64C322.271 106.736 322.047 106.885 321.865 107.088C321.684 107.291 321.593 107.557 321.593 107.888C321.615 108.197 321.721 108.448 321.913 108.64C322.116 108.832 322.377 108.992 322.697 109.12C323.028 109.248 323.396 109.365 323.801 109.472C324.143 109.557 324.468 109.659 324.777 109.776C325.097 109.893 325.375 110.043 325.609 110.224C325.855 110.395 326.047 110.613 326.185 110.88C326.335 111.147 326.409 111.483 326.409 111.888C326.409 112.357 326.276 112.763 326.009 113.104C325.753 113.445 325.407 113.707 324.969 113.888C324.532 114.069 324.047 114.16 323.513 114.16C322.937 114.16 322.377 114.048 321.833 113.824C321.3 113.6 320.825 113.227 320.409 112.704ZM327.909 112.704C327.824 112.576 327.781 112.453 327.781 112.336C327.792 112.208 327.861 112.107 327.989 112.032C328.075 111.957 328.171 111.925 328.277 111.936C328.395 111.947 328.501 112 328.597 112.096C328.885 112.469 329.232 112.773 329.637 113.008C330.053 113.232 330.544 113.344 331.109 113.344C331.408 113.344 331.701 113.296 331.989 113.2C332.288 113.093 332.533 112.939 332.725 112.736C332.917 112.523 333.013 112.256 333.013 111.936C333.013 111.605 332.917 111.339 332.725 111.136C332.533 110.933 332.283 110.773 331.973 110.656C331.675 110.539 331.355 110.437 331.013 110.352C330.651 110.256 330.299 110.149 329.957 110.032C329.616 109.904 329.312 109.749 329.045 109.568C328.789 109.376 328.581 109.147 328.421 108.88C328.261 108.613 328.181 108.288 328.181 107.904C328.181 107.456 328.304 107.061 328.549 106.72C328.795 106.379 329.125 106.112 329.541 105.92C329.968 105.728 330.448 105.632 330.981 105.632C331.248 105.632 331.536 105.669 331.845 105.744C332.155 105.808 332.459 105.92 332.757 106.08C333.056 106.24 333.323 106.459 333.557 106.736C333.653 106.832 333.701 106.944 333.701 107.072C333.701 107.189 333.648 107.296 333.541 107.392C333.456 107.456 333.355 107.488 333.237 107.488C333.131 107.488 333.04 107.445 332.965 107.36C332.709 107.072 332.405 106.853 332.053 106.704C331.701 106.555 331.323 106.48 330.917 106.48C330.608 106.48 330.315 106.533 330.037 106.64C329.771 106.736 329.547 106.885 329.365 107.088C329.184 107.291 329.093 107.557 329.093 107.888C329.115 108.197 329.221 108.448 329.413 108.64C329.616 108.832 329.877 108.992 330.197 109.12C330.528 109.248 330.896 109.365 331.301 109.472C331.643 109.557 331.968 109.659 332.277 109.776C332.597 109.893 332.875 110.043 333.109 110.224C333.355 110.395 333.547 110.613 333.685 110.88C333.835 111.147 333.909 111.483 333.909 111.888C333.909 112.357 333.776 112.763 333.509 113.104C333.253 113.445 332.907 113.707 332.469 113.888C332.032 114.069 331.547 114.16 331.013 114.16C330.437 114.16 329.877 114.048 329.333 113.824C328.8 113.6 328.325 113.227 327.909 112.704ZM343.489 109.904C343.489 110.715 343.313 111.445 342.961 112.096C342.609 112.736 342.129 113.243 341.521 113.616C340.913 113.979 340.22 114.16 339.441 114.16C338.684 114.16 337.996 113.979 337.377 113.616C336.769 113.243 336.284 112.736 335.921 112.096C335.569 111.445 335.393 110.715 335.393 109.904C335.393 109.083 335.569 108.352 335.921 107.712C336.284 107.072 336.769 106.565 337.377 106.192C337.996 105.819 338.684 105.632 339.441 105.632C340.22 105.632 340.913 105.819 341.521 106.192C342.129 106.565 342.609 107.072 342.961 107.712C343.313 108.352 343.489 109.083 343.489 109.904ZM342.529 109.904C342.529 109.253 342.396 108.677 342.129 108.176C341.863 107.664 341.495 107.264 341.025 106.976C340.567 106.677 340.039 106.528 339.441 106.528C338.865 106.528 338.343 106.677 337.873 106.976C337.404 107.264 337.031 107.664 336.753 108.176C336.487 108.677 336.353 109.253 336.353 109.904C336.353 110.555 336.487 111.131 336.753 111.632C337.031 112.133 337.404 112.533 337.873 112.832C338.343 113.12 338.865 113.264 339.441 113.264C340.039 113.264 340.567 113.12 341.025 112.832C341.495 112.533 341.863 112.133 342.129 111.632C342.396 111.131 342.529 110.555 342.529 109.904ZM345.066 112.704C344.98 112.576 344.938 112.453 344.938 112.336C344.948 112.208 345.018 112.107 345.146 112.032C345.231 111.957 345.327 111.925 345.434 111.936C345.551 111.947 345.658 112 345.754 112.096C346.042 112.469 346.388 112.773 346.794 113.008C347.21 113.232 347.7 113.344 348.266 113.344C348.564 113.344 348.858 113.296 349.146 113.2C349.444 113.093 349.69 112.939 349.882 112.736C350.074 112.523 350.17 112.256 350.17 111.936C350.17 111.605 350.074 111.339 349.882 111.136C349.69 110.933 349.439 110.773 349.13 110.656C348.831 110.539 348.511 110.437 348.17 110.352C347.807 110.256 347.455 110.149 347.114 110.032C346.772 109.904 346.468 109.749 346.202 109.568C345.946 109.376 345.738 109.147 345.578 108.88C345.418 108.613 345.338 108.288 345.338 107.904C345.338 107.456 345.46 107.061 345.706 106.72C345.951 106.379 346.282 106.112 346.698 105.92C347.124 105.728 347.604 105.632 348.138 105.632C348.404 105.632 348.692 105.669 349.002 105.744C349.311 105.808 349.615 105.92 349.914 106.08C350.212 106.24 350.479 106.459 350.714 106.736C350.81 106.832 350.858 106.944 350.858 107.072C350.858 107.189 350.804 107.296 350.698 107.392C350.612 107.456 350.511 107.488 350.394 107.488C350.287 107.488 350.196 107.445 350.122 107.36C349.866 107.072 349.562 106.853 349.21 106.704C348.858 106.555 348.479 106.48 348.074 106.48C347.764 106.48 347.471 106.533 347.194 106.64C346.927 106.736 346.703 106.885 346.522 107.088C346.34 107.291 346.25 107.557 346.25 107.888C346.271 108.197 346.378 108.448 346.57 108.64C346.772 108.832 347.034 108.992 347.354 109.12C347.684 109.248 348.052 109.365 348.458 109.472C348.799 109.557 349.124 109.659 349.434 109.776C349.754 109.893 350.031 110.043 350.266 110.224C350.511 110.395 350.703 110.613 350.842 110.88C350.991 111.147 351.066 111.483 351.066 111.888C351.066 112.357 350.932 112.763 350.666 113.104C350.41 113.445 350.063 113.707 349.626 113.888C349.188 114.069 348.703 114.16 348.17 114.16C347.594 114.16 347.034 114.048 346.49 113.824C345.956 113.6 345.482 113.227 345.066 112.704ZM361.293 105.76C362.018 105.76 362.658 105.941 363.213 106.304C363.778 106.656 364.226 107.147 364.557 107.776C364.887 108.395 365.053 109.109 365.053 109.92C365.053 110.731 364.887 111.451 364.557 112.08C364.226 112.709 363.778 113.205 363.213 113.568C362.647 113.931 362.013 114.112 361.309 114.112C360.935 114.112 360.578 114.059 360.237 113.952C359.906 113.835 359.602 113.68 359.325 113.488C359.047 113.296 358.802 113.072 358.589 112.816C358.375 112.549 358.205 112.261 358.077 111.952L358.365 111.744V116.72C358.365 116.848 358.317 116.96 358.221 117.056C358.135 117.152 358.023 117.2 357.885 117.2C357.746 117.2 357.629 117.152 357.533 117.056C357.447 116.96 357.405 116.848 357.405 116.72V106.288C357.405 106.149 357.447 106.032 357.533 105.936C357.618 105.84 357.735 105.792 357.885 105.792C358.023 105.792 358.135 105.84 358.221 105.936C358.317 106.032 358.365 106.149 358.365 106.288V108.016L358.141 107.888C358.247 107.557 358.402 107.264 358.605 107.008C358.818 106.741 359.063 106.517 359.341 106.336C359.618 106.144 359.922 106 360.253 105.904C360.583 105.808 360.93 105.76 361.293 105.76ZM361.213 106.656C360.637 106.656 360.13 106.8 359.693 107.088C359.255 107.365 358.909 107.749 358.653 108.24C358.407 108.72 358.285 109.28 358.285 109.92C358.285 110.549 358.407 111.115 358.653 111.616C358.909 112.117 359.255 112.512 359.693 112.8C360.13 113.077 360.637 113.216 361.213 113.216C361.778 113.216 362.274 113.077 362.701 112.8C363.138 112.512 363.485 112.117 363.741 111.616C363.997 111.115 364.125 110.549 364.125 109.92C364.125 109.291 363.997 108.731 363.741 108.24C363.485 107.749 363.138 107.365 362.701 107.088C362.274 106.8 361.778 106.656 361.213 106.656ZM373.812 105.824C373.95 105.824 374.062 105.872 374.148 105.968C374.244 106.064 374.292 106.181 374.292 106.32V113.52C374.292 113.648 374.244 113.76 374.148 113.856C374.052 113.952 373.94 114 373.812 114C373.673 114 373.556 113.952 373.46 113.856C373.374 113.76 373.332 113.648 373.332 113.52V111.616L373.604 111.488C373.604 111.787 373.518 112.091 373.348 112.4C373.188 112.709 372.964 112.997 372.676 113.264C372.388 113.531 372.046 113.749 371.652 113.92C371.268 114.08 370.852 114.16 370.404 114.16C369.678 114.16 369.028 113.973 368.452 113.6C367.886 113.227 367.438 112.715 367.108 112.064C366.788 111.413 366.628 110.683 366.628 109.872C366.628 109.04 366.793 108.309 367.124 107.68C367.454 107.04 367.902 106.539 368.468 106.176C369.033 105.813 369.673 105.632 370.388 105.632C370.846 105.632 371.273 105.712 371.668 105.872C372.073 106.032 372.425 106.251 372.724 106.528C373.022 106.805 373.252 107.125 373.412 107.488C373.582 107.84 373.668 108.208 373.668 108.592L373.332 108.352V106.32C373.332 106.181 373.374 106.064 373.46 105.968C373.556 105.872 373.673 105.824 373.812 105.824ZM370.484 113.264C371.049 113.264 371.55 113.12 371.988 112.832C372.425 112.533 372.766 112.128 373.012 111.616C373.268 111.093 373.396 110.512 373.396 109.872C373.396 109.243 373.268 108.677 373.012 108.176C372.766 107.675 372.425 107.275 371.988 106.976C371.55 106.677 371.049 106.528 370.484 106.528C369.929 106.528 369.428 106.672 368.98 106.96C368.542 107.248 368.196 107.643 367.94 108.144C367.694 108.645 367.572 109.221 367.572 109.872C367.572 110.512 367.694 111.093 367.94 111.616C368.196 112.128 368.542 112.533 368.98 112.832C369.417 113.12 369.918 113.264 370.484 113.264ZM377.291 114C377.142 114 377.024 113.952 376.939 113.856C376.854 113.76 376.811 113.648 376.811 113.52V106.352C376.811 106.224 376.854 106.112 376.939 106.016C377.035 105.92 377.152 105.872 377.291 105.872C377.43 105.872 377.542 105.92 377.627 106.016C377.723 106.112 377.771 106.224 377.771 106.352V108.752L377.531 108.8C377.563 108.427 377.654 108.059 377.803 107.696C377.963 107.323 378.176 106.981 378.443 106.672C378.71 106.363 379.024 106.112 379.387 105.92C379.76 105.728 380.176 105.632 380.635 105.632C380.827 105.632 381.014 105.675 381.195 105.76C381.376 105.835 381.467 105.963 381.467 106.144C381.467 106.304 381.424 106.427 381.339 106.512C381.254 106.597 381.152 106.64 381.035 106.64C380.939 106.64 380.832 106.613 380.715 106.56C380.608 106.507 380.464 106.48 380.283 106.48C379.984 106.48 379.686 106.571 379.387 106.752C379.088 106.923 378.816 107.157 378.571 107.456C378.326 107.755 378.128 108.091 377.979 108.464C377.84 108.827 377.771 109.195 377.771 109.568V113.52C377.771 113.648 377.723 113.76 377.627 113.856C377.531 113.952 377.419 114 377.291 114ZM386.208 105.632C386.72 105.632 387.189 105.691 387.616 105.808C388.042 105.915 388.384 106.064 388.64 106.256C388.906 106.448 389.04 106.656 389.04 106.88C389.04 106.987 389.002 107.093 388.928 107.2C388.853 107.296 388.752 107.344 388.624 107.344C388.496 107.344 388.389 107.312 388.304 107.248C388.229 107.184 388.149 107.109 388.064 107.024C387.989 106.939 387.877 106.859 387.728 106.784C387.589 106.72 387.392 106.661 387.136 106.608C386.88 106.555 386.586 106.528 386.256 106.528C385.658 106.528 385.12 106.677 384.64 106.976C384.16 107.275 383.781 107.68 383.504 108.192C383.226 108.693 383.088 109.259 383.088 109.888C383.088 110.528 383.221 111.104 383.488 111.616C383.754 112.128 384.122 112.533 384.592 112.832C385.061 113.12 385.61 113.264 386.24 113.264C386.666 113.264 386.997 113.227 387.232 113.152C387.466 113.077 387.669 112.992 387.84 112.896C388.042 112.779 388.186 112.667 388.272 112.56C388.368 112.443 388.49 112.384 388.64 112.384C388.778 112.384 388.88 112.427 388.944 112.512C389.018 112.587 389.056 112.688 389.056 112.816C389.056 112.987 388.928 113.179 388.672 113.392C388.426 113.595 388.085 113.776 387.648 113.936C387.21 114.085 386.709 114.16 386.144 114.16C385.344 114.16 384.64 113.973 384.032 113.6C383.434 113.227 382.965 112.72 382.624 112.08C382.293 111.429 382.128 110.699 382.128 109.888C382.128 109.109 382.298 108.4 382.64 107.76C382.981 107.12 383.456 106.608 384.064 106.224C384.682 105.829 385.397 105.632 386.208 105.632ZM394.585 114.16C393.764 114.16 393.038 113.984 392.409 113.632C391.78 113.28 391.289 112.789 390.937 112.16C390.585 111.531 390.409 110.795 390.409 109.952C390.409 109.045 390.585 108.272 390.937 107.632C391.3 106.992 391.764 106.501 392.329 106.16C392.905 105.808 393.513 105.632 394.153 105.632C394.622 105.632 395.076 105.717 395.513 105.888C395.961 106.048 396.356 106.293 396.697 106.624C397.049 106.944 397.326 107.339 397.529 107.808C397.742 108.277 397.86 108.821 397.881 109.44C397.87 109.568 397.817 109.68 397.721 109.776C397.625 109.861 397.513 109.904 397.385 109.904H390.969L390.777 109.04H397.081L396.873 109.232V108.912C396.83 108.411 396.67 107.984 396.393 107.632C396.116 107.28 395.78 107.013 395.385 106.832C394.99 106.651 394.58 106.56 394.153 106.56C393.833 106.56 393.502 106.624 393.161 106.752C392.83 106.88 392.526 107.083 392.249 107.36C391.982 107.627 391.764 107.973 391.593 108.4C391.422 108.816 391.337 109.312 391.337 109.888C391.337 110.517 391.465 111.088 391.721 111.6C391.977 112.112 392.345 112.517 392.825 112.816C393.316 113.115 393.897 113.264 394.569 113.264C394.942 113.264 395.278 113.211 395.577 113.104C395.876 112.997 396.137 112.859 396.361 112.688C396.585 112.507 396.772 112.32 396.921 112.128C397.038 112.032 397.156 111.984 397.273 111.984C397.38 111.984 397.47 112.027 397.545 112.112C397.63 112.197 397.673 112.293 397.673 112.4C397.673 112.528 397.62 112.64 397.513 112.736C397.193 113.12 396.777 113.456 396.265 113.744C395.753 114.021 395.193 114.16 394.585 114.16ZM400.864 113.52C400.864 113.648 400.816 113.76 400.72 113.856C400.624 113.952 400.512 114 400.384 114C400.245 114 400.128 113.952 400.032 113.856C399.947 113.76 399.904 113.648 399.904 113.52V106.16C399.904 106.032 399.947 105.92 400.032 105.824C400.128 105.728 400.245 105.68 400.384 105.68C400.523 105.68 400.635 105.728 400.72 105.824C400.816 105.92 400.864 106.032 400.864 106.16V113.52ZM400.384 104.608C400.16 104.608 399.989 104.56 399.872 104.464C399.765 104.357 399.712 104.208 399.712 104.016V103.856C399.712 103.664 399.771 103.52 399.888 103.424C400.016 103.317 400.187 103.264 400.4 103.264C400.603 103.264 400.757 103.317 400.864 103.424C400.981 103.52 401.04 103.664 401.04 103.856V104.016C401.04 104.208 400.981 104.357 400.864 104.464C400.757 104.56 400.597 104.608 400.384 104.608ZM403.838 114C403.688 114 403.571 113.952 403.486 113.856C403.4 113.76 403.358 113.648 403.358 113.52V106.352C403.358 106.224 403.4 106.112 403.486 106.016C403.582 105.92 403.699 105.872 403.838 105.872C403.976 105.872 404.088 105.92 404.174 106.016C404.27 106.112 404.318 106.224 404.318 106.352V108.752L404.078 108.8C404.11 108.427 404.2 108.059 404.35 107.696C404.51 107.323 404.723 106.981 404.99 106.672C405.256 106.363 405.571 106.112 405.934 105.92C406.307 105.728 406.723 105.632 407.182 105.632C407.374 105.632 407.56 105.675 407.742 105.76C407.923 105.835 408.014 105.963 408.014 106.144C408.014 106.304 407.971 106.427 407.886 106.512C407.8 106.597 407.699 106.64 407.582 106.64C407.486 106.64 407.379 106.613 407.262 106.56C407.155 106.507 407.011 106.48 406.83 106.48C406.531 106.48 406.232 106.571 405.934 106.752C405.635 106.923 405.363 107.157 405.118 107.456C404.872 107.755 404.675 108.091 404.526 108.464C404.387 108.827 404.318 109.195 404.318 109.568V113.52C404.318 113.648 404.27 113.76 404.174 113.856C404.078 113.952 403.966 114 403.838 114ZM416.771 109.904C416.771 110.715 416.595 111.445 416.243 112.096C415.891 112.736 415.411 113.243 414.803 113.616C414.195 113.979 413.501 114.16 412.723 114.16C411.965 114.16 411.277 113.979 410.659 113.616C410.051 113.243 409.565 112.736 409.203 112.096C408.851 111.445 408.675 110.715 408.675 109.904C408.675 109.083 408.851 108.352 409.203 107.712C409.565 107.072 410.051 106.565 410.659 106.192C411.277 105.819 411.965 105.632 412.723 105.632C413.501 105.632 414.195 105.819 414.803 106.192C415.411 106.565 415.891 107.072 416.243 107.712C416.595 108.352 416.771 109.083 416.771 109.904ZM415.811 109.904C415.811 109.253 415.677 108.677 415.411 108.176C415.144 107.664 414.776 107.264 414.307 106.976C413.848 106.677 413.32 106.528 412.723 106.528C412.147 106.528 411.624 106.677 411.155 106.976C410.685 107.264 410.312 107.664 410.035 108.176C409.768 108.677 409.635 109.253 409.635 109.904C409.635 110.555 409.768 111.131 410.035 111.632C410.312 112.133 410.685 112.533 411.155 112.832C411.624 113.12 412.147 113.264 412.723 113.264C413.32 113.264 413.848 113.12 414.307 112.832C414.776 112.533 415.144 112.133 415.411 111.632C415.677 111.131 415.811 110.555 415.811 109.904ZM418.347 112.704C418.262 112.576 418.219 112.453 418.219 112.336C418.23 112.208 418.299 112.107 418.427 112.032C418.512 111.957 418.608 111.925 418.715 111.936C418.832 111.947 418.939 112 419.035 112.096C419.323 112.469 419.67 112.773 420.075 113.008C420.491 113.232 420.982 113.344 421.547 113.344C421.846 113.344 422.139 113.296 422.427 113.2C422.726 113.093 422.971 112.939 423.163 112.736C423.355 112.523 423.451 112.256 423.451 111.936C423.451 111.605 423.355 111.339 423.163 111.136C422.971 110.933 422.72 110.773 422.411 110.656C422.112 110.539 421.792 110.437 421.451 110.352C421.088 110.256 420.736 110.149 420.395 110.032C420.054 109.904 419.75 109.749 419.483 109.568C419.227 109.376 419.019 109.147 418.859 108.88C418.699 108.613 418.619 108.288 418.619 107.904C418.619 107.456 418.742 107.061 418.987 106.72C419.232 106.379 419.563 106.112 419.979 105.92C420.406 105.728 420.886 105.632 421.419 105.632C421.686 105.632 421.974 105.669 422.283 105.744C422.592 105.808 422.896 105.92 423.195 106.08C423.494 106.24 423.76 106.459 423.995 106.736C424.091 106.832 424.139 106.944 424.139 107.072C424.139 107.189 424.086 107.296 423.979 107.392C423.894 107.456 423.792 107.488 423.675 107.488C423.568 107.488 423.478 107.445 423.403 107.36C423.147 107.072 422.843 106.853 422.491 106.704C422.139 106.555 421.76 106.48 421.355 106.48C421.046 106.48 420.752 106.533 420.475 106.64C420.208 106.736 419.984 106.885 419.803 107.088C419.622 107.291 419.531 107.557 419.531 107.888C419.552 108.197 419.659 108.448 419.851 108.64C420.054 108.832 420.315 108.992 420.635 109.12C420.966 109.248 421.334 109.365 421.739 109.472C422.08 109.557 422.406 109.659 422.715 109.776C423.035 109.893 423.312 110.043 423.547 110.224C423.792 110.395 423.984 110.613 424.123 110.88C424.272 111.147 424.347 111.483 424.347 111.888C424.347 112.357 424.214 112.763 423.947 113.104C423.691 113.445 423.344 113.707 422.907 113.888C422.47 114.069 421.984 114.16 421.451 114.16C420.875 114.16 420.315 114.048 419.771 113.824C419.238 113.6 418.763 113.227 418.347 112.704ZM426.439 114C426.258 114 426.119 113.941 426.023 113.824C425.927 113.707 425.879 113.557 425.879 113.376V113.04C425.879 112.848 425.927 112.699 426.023 112.592C426.119 112.485 426.258 112.432 426.439 112.432H426.551C426.732 112.432 426.871 112.485 426.967 112.592C427.063 112.699 427.111 112.848 427.111 113.04V113.376C427.111 113.557 427.063 113.707 426.967 113.824C426.871 113.941 426.732 114 426.551 114H426.439Z" fill="#004742"/>
<path d="M392.824 71L367 45.2946L378.668 33.6805L391.789 46.7417L431.385 0L444 10.5882L392.824 71Z" fill="#FF7300"/>
</svg>
