<svg width="48" height="48" viewBox="0 0 48 48" fill="none" xmlns="http://www.w3.org/2000/svg">
<rect width="48" height="48" rx="24" fill="#FF7300"/>
<g clip-path="url(#clip0_20_1552)">
<path d="M16.9995 23H28.1695L23.2895 18.12C22.8995 17.73 22.8995 17.09 23.2895 16.7C23.6795 16.31 24.3095 16.31 24.6995 16.7L31.2895 23.29C31.6795 23.68 31.6795 24.31 31.2895 24.7L24.6995 31.29C24.3095 31.68 23.6795 31.68 23.2895 31.29C22.8995 30.9 22.8995 30.27 23.2895 29.88L28.1695 25H16.9995C16.4495 25 15.9995 24.55 15.9995 24C15.9995 23.45 16.4495 23 16.9995 23Z" fill="white"/>
</g>
<defs>
<clipPath id="clip0_20_1552">
<rect width="24" height="24" fill="white" transform="matrix(-1 0 0 1 36 12)"/>
</clipPath>
</defs>
</svg>
