<svg width="33" height="33" viewBox="0 0 33 33" fill="none" xmlns="http://www.w3.org/2000/svg">
<g clip-path="url(#clip0_159_1997)">
<path d="M31.7927 0.0387438C30.5142 0.39012 29.2377 0.747458 27.9604 1.10224C27.5744 1.20924 27.3489 1.46071 27.251 1.84359C26.955 2.9982 26.6515 4.1511 26.3544 5.30541C26.328 5.40788 26.2934 5.4618 26.1719 5.47458C25.2796 5.5671 24.3882 5.67013 23.4963 5.76748C21.8023 5.95254 20.1083 6.13532 18.4144 6.32038C16.5496 6.52388 14.6849 6.72965 12.8202 6.93344C10.8746 7.14574 8.9291 7.35606 6.98386 7.56892C4.95294 7.79088 2.92259 8.01595 0.891671 8.2379C0.243259 8.30857 -0.123787 8.82258 0.0380991 9.44643C0.662161 11.8502 1.28794 14.2533 1.91257 16.6567C2.28592 18.0943 2.67532 19.5279 3.0266 20.9706C3.43834 22.6619 3.81542 24.3615 4.21054 26.0565C4.32916 26.5645 4.67157 26.8279 5.19448 26.8279H17.0279C20.3275 26.8279 23.6272 26.8282 26.9269 26.8276C27.3948 26.8276 27.777 26.5063 27.8495 26.0562C27.9432 25.4715 27.5068 24.9862 26.8851 24.9859H6.12713C6.08415 24.9859 6.04061 24.9816 5.99819 24.9867C5.90192 24.9981 5.86611 24.9538 5.84634 24.8636C5.74863 24.4202 5.64462 23.9783 5.54233 23.5358C5.47729 23.256 5.41167 22.9761 5.33918 22.6659H5.62228C12.0832 22.6659 18.5442 22.6659 25.0051 22.6656C25.5553 22.6656 25.9206 22.3582 25.9896 21.8178C26.1151 20.8375 26.2309 19.856 26.3501 18.8748C26.5564 17.1753 26.7624 15.4757 26.9681 13.7762C27.1739 12.0766 27.3727 10.376 27.5888 8.67783C27.6618 8.10252 27.6899 7.52181 27.8438 6.95529C28.208 5.61308 28.5518 4.26576 28.8991 2.91929C28.9309 2.79583 28.9833 2.73339 29.1131 2.69819C30.1764 2.40983 31.2377 2.11351 32.299 1.81776C32.705 1.7048 32.9855 1.36591 32.9993 0.980195C33.0231 0.318313 32.4417 -0.139498 31.7927 0.0387438ZM7.04776 20.8162C6.38902 20.8165 5.73 20.8142 5.07099 20.8188C4.96297 20.8196 4.91397 20.7927 4.88532 20.6817C4.2094 18.0668 3.52946 15.453 2.85038 12.8393C2.62059 11.9557 2.3908 11.0725 2.161 10.1889C2.14323 10.1214 2.12633 10.0538 2.10398 9.9664C3.26585 9.83896 4.41169 9.71351 5.58244 9.58494C6.12628 13.3275 6.66839 17.0586 7.21309 20.8088C7.14146 20.8122 7.09446 20.8162 7.04776 20.8162ZM9.09874 20.8083C8.5466 17.0075 7.99445 13.2057 7.43887 9.382C8.59015 9.25627 9.72996 9.13195 10.893 9.0048C11.0681 12.9469 11.2425 16.873 11.4173 20.8083H9.09874ZM15.7454 20.8094C15.6812 20.8125 15.6388 20.8162 15.5964 20.8162C14.8757 20.8165 14.1548 20.8137 13.4342 20.819C13.3141 20.8199 13.2818 20.7813 13.2772 20.6675C13.2328 19.5719 13.1832 18.4766 13.1345 17.3813C13.0677 15.8799 13.0001 14.3785 12.9331 12.877C12.8746 11.5643 12.8182 10.2516 12.7551 8.93924C12.7497 8.82599 12.7832 8.79221 12.891 8.78086C13.9396 8.66989 14.9878 8.55465 16.0362 8.44141C16.0961 8.43488 16.1568 8.43459 16.2367 8.43034C16.0729 12.5614 15.9093 16.6766 15.7454 20.8094ZM21.3679 8.46127C21.1631 10.2942 20.9573 12.1272 20.753 13.9604C20.5654 15.6429 20.3794 17.3257 20.192 19.0085C20.1295 19.5677 20.0625 20.1265 20.0046 20.6862C19.9937 20.7904 19.9568 20.819 19.8545 20.8185C19.1573 20.8145 18.4602 20.8139 17.7631 20.8188C17.6428 20.8196 17.6101 20.7847 17.6153 20.6649C17.6829 19.059 17.7456 17.4526 17.8095 15.8467C17.8826 14.0138 17.9559 12.1805 18.0287 10.3476C18.0542 9.70046 18.0783 9.05305 18.1038 8.40593C18.1061 8.34547 18.1118 8.28473 18.117 8.21293C19.2207 8.09287 20.3146 7.97366 21.4324 7.8519C21.4092 8.07073 21.3897 8.266 21.3679 8.46127ZM25.8421 7.54452C25.6455 9.16346 25.4478 10.7824 25.2518 12.4013C25.0836 13.7907 24.9174 15.18 24.7498 16.5693C24.5851 17.9351 24.4195 19.3006 24.2553 20.6666C24.2444 20.7583 24.2315 20.8205 24.1069 20.8193C23.4051 20.8131 22.7034 20.8165 22.0017 20.8159C21.9648 20.8159 21.9281 20.8091 21.8705 20.8034C21.8971 20.5528 21.9224 20.3101 21.9493 20.0678C22.1771 18.0191 22.4046 15.9707 22.6335 13.9224C22.8579 11.9163 23.0831 9.9102 23.3086 7.90441C23.339 7.63648 23.3415 7.6413 23.616 7.61207C24.3232 7.53742 25.0295 7.45823 25.7363 7.38103C25.7687 7.37763 25.8014 7.37734 25.8578 7.37394C25.8515 7.44291 25.8484 7.494 25.8421 7.54452Z" fill="#059B90"/>
<path d="M11.3563 30.986C11.3572 32.0989 10.4606 32.9972 9.34657 32.9998C8.22711 33.0023 7.31565 32.1097 7.31251 31.0079C7.30964 29.8947 8.21822 28.9902 9.33884 28.9907C10.4468 28.9913 11.3551 29.8896 11.3563 30.986Z" fill="#059B90"/>
<path d="M24.9028 30.9906C24.9062 32.0961 24.0005 32.9987 22.8873 32.9998C21.7687 33.0007 20.8664 32.114 20.8556 31.0031C20.845 29.9087 21.7587 28.9979 22.8744 28.9908C23.9836 28.9837 24.8996 29.8865 24.9028 30.9906Z" fill="#059B90"/>
<path d="M15.7446 20.8091C15.6805 20.8122 15.6381 20.816 15.5958 20.816C14.875 20.8163 14.1542 20.8135 13.4335 20.8188C13.3136 20.8197 13.2812 20.7811 13.2766 20.6674C13.232 19.5718 13.1826 18.4764 13.1338 17.381C13.067 15.8796 12.9995 14.3782 12.9325 12.8768C12.874 11.5642 12.8174 10.2515 12.7545 8.93911C12.749 8.82583 12.7826 8.79212 12.8903 8.78072C13.9389 8.66973 14.9871 8.55443 16.0355 8.44108C16.0955 8.43459 16.1562 8.43435 16.2362 8.43018C16.0722 12.5612 15.9087 16.6764 15.7446 20.8091Z" fill="#059B90"/>
<path d="M18.1156 8.21291C19.2193 8.09278 20.3132 7.97372 21.4311 7.85205C21.408 8.07078 21.3883 8.26616 21.3665 8.46132C21.1617 10.2943 20.9561 12.1272 20.7517 13.9603C20.5641 15.643 20.3779 17.3258 20.1905 19.0085C20.1283 19.5677 20.0612 20.1265 20.0032 20.6863C19.9925 20.7903 19.9555 20.8191 19.8531 20.8186C19.156 20.8146 18.4588 20.8141 17.7616 20.8188C17.6414 20.8196 17.6087 20.7846 17.6138 20.6649C17.6815 19.0589 17.7443 17.4528 17.8083 15.8466C17.8814 14.0137 17.9546 12.1807 18.0273 10.3477C18.053 9.70049 18.077 9.05323 18.1023 8.40601C18.1047 8.34539 18.1105 8.2849 18.1156 8.21291Z" fill="#059B90"/>
<path d="M11.4161 20.8083H9.09744C8.54527 17.0074 7.99298 13.2057 7.4375 9.38206C8.58886 9.25633 9.72857 9.13188 10.8916 9.00488C11.0667 12.9468 11.2412 16.873 11.4161 20.8083Z" fill="#059B90"/>
<path d="M25.8586 7.37402C25.8523 7.44298 25.8489 7.49391 25.8428 7.5445C25.6461 9.16348 25.4486 10.7823 25.2525 12.4014C25.0843 13.7906 24.9181 15.18 24.7505 16.5692C24.5858 17.935 24.4201 19.3007 24.256 20.6665C24.245 20.7582 24.2323 20.8206 24.1075 20.8195C23.4059 20.8131 22.7042 20.8165 22.0025 20.8159C21.9656 20.8159 21.9286 20.8091 21.8711 20.8034C21.8979 20.5529 21.9229 20.3102 21.9498 20.0678C22.1777 18.0193 22.4054 15.9707 22.6343 13.9223C22.8584 11.9163 23.0838 9.91036 23.3094 7.90449C23.3395 7.63641 23.3422 7.64123 23.6168 7.61221C24.3238 7.5375 25.0302 7.45827 25.7369 7.38118C25.7694 7.37763 25.8022 7.37724 25.8586 7.37402Z" fill="#059B90"/>
<path d="M7.21468 20.8087C7.14286 20.812 7.09611 20.816 7.04936 20.8161C6.39041 20.8165 5.73145 20.814 5.07254 20.8187C4.96448 20.8194 4.91537 20.7925 4.88674 20.6817C4.21101 18.0669 3.53108 15.4531 2.85178 12.8392C2.62217 11.9557 2.39218 11.0723 2.16242 10.1888C2.14486 10.1213 2.1278 10.0537 2.10547 9.96638C3.26732 9.83898 4.4131 9.71334 5.58391 9.58496C6.12766 13.3273 6.66979 17.0585 7.21468 20.8087Z" fill="#059B90"/>
</g>
<defs>
<clipPath id="clip0_159_1997">
<rect width="33" height="33" fill="white"/>
</clipPath>
</defs>
</svg>
