<svg width="33" height="32" viewBox="0 0 33 32" fill="none" xmlns="http://www.w3.org/2000/svg">
<g clip-path="url(#clip0_32_1885)">
<path d="M22.6875 4C20.295 4 17.9988 5.08 16.5 6.78667C15.0012 5.08 12.705 4 10.3125 4C6.0775 4 2.75 7.22667 2.75 11.3333C2.75 16.3733 7.425 20.48 14.5063 26.72L16.5 28.4667L18.4937 26.7067C25.575 20.48 30.25 16.3733 30.25 11.3333C30.25 7.22667 26.9225 4 22.6875 4ZM16.6375 24.7333L16.5 24.8667L16.3625 24.7333C9.8175 18.9867 5.5 15.1867 5.5 11.3333C5.5 8.66667 7.5625 6.66667 10.3125 6.66667C12.43 6.66667 14.4925 7.98667 15.2212 9.81333H17.7925C18.5075 7.98667 20.57 6.66667 22.6875 6.66667C25.4375 6.66667 27.5 8.66667 27.5 11.3333C27.5 15.1867 23.1825 18.9867 16.6375 24.7333Z" fill="#059B90"/>
</g>
<defs>
<clipPath id="clip0_32_1885">
<rect width="33" height="32" fill="white"/>
</clipPath>
</defs>
</svg>
