<svg width="35" height="35" viewBox="0 0 35 35" fill="none" xmlns="http://www.w3.org/2000/svg">
<path fill-rule="evenodd" clip-rule="evenodd" d="M27.6016 6.44751H25.595V9.99742C27.3679 10.1089 27.2587 12.1433 25.4807 12.1433H22.9094C21.1313 12.1433 21.0225 10.108 22.7955 9.99742V6.44751H11.5968V9.99742C13.3698 10.1089 13.2606 12.1433 11.4825 12.1433H8.91122C7.1335 12.1433 7.02441 10.1089 8.79696 9.99742V6.44751L6.79065 6.44815C5.24509 6.44815 3.99121 7.41042 3.99121 8.59727L2.80078 30.0912C2.80078 31.2778 4.05502 32.2404 5.60026 32.2407L28.7916 32.2404C30.3368 32.2404 31.5911 31.2774 31.5911 30.0909L30.4007 8.59727C30.4007 7.41104 29.1472 6.44751 27.6016 6.44751Z" fill="#A5DAD4"/>
<path fill-rule="evenodd" clip-rule="evenodd" d="M27.5995 6.44751H25.5929V9.99742C27.3657 10.1089 27.2566 12.1433 25.4786 12.1433H22.9072C21.1291 12.1433 21.0204 10.108 22.7934 9.99742V7.57225C19.8227 10.4423 17.3626 13.9897 15.7563 18.0092C13.7657 22.9903 13.3896 27.9359 14.3752 32.2406L28.7895 32.2404C30.3347 32.2404 31.589 31.2774 31.589 30.0909L30.3985 8.59727C30.3985 7.41104 29.1451 6.44751 27.5995 6.44751Z" fill="#8AD1C7"/>
<path fill-rule="evenodd" clip-rule="evenodd" d="M27.6007 4.29868H25.5941C25.5941 1.92469 21.8327 0 17.1948 0C12.5573 0 8.79602 1.92469 8.79602 4.29868H6.78971C3.69745 4.29868 1.19043 6.22367 1.19043 8.59737L0 30.091C0 32.4654 2.50698 34.39 5.59932 34.39H28.791C31.883 34.39 34.39 32.4654 34.39 30.0913L33.1996 8.59737C33.1996 6.22338 30.6922 4.29868 27.6007 4.29868ZM17.1952 2.14892C20.2872 2.14892 22.7941 2.81448 22.7941 4.29868H11.5959C11.5959 2.81448 14.1029 2.14947 17.1952 2.14892ZM28.7907 32.2405L5.59932 32.2408C4.05407 32.2405 2.79984 31.2779 2.79984 30.0913L3.99027 8.59737C3.99027 7.41053 5.24415 6.44826 6.78971 6.44826L8.79602 6.44762V9.99753C7.02347 10.109 7.13256 12.1434 8.91028 12.1434H11.4816C13.2597 12.1434 13.3688 10.109 11.5959 9.99753V6.44762H22.7946V9.99753C21.0215 10.1081 21.1303 12.1434 22.9084 12.1434H25.4798C27.2578 12.1434 27.3669 10.109 25.5941 9.99753V6.44762H27.6007C29.1463 6.44762 30.3997 7.41114 30.3997 8.59737L31.5902 30.091C31.5902 31.2775 30.3358 32.2405 28.7907 32.2405Z" fill="#053C48"/>
</svg>
