<svg width="223" height="64" viewBox="0 0 223 64" fill="none" xmlns="http://www.w3.org/2000/svg">
<path d="M67.5253 1.00073V0.750732H67.2753H42.7967C41.7732 0.750732 41.4232 2.15029 42.3639 2.60425C44.5714 3.66959 46.5182 5.06746 48.1978 6.7958L48.1979 6.79592C51.0955 9.77365 53.0362 13.2609 54.0026 17.2129C54.1719 17.9052 54.79 18.3949 55.5045 18.3949H67.2753H67.5253V18.1449V1.00073ZM65.4838 2.79225V16.3534H56.6856C56.2214 16.3534 55.8134 16.047 55.6819 15.6004C54.5491 11.7526 52.5292 8.31971 49.6618 5.37299C48.7409 4.42527 47.7398 3.5632 46.6662 2.79225H65.4838Z" fill="#2CB6A9" stroke="#2CB6A9" stroke-width="0.5"/>
<path d="M67.5273 23.2344V22.9844H67.2773H54.9753H54.7151L54.7255 23.2444C54.7279 23.305 54.7279 23.3664 54.7279 23.4337C54.7279 30.2026 52.5379 35.8294 48.2283 40.1705L48.1943 40.2045L47.7675 40.6312H48.3711H67.2773H67.5273V40.3812V23.2344ZM65.4858 25.0259V38.5897H52.2295C54.9699 34.7492 56.477 30.2037 56.7309 25.0259H65.4858Z" fill="#2CB6A9" stroke="#2CB6A9" stroke-width="0.5"/>
<path d="M40.9938 47.2621H65.4859V60.8259H26.3931V48.8513L29.942 48.8513L29.9439 48.8513C33.5294 48.8236 36.8345 48.354 39.7829 47.4513C40.179 47.33 40.5857 47.2621 40.9938 47.2621ZM67.5274 45.4706V45.2206H67.2774H40.7606C40.2824 45.2206 39.8124 45.3029 39.3627 45.4443C36.5627 46.3251 33.4133 46.7828 29.9291 46.8098H25.8671C25.0301 46.8098 24.3516 47.4883 24.3516 48.3253V62.6175V62.8675H24.6016H67.2774H67.5274V62.6175V45.4706Z" fill="#2CB6A9" stroke="#2CB6A9" stroke-width="0.5"/>
<path d="M0 62.6167V1H29.1158C36.6368 1 42.5616 3.1715 46.7253 7.45416C50.8799 11.7274 52.9863 17.1033 52.9863 23.4325C52.9863 29.9351 50.8911 35.3424 46.7591 39.5043C42.6268 43.6661 36.6939 45.806 29.1252 45.8646H15.5901V62.6167H0ZM29.1158 31.3739C31.8487 31.3739 33.8645 30.6629 35.2787 29.2003C36.7035 27.7266 37.3959 25.923 37.3959 23.6862C37.3959 21.4498 36.6895 19.6323 35.2364 18.1299C33.7941 16.6387 31.7921 15.9139 29.1158 15.9139H15.5901V31.3739H29.1158Z" fill="#FF7300"/>
<path d="M25.5097 28.6834L17.8789 21.0526L21.3267 17.6049L25.204 21.4822L36.9043 7.60657L40.632 10.7497L25.5097 28.6834Z" fill="#2CB6A9"/>
<path d="M216.6 57.6331C212.841 61.211 207.89 63 201.746 63C195.602 63 190.65 61.211 186.892 57.6331C183.133 54.0553 181.254 49.2122 181.254 43.1044C181.254 36.9966 183.133 32.1537 186.892 28.5759C190.65 24.9978 195.602 23.209 201.746 23.209C207.89 23.209 212.841 24.9978 216.6 28.5759C220.358 32.1537 222.237 36.9966 222.237 43.1044C222.237 49.2122 220.358 54.0553 216.6 57.6331ZM210.555 34.2951C208.296 31.964 205.36 30.7985 201.746 30.7985C198.168 30.7985 195.24 31.9731 192.963 34.3223C190.686 36.6714 189.548 39.5988 189.548 43.1044C189.548 46.6825 190.686 49.6188 192.963 51.9139C195.24 54.2088 198.168 55.3563 201.746 55.3563C205.396 55.3563 208.341 54.2088 210.582 51.9139C212.823 49.6188 213.943 46.6825 213.943 43.1044C213.943 39.5626 212.814 36.6262 210.555 34.2951Z" fill="#2CB6A9"/>
<path d="M95.8935 23.209C100.288 23.209 104.011 24.1375 107.061 25.9943C110.111 27.8513 112.309 30.2199 113.654 33.0999C114.999 35.9799 115.672 39.2201 115.672 42.8203C115.672 45.5109 115.283 48.0311 114.506 50.3805C113.73 52.7301 112.574 54.8619 111.04 56.7756C109.505 58.6893 107.44 60.2051 104.845 61.3231C102.249 62.441 99.2655 63 95.8935 63H79.582V23.209H95.8935ZM88.3343 54.8143H95.8935C97.9395 54.8143 99.7202 54.464 101.236 53.7629C102.751 53.0618 103.897 52.1048 104.674 50.8922C105.451 49.6796 106.019 48.4005 106.379 47.0552C106.739 45.7099 106.919 44.2603 106.919 42.7065C106.919 39.4475 106.038 36.719 104.276 34.521C102.515 32.323 99.7202 31.224 95.8935 31.224H88.3343V54.8143Z" fill="#2CB6A9"/>
<path d="M123.074 63V23.209H131.403V63H123.074Z" fill="#2CB6A9"/>
<path d="M156.968 23.209C161.363 23.209 165.085 24.1375 168.136 25.9943C171.185 27.8513 173.383 30.2199 174.728 33.0999C176.073 35.9799 176.746 39.2201 176.746 42.8203C176.746 45.5109 176.358 48.0311 175.581 50.3805C174.804 52.7301 173.648 54.8619 172.114 56.7756C170.579 58.6893 168.514 60.2051 165.919 61.3231C163.323 62.441 160.34 63 156.968 63H140.656V23.209H156.968ZM149.409 54.8143H156.968C159.014 54.8143 160.794 54.464 162.31 53.7629C163.825 53.0618 164.972 52.1048 165.748 50.8922C166.525 49.6796 167.093 48.4005 167.453 47.0552C167.813 45.7099 167.993 44.2603 167.993 42.7065C167.993 39.4475 167.112 36.719 165.35 34.521C163.589 32.323 160.794 31.224 156.968 31.224H149.409V54.8143Z" fill="#2CB6A9"/>
<mask id="path-10-inside-1_32_1887" fill="white">
<rect x="79.582" y="1" width="142.507" height="17.5821" rx="2"/>
</mask>
<rect x="79.582" y="1" width="142.507" height="17.5821" rx="2" stroke="#2CB6A9" stroke-width="5" mask="url(#path-10-inside-1_32_1887)"/>
</svg>
