<svg width="36" height="36" viewBox="0 0 36 36" fill="none" xmlns="http://www.w3.org/2000/svg">
<path d="M18.2757 2.38086C9.49615 2.38086 2.37891 9.49809 2.37891 18.2776C2.37891 22.6674 4.1582 26.6419 7.03493 29.5186C9.91112 32.3947 13.8859 34.1744 18.2757 34.1744C22.6654 34.1744 26.6402 32.3947 29.5167 29.5186C32.3928 26.6422 34.1723 22.6674 34.1723 18.2776C34.1723 9.49775 27.0555 2.38086 18.2757 2.38086Z" fill="#A5DAD4"/>
<path d="M25.8241 4.28369C20.1328 6.90589 14.9633 13.14 12.4616 21.2944C11.2893 25.1154 10.8394 28.9154 11.0246 32.4276C13.199 33.5441 15.6644 34.1745 18.2768 34.1745C22.6666 34.1745 26.6414 32.3948 29.5178 29.5187C32.3939 26.6423 34.1735 22.6675 34.1735 18.2777C34.1735 12.2294 30.7959 6.97064 25.8241 4.28369Z" fill="#8AD1C7"/>
<mask id="path-3-outside-1_182_2037" maskUnits="userSpaceOnUse" x="0" y="0" width="36" height="36" fill="black">
<rect fill="white" width="36" height="36"/>
<path d="M18.1956 1C8.69867 1 1 8.69868 1 18.1956C1 22.4726 2.56151 26.3851 5.14621 29.3938C5.99213 30.3795 6.94841 31.2679 7.99557 32.0404C10.8489 34.1467 14.3769 35.3911 18.1956 35.3911C22.0931 35.3911 25.688 34.0943 28.5713 31.9086C29.6005 31.1291 30.5393 30.2357 31.3688 29.248C33.8791 26.2593 35.3906 22.4042 35.3906 18.1956C35.3906 8.69868 27.692 1 18.1956 1ZM30.9538 27.8682C30.5129 28.451 30.032 29.0028 29.5161 29.5186C29.4712 29.5636 29.4257 29.6085 29.3803 29.6525C29.3508 29.6814 29.3214 29.7099 29.2919 29.7383L29.2874 29.7428C29.2839 29.7463 29.2804 29.7493 29.2769 29.7528L29.2759 29.7538L29.2734 29.7563C29.248 29.7803 29.2225 29.8048 29.197 29.8287C29.1176 29.9041 29.0377 29.978 28.9568 30.0514C28.9174 30.0874 28.8779 30.1229 28.838 30.1583C28.8115 30.1818 28.7851 30.2052 28.7581 30.2282C28.7396 30.2447 28.7211 30.2612 28.7022 30.2772C28.6837 30.2931 28.6647 30.3091 28.6462 30.3256C28.6028 30.363 28.5588 30.4005 28.5149 30.4375C28.4275 30.5114 28.3386 30.5843 28.2492 30.6567C28.2118 30.6871 28.1743 30.7171 28.1369 30.7466C28.1124 30.7655 28.0884 30.7845 28.0645 30.8035C28.0405 30.8225 28.016 30.8414 27.9916 30.8604C27.9871 30.8639 27.9826 30.8674 27.9781 30.8709C27.9326 30.9059 27.8867 30.9408 27.8408 30.9753C27.7978 31.0077 27.7549 31.0397 27.7119 31.0716C27.7079 31.0746 27.7039 31.0776 27.6999 31.0806C27.6959 31.0836 27.6924 31.0861 27.6885 31.0891C27.686 31.0911 27.683 31.0931 27.6805 31.0946C27.653 31.1151 27.6255 31.1351 27.5981 31.155C27.5961 31.1565 27.5941 31.158 27.5921 31.1595C27.5836 31.1655 27.5751 31.172 27.5666 31.178C27.5371 31.1995 27.5072 31.2205 27.4777 31.2414C27.4318 31.2744 27.3853 31.3068 27.3389 31.3393C27.3329 31.3433 27.3274 31.3473 27.3214 31.3513C27.2765 31.3827 27.2315 31.4137 27.1861 31.4442C27.1601 31.4616 27.1342 31.4791 27.1082 31.4966C27.0707 31.5216 27.0328 31.5465 26.9953 31.5715C26.899 31.6349 26.8016 31.6973 26.7042 31.7583C26.6648 31.7832 26.6253 31.8077 26.5859 31.8317C26.5499 31.8541 26.5134 31.8761 26.477 31.8981C26.471 31.9016 26.4655 31.9051 26.4595 31.9086C26.4291 31.927 26.3986 31.945 26.3681 31.963C26.3227 31.9905 26.2768 32.0169 26.2308 32.0439C26.1988 32.0624 26.1669 32.0804 26.1349 32.0988C26.0875 32.1258 26.0401 32.1528 25.9926 32.1787C25.9517 32.2017 25.9107 32.2242 25.8698 32.2461C25.8538 32.2551 25.8378 32.2636 25.8213 32.2726C25.7819 32.2941 25.7424 32.3151 25.7025 32.336C25.6775 32.349 25.653 32.362 25.6281 32.375C25.5771 32.402 25.5262 32.4284 25.4753 32.4544C25.4698 32.4569 25.4638 32.4599 25.4583 32.4629C25.4508 32.4664 25.4438 32.4704 25.4363 32.4739C25.3789 32.5028 25.3215 32.5318 25.2635 32.5597C25.263 32.5597 25.263 32.5602 25.2625 32.5602C25.2311 32.5762 25.1991 32.5917 25.1672 32.6067C25.0643 32.6566 24.9609 32.7051 24.8566 32.7525C24.8086 32.7745 24.7602 32.7959 24.7117 32.8174C24.6693 32.8364 24.6269 32.8549 24.5844 32.8733C24.5624 32.8828 24.5405 32.8923 24.5185 32.9013C24.478 32.9188 24.4371 32.9363 24.3967 32.9527C24.3927 32.9547 24.3887 32.9562 24.3852 32.9577C24.3332 32.9797 24.2813 33.0007 24.2294 33.0217C24.1749 33.0436 24.121 33.0651 24.0666 33.0866C24.0121 33.108 23.9577 33.129 23.9028 33.1495C23.8908 33.154 23.8793 33.1585 23.8673 33.163C23.8254 33.179 23.7834 33.1944 23.741 33.2099C23.698 33.2259 23.6546 33.2414 23.6111 33.2569C23.6032 33.2594 23.5957 33.2624 23.5877 33.2648C23.5278 33.2863 23.4673 33.3073 23.4069 33.3278C23.3725 33.3397 23.3385 33.3512 23.304 33.3627C23.2926 33.3667 23.2806 33.3702 23.2691 33.3742C23.2661 33.3752 23.2626 33.3762 23.2596 33.3772C23.2177 33.3912 23.1762 33.4047 23.1343 33.4181C23.1038 33.4281 23.0733 33.4376 23.0429 33.4471C22.9964 33.4616 22.95 33.4761 22.9036 33.4901C22.8561 33.5045 22.8092 33.519 22.7617 33.5325C22.7557 33.5345 22.7493 33.536 22.7433 33.538C22.7008 33.5505 22.6584 33.5625 22.6159 33.5745C22.5705 33.5874 22.5245 33.6004 22.4786 33.6129C22.4436 33.6224 22.4082 33.6324 22.3727 33.6414C22.3622 33.6444 22.3518 33.6469 22.3413 33.6494C22.3213 33.6548 22.3013 33.6598 22.2813 33.6653C22.2614 33.6703 22.2414 33.6758 22.2214 33.6808C22.2109 33.6833 22.201 33.6863 22.1905 33.6888C22.146 33.6998 22.1016 33.7113 22.0571 33.7218C22.0197 33.7307 21.9827 33.7402 21.9453 33.7487C21.9378 33.7502 21.9303 33.7522 21.9228 33.7537C21.9188 33.7547 21.9148 33.7557 21.9108 33.7567C21.8719 33.7662 21.8324 33.7752 21.7935 33.7837C21.793 33.7837 21.792 33.7842 21.7915 33.7842C21.7905 33.7847 21.789 33.7847 21.788 33.7852C21.776 33.7877 21.7635 33.7907 21.7515 33.7932C21.7151 33.8012 21.6791 33.8092 21.6422 33.8171C21.6342 33.8191 21.6257 33.8206 21.6172 33.8226C21.6107 33.8236 21.6042 33.8251 21.5977 33.8266C21.5882 33.8286 21.5782 33.8306 21.5688 33.8326C21.5243 33.8421 21.4804 33.8511 21.4354 33.8601C21.393 33.8691 21.3505 33.8776 21.3076 33.8856C21.2577 33.8955 21.2077 33.9045 21.1578 33.9135C21.1118 33.9225 21.0654 33.9305 21.019 33.9385C20.975 33.9465 20.9316 33.954 20.8876 33.961C20.8262 33.9709 20.7643 33.9809 20.7024 33.9904C20.6989 33.9909 20.6954 33.9914 20.6919 33.9919C20.6439 33.9994 20.596 34.0064 20.5481 34.0129C20.5206 34.0169 20.4931 34.0209 20.4657 34.0249C20.4572 34.0259 20.4487 34.0274 20.4402 34.0284C20.3933 34.0349 20.3468 34.0409 20.2999 34.0468C20.2355 34.0553 20.1705 34.0628 20.1061 34.0703C20.0457 34.0773 19.9858 34.0838 19.9254 34.0898C19.8799 34.0948 19.8345 34.0993 19.7885 34.1033C19.7381 34.1083 19.6877 34.1128 19.6367 34.1168C19.6162 34.1188 19.5953 34.1203 19.5743 34.1223C19.5383 34.1252 19.5019 34.1277 19.4654 34.1307C19.4579 34.1312 19.451 34.1317 19.4435 34.1322C19.41 34.1347 19.3761 34.1372 19.3421 34.1392C19.3386 34.1392 19.3346 34.1397 19.3311 34.1397C19.3186 34.1407 19.3056 34.1417 19.2932 34.1422C19.2607 34.1447 19.2282 34.1467 19.1953 34.1482C19.1883 34.1487 19.1818 34.1487 19.1748 34.1492C19.1249 34.1527 19.0739 34.1547 19.0235 34.1572C19.0205 34.1572 19.018 34.1577 19.015 34.1577H19.0125C18.9551 34.1607 18.8977 34.1627 18.8402 34.1647C18.7838 34.1667 18.7274 34.1687 18.6704 34.1702C18.607 34.1712 18.5441 34.1727 18.4807 34.1732C18.4123 34.1742 18.3434 34.1747 18.275 34.1747C18.2065 34.1747 18.1376 34.1742 18.0697 34.1732C18.0562 34.1732 18.0433 34.1727 18.0303 34.1727C18.0198 34.1727 18.0098 34.1722 17.9993 34.1722C17.9634 34.1717 17.9274 34.1712 17.8915 34.1702H17.888C17.854 34.1692 17.821 34.1682 17.7871 34.1672C17.7776 34.1672 17.7686 34.1667 17.7591 34.1662C17.7032 34.1652 17.6473 34.1627 17.5923 34.1602L17.5784 34.1597L17.5639 34.1587C17.5524 34.1587 17.5414 34.1582 17.5299 34.1572C17.5209 34.1567 17.5124 34.1567 17.5034 34.1562C17.481 34.1552 17.458 34.1542 17.4355 34.1527C17.4211 34.1522 17.4071 34.1512 17.3926 34.1502H17.3861C17.3826 34.1502 17.3791 34.1497 17.3751 34.1492C17.3716 34.1492 17.3681 34.1492 17.3646 34.1487C17.3631 34.1487 17.3616 34.1482 17.3601 34.1482C17.3546 34.1482 17.3486 34.1477 17.3432 34.1472C17.3392 34.1472 17.3357 34.1472 17.3317 34.1467C17.3147 34.1462 17.2972 34.1452 17.2797 34.1437C17.2633 34.1427 17.2473 34.1417 17.2308 34.1402C17.2248 34.1402 17.2193 34.1402 17.2138 34.1392H17.2078C17.2003 34.1387 17.1933 34.1382 17.1863 34.1377C17.1769 34.1372 17.1679 34.1367 17.1589 34.1357H17.1559C17.1539 34.1357 17.1519 34.1357 17.1499 34.1352C17.1489 34.1352 17.1484 34.1352 17.1474 34.1347H17.1469C17.1449 34.1347 17.1434 34.1347 17.1414 34.1342H17.1389C17.1099 34.1327 17.081 34.1307 17.052 34.1282L17.0131 34.1252C16.9631 34.1213 16.9137 34.1173 16.8638 34.1128C16.8593 34.1123 16.8548 34.1123 16.8503 34.1118C16.8468 34.1113 16.8428 34.1108 16.8393 34.1108C16.8193 34.1088 16.7988 34.1068 16.7784 34.1048C16.7759 34.1048 16.7734 34.1043 16.7709 34.1043C16.7404 34.1013 16.71 34.0988 16.6795 34.0958C16.677 34.0958 16.675 34.0953 16.6725 34.0948C16.669 34.0948 16.6655 34.0943 16.6625 34.0938C16.652 34.0928 16.642 34.0918 16.6316 34.0908C16.6246 34.0898 16.6171 34.0893 16.6101 34.0883C16.6041 34.0878 16.5976 34.0868 16.5916 34.0863H16.5891C16.5871 34.0858 16.5851 34.0858 16.5831 34.0858C16.5761 34.0848 16.5691 34.0843 16.5621 34.0833C16.5482 34.0818 16.5342 34.0803 16.5202 34.0788C16.5107 34.0778 16.5012 34.0763 16.4917 34.0753C16.4708 34.0733 16.4498 34.0708 16.4288 34.0683C16.4258 34.0678 16.4223 34.0678 16.4193 34.0673C16.4009 34.0653 16.3824 34.0633 16.3644 34.0608C16.3424 34.0583 16.321 34.0553 16.2995 34.0528C16.292 34.0518 16.285 34.0508 16.2775 34.0498C16.2515 34.0473 16.2256 34.0439 16.2001 34.0404C16.1786 34.0374 16.1572 34.0349 16.1362 34.0319L16.1032 34.0274C16.0927 34.0259 16.0828 34.0244 16.0723 34.0229C16.0443 34.0194 16.0163 34.0154 15.9884 34.0109C15.9479 34.0054 15.907 33.9994 15.8665 33.9934C15.8625 33.9924 15.858 33.9919 15.8541 33.9914C15.8001 33.9829 15.7462 33.9744 15.6923 33.9654C15.6903 33.9654 15.6878 33.9649 15.6858 33.9645C15.6733 33.9625 15.6603 33.9605 15.6473 33.9585C15.6448 33.958 15.6418 33.9575 15.6388 33.957C15.6288 33.9555 15.6189 33.9535 15.6089 33.9515C15.6004 33.95 15.5914 33.9485 15.5829 33.947H15.5809C15.5799 33.9465 15.5789 33.9465 15.5779 33.9465C15.5759 33.946 15.5744 33.946 15.5724 33.9455C15.5669 33.9445 15.5614 33.9435 15.5559 33.9425C15.5534 33.9425 15.5509 33.942 15.5484 33.9415C15.53 33.9385 15.512 33.935 15.4935 33.932C15.464 33.9265 15.4351 33.9215 15.4056 33.916C15.3941 33.914 15.3822 33.912 15.3707 33.9095C15.3627 33.908 15.3542 33.9065 15.3462 33.905C15.3452 33.905 15.3442 33.9045 15.3432 33.9045C15.3172 33.9 15.2913 33.8955 15.2658 33.89C15.2628 33.8896 15.2593 33.889 15.2563 33.888C15.2488 33.8866 15.2413 33.8851 15.2338 33.8836C15.2253 33.8821 15.2174 33.8801 15.2089 33.8786C15.1834 33.8741 15.1579 33.8691 15.133 33.8636C15.121 33.8616 15.109 33.8591 15.097 33.8566C15.0885 33.8551 15.08 33.8536 15.0715 33.8516C15.0441 33.8461 15.0161 33.8401 14.9887 33.8341C14.9647 33.8296 14.9407 33.8246 14.9172 33.8191C14.9043 33.8161 14.8908 33.8137 14.8778 33.8107C14.8334 33.8012 14.7889 33.7912 14.7445 33.7807C14.734 33.7787 14.7235 33.7762 14.713 33.7737C14.687 33.7677 14.6611 33.7617 14.6356 33.7557C14.5982 33.7472 14.5607 33.7382 14.5237 33.7292C14.5143 33.7268 14.5053 33.7248 14.4958 33.7223C14.4828 33.7193 14.4698 33.7163 14.4568 33.7128C14.4114 33.7018 14.3664 33.6908 14.3215 33.6793C14.3 33.6733 14.2786 33.6678 14.2576 33.6623C14.2471 33.6598 14.2361 33.6568 14.2256 33.6538C14.2106 33.6498 14.1952 33.6459 14.1802 33.6419C14.1512 33.6344 14.1223 33.6264 14.0933 33.6184C14.0838 33.6159 14.0738 33.6129 14.0643 33.6104C14.0523 33.6074 14.0404 33.6039 14.0284 33.6004C14.0254 33.5999 14.0224 33.5989 14.0199 33.5984C14.0159 33.5974 14.0119 33.5964 14.0084 33.5954C14.0034 33.5939 13.9989 33.5929 13.9944 33.5914C13.9844 33.5884 13.9744 33.5859 13.9645 33.5829H13.964C13.9595 33.5814 13.955 33.5804 13.9505 33.5789C13.904 33.5665 13.8581 33.553 13.8122 33.5395C13.8107 33.539 13.8092 33.5385 13.8077 33.538C13.7707 33.5275 13.7338 33.5165 13.6968 33.5055C13.6713 33.4976 13.6459 33.4901 13.6204 33.4821C13.6084 33.4786 13.5964 33.4746 13.5844 33.4711C13.558 33.4631 13.532 33.4546 13.506 33.4466C13.4781 33.4381 13.4506 33.4291 13.4232 33.4201C13.4032 33.4136 13.3827 33.4072 13.3627 33.4007C13.3622 33.4012 13.3622 33.4007 13.3617 33.4007C13.3108 33.3842 13.2599 33.3672 13.2089 33.3502C13.187 33.3427 13.1645 33.3348 13.1425 33.3273C13.0691 33.3028 12.9962 33.2773 12.9233 33.2509C12.9223 33.2504 12.9208 33.2499 12.9198 33.2499C12.8509 33.2254 12.783 33.2004 12.715 33.175C12.7091 33.173 12.7036 33.171 12.6986 33.1685C12.6931 33.1665 12.6876 33.1645 12.6821 33.1625L12.6816 33.162C12.6441 33.148 12.6067 33.134 12.5697 33.1195C12.5677 33.1185 12.5652 33.118 12.5632 33.117C12.5578 33.1155 12.5523 33.1135 12.5473 33.111C12.5468 33.111 12.5463 33.1105 12.5458 33.1105C12.5373 33.1075 12.5293 33.104 12.5208 33.1011C12.5058 33.0956 12.4913 33.0896 12.4774 33.0841C12.4769 33.0841 12.4769 33.0836 12.4764 33.0836C12.4429 33.0706 12.4094 33.0571 12.376 33.0436C12.365 33.0396 12.3545 33.0351 12.3435 33.0306C12.3335 33.0266 12.3236 33.0227 12.3136 33.0187C12.3006 33.0137 12.2881 33.0082 12.2756 33.0032C12.2127 32.9777 12.1498 32.9517 12.0874 32.9253C12.0774 32.9213 12.0674 32.9168 12.0574 32.9123C12.0439 32.9063 12.0299 32.9008 12.0164 32.8948C12.0129 32.8933 12.0095 32.8918 12.006 32.8903C12.0025 32.8888 11.999 32.8878 11.996 32.8858C11.9775 32.8783 11.959 32.8703 11.941 32.8624C11.9111 32.8494 11.8816 32.8364 11.8517 32.8229C11.7812 32.7924 11.7113 32.7605 11.6419 32.7285C11.617 32.717 11.592 32.7061 11.5675 32.6941C11.564 32.6926 11.561 32.6911 11.5575 32.6896C11.55 32.6861 11.543 32.6826 11.5361 32.6791C11.5356 32.6786 11.5346 32.6786 11.5341 32.6781C11.5321 32.6771 11.5301 32.6761 11.5281 32.6751C11.5201 32.6716 11.5126 32.6676 11.5046 32.6641C11.5011 32.6626 11.4971 32.6606 11.4936 32.6591C11.4846 32.6551 11.4761 32.6511 11.4671 32.6466C11.4457 32.6366 11.4242 32.6267 11.4032 32.6162C11.3987 32.6142 11.3947 32.6122 11.3902 32.6102C11.3753 32.6032 11.3603 32.5957 11.3458 32.5882C11.3223 32.5772 11.2989 32.5657 11.2759 32.5542C11.2594 32.5468 11.2434 32.5388 11.2275 32.5308C11.22 32.5268 11.213 32.5233 11.206 32.5198C11.1805 32.5073 11.155 32.4943 11.1296 32.4813C11.0991 32.4664 11.0687 32.4509 11.0382 32.4354C11.0332 32.4329 11.0277 32.4299 11.0227 32.4274C11.0162 32.4239 11.0092 32.4204 11.0027 32.4169C10.9443 32.387 10.8859 32.3565 10.828 32.3255C10.814 32.3185 10.8005 32.3111 10.787 32.3036C10.7286 32.2726 10.6702 32.2411 10.6122 32.2087C10.6082 32.2067 10.6042 32.2047 10.6003 32.2022C10.5993 32.2017 10.5988 32.2012 10.5978 32.2007C10.5653 32.1832 10.5328 32.1652 10.5009 32.1468C10.4674 32.1283 10.4345 32.1098 10.4015 32.0908C10.4 32.0898 10.399 32.0893 10.398 32.0888C10.3301 32.0499 10.2632 32.0109 10.1963 31.9715C10.1958 31.971 10.1953 31.9705 10.1948 31.9705C10.1548 31.947 10.1154 31.9231 10.0759 31.8996C10.048 31.8826 10.02 31.8656 9.99253 31.8487C9.96357 31.8312 9.9346 31.8132 9.90613 31.7957C9.88166 31.7807 9.8572 31.7653 9.83323 31.7503C9.82873 31.7473 9.82424 31.7448 9.81974 31.7418C9.78729 31.7213 9.75433 31.7003 9.72187 31.6794C9.67293 31.6484 9.6245 31.6169 9.57606 31.5855C9.57406 31.584 9.57156 31.5825 9.56956 31.581C9.54659 31.566 9.52412 31.551 9.50166 31.5366C9.50016 31.5351 9.49816 31.5341 9.49666 31.5331C9.49466 31.5316 9.49266 31.5306 9.49067 31.5291C9.4597 31.5081 9.42825 31.4876 9.39728 31.4666C9.28193 31.3887 9.16758 31.3093 9.05422 31.2279C9.02925 31.2105 9.00429 31.1925 8.97932 31.1745C8.92589 31.1366 8.87345 31.0976 8.82102 31.0587C8.76859 31.0202 8.71666 30.9808 8.66472 30.9413C8.61179 30.9014 8.55935 30.8604 8.50642 30.8195C8.45449 30.7785 8.40206 30.7376 8.35012 30.6961C8.31517 30.6682 8.28071 30.6402 8.24625 30.6122C8.19133 30.5678 8.13689 30.5223 8.08246 30.4769C8.0525 30.4519 8.02254 30.427 7.99308 30.4015C7.96312 30.376 7.93315 30.3506 7.90369 30.3251C7.86624 30.2931 7.82879 30.2607 7.79184 30.2277C7.75438 30.1953 7.71743 30.1628 7.68097 30.1298C7.64402 30.0969 7.60707 30.0639 7.57062 30.0305C7.49771 29.9641 7.4253 29.8966 7.35339 29.8287C7.32793 29.8053 7.30196 29.7803 7.27699 29.7563L7.27449 29.7538L7.27349 29.7528C7.27 29.7493 7.26651 29.7463 7.26301 29.7428L7.25851 29.7383C7.22905 29.7099 7.19959 29.6814 7.17013 29.6525C7.12468 29.6085 7.07924 29.5636 7.0343 29.5186C6.51796 29.0023 6.03707 28.4505 5.59613 27.8677C3.57621 25.2021 2.37823 21.8799 2.37823 18.2775C2.37823 9.49816 9.49565 2.38073 18.275 2.38073C18.3434 2.38073 18.4118 2.38123 18.4797 2.38223H18.4822C18.5381 2.38273 18.5941 2.38373 18.6495 2.38523C18.6655 2.38523 18.6819 2.38573 18.6979 2.38623C18.7499 2.38773 18.8018 2.38923 18.8537 2.39123C18.8877 2.39223 18.9221 2.39372 18.9561 2.39522C19.01 2.39722 19.064 2.39972 19.1174 2.40272C19.1773 2.4057 19.2367 2.4092 19.2962 2.4132C19.3636 2.4172 19.431 2.42218 19.4979 2.42717C19.5538 2.43117 19.6098 2.43567 19.6657 2.44066C19.7041 2.44415 19.7426 2.44765 19.781 2.45115C19.8135 2.45414 19.846 2.45714 19.8784 2.46064C19.9109 2.46364 19.9433 2.46762 19.9758 2.47112C20.0177 2.47512 20.0592 2.47962 20.1006 2.48461C20.1626 2.49159 20.224 2.49909 20.2854 2.50707C20.2954 2.50807 20.3054 2.50907 20.3149 2.51057C20.3763 2.51806 20.4372 2.52656 20.4981 2.53504C20.5625 2.54403 20.627 2.55352 20.6909 2.56301C20.6929 2.56351 20.6944 2.56351 20.6959 2.56401C20.7618 2.57399 20.8277 2.58448 20.8931 2.59546C21.024 2.61694 21.1548 2.6404 21.2841 2.66537C21.347 2.67736 21.41 2.68985 21.4724 2.70233C21.4744 2.70282 21.4769 2.70333 21.4789 2.70382C21.5423 2.71682 21.6057 2.73029 21.6691 2.74427C21.6716 2.74427 21.6741 2.74477 21.6761 2.74577C21.7216 2.75526 21.767 2.76575 21.8125 2.77574C21.8189 2.77724 21.8249 2.77872 21.8314 2.78022C21.8709 2.78921 21.9098 2.79821 21.9488 2.80769C21.9642 2.81069 21.9797 2.81469 21.9947 2.81818C22.0012 2.81968 22.0077 2.82118 22.0142 2.82318C22.0441 2.83016 22.0741 2.83766 22.1041 2.84514C22.192 2.86663 22.2793 2.88908 22.3662 2.91256C22.4032 2.92205 22.4401 2.93203 22.4771 2.94252C22.5275 2.956 22.5775 2.96948 22.6269 2.98397C22.6758 2.99795 22.7248 3.01194 22.7737 3.02641C22.8052 3.0359 22.8371 3.04539 22.8686 3.05487C22.9495 3.07885 23.0299 3.10382 23.1103 3.12978C23.1417 3.13976 23.1727 3.14976 23.2042 3.15975C23.2611 3.17822 23.3175 3.1972 23.3735 3.21618C23.4304 3.23515 23.4868 3.25512 23.5432 3.2746C23.5522 3.2776 23.5607 3.28059 23.5692 3.28359C23.6231 3.30306 23.6766 3.32204 23.7305 3.34151C23.734 3.34301 23.7375 3.34401 23.741 3.34551C23.7939 3.36499 23.8464 3.38446 23.8993 3.40443C23.9642 3.4289 24.0286 3.45386 24.093 3.47933C24.1135 3.48733 24.134 3.49532 24.155 3.5038C24.1929 3.51878 24.2304 3.53427 24.2683 3.54925C24.3777 3.59369 24.4865 3.63964 24.5944 3.68658C24.5949 3.68658 24.5954 3.68708 24.5959 3.68708C24.6264 3.70055 24.6568 3.71354 24.6873 3.72751C24.7542 3.75648 24.8206 3.78645 24.8865 3.8169C24.944 3.84337 25.0009 3.86984 25.0583 3.89681C25.0698 3.90229 25.0813 3.90779 25.0928 3.91278C25.0997 3.91628 25.1067 3.91977 25.1137 3.92327C25.1657 3.94824 25.2176 3.97321 25.2695 3.99868C25.308 4.01715 25.3459 4.03613 25.3844 4.0556C25.4223 4.07458 25.4608 4.09405 25.4987 4.11352C25.5172 4.12252 25.5357 4.1325 25.5542 4.14199L25.6096 4.17046C25.6106 4.17096 25.6121 4.17196 25.6136 4.17245C25.6146 4.17295 25.6161 4.17345 25.6171 4.17445C25.651 4.19192 25.6845 4.20941 25.718 4.22739C25.7769 4.25834 25.8358 4.2903 25.8942 4.32276C25.9132 4.33325 25.9322 4.34323 25.9507 4.35372C25.9851 4.3727 26.0196 4.39217 26.054 4.41115C26.0555 4.41214 26.057 4.41265 26.0585 4.41365C26.097 4.43562 26.1349 4.45709 26.1734 4.47906C26.2103 4.50004 26.2468 4.52151 26.2837 4.54298C26.3217 4.56495 26.3596 4.58692 26.3976 4.6099C26.4355 4.63237 26.4735 4.65484 26.5109 4.6783C26.5134 4.6793 26.5159 4.6808 26.5179 4.6823C26.5724 4.71526 26.6268 4.74921 26.6812 4.78268C26.6992 4.79416 26.7172 4.80564 26.7352 4.81713C26.7556 4.82961 26.7761 4.8426 26.7966 4.85558C26.8236 4.87256 26.85 4.89003 26.877 4.90702C26.8785 4.90802 26.8805 4.90902 26.882 4.91002C26.8865 4.91301 26.8915 4.916 26.896 4.919C26.9005 4.922 26.9045 4.9245 26.9089 4.92749C26.9943 4.98292 27.0792 5.03934 27.1631 5.09578C27.1681 5.09928 27.1726 5.10226 27.1771 5.10576C27.1816 5.10876 27.1861 5.11176 27.1906 5.11475C27.1941 5.11675 27.1971 5.11875 27.2001 5.12074C27.2031 5.12324 27.2066 5.12524 27.2096 5.12773C27.2136 5.13023 27.2171 5.13323 27.221 5.13573C27.2615 5.1627 27.3019 5.19065 27.3419 5.21862C27.3584 5.2301 27.3743 5.24159 27.3908 5.25307C27.3913 5.25357 27.3918 5.25407 27.3923 5.25407L27.3928 5.25457C27.3943 5.25557 27.3958 5.25657 27.3973 5.25757C27.4328 5.28204 27.4682 5.30701 27.5032 5.33197C27.5386 5.35694 27.5736 5.38291 27.6085 5.40838C27.6335 5.42586 27.658 5.44383 27.6825 5.46231C27.7019 5.47629 27.7214 5.49027 27.7404 5.50525C27.7674 5.52473 27.7938 5.5447 27.8203 5.56467C27.8822 5.61112 27.9441 5.65806 28.0055 5.7065C28.0071 5.7075 28.0085 5.7085 28.01 5.71H28.0105C28.0145 5.71299 28.0185 5.71598 28.0225 5.71948C28.0245 5.72098 28.0265 5.72297 28.029 5.72497C28.0315 5.72647 28.034 5.72847 28.0365 5.73047C28.0395 5.73246 28.042 5.73446 28.0445 5.73645C28.0795 5.76342 28.1139 5.79089 28.1484 5.81835C28.1588 5.82634 28.1688 5.83434 28.1788 5.84232C28.1938 5.85381 28.2083 5.86579 28.2228 5.87728C28.2298 5.88277 28.2363 5.88777 28.2427 5.89376C28.2517 5.90074 28.2607 5.90774 28.2692 5.91523C28.2695 5.91556 28.2699 5.91573 28.2702 5.91573C28.2757 5.92023 28.2812 5.92471 28.2867 5.92921C28.3057 5.94469 28.3246 5.96017 28.3431 5.97516C28.3751 6.00112 28.407 6.02758 28.439 6.05455C28.4405 6.05555 28.4415 6.05655 28.443 6.05755C28.5089 6.11249 28.5748 6.16791 28.6397 6.22433C28.6592 6.24131 28.6787 6.2578 28.6982 6.27478C28.7301 6.30273 28.7621 6.3307 28.7935 6.35867C28.808 6.37165 28.823 6.38462 28.8375 6.39762C28.8704 6.42657 28.9029 6.45554 28.9354 6.48501C28.9678 6.51446 29.0003 6.54393 29.0322 6.5734C29.0972 6.63282 29.1611 6.69274 29.2245 6.75316C29.249 6.77613 29.2734 6.7996 29.2974 6.82308C29.3353 6.85953 29.3733 6.89598 29.4108 6.93344C29.4113 6.93392 29.4123 6.93492 29.4128 6.93544C29.4133 6.93544 29.4138 6.93592 29.4143 6.93692L29.4158 6.93842C29.4178 6.94042 29.4192 6.94192 29.4212 6.94342C29.4502 6.97189 29.4787 7.00034 29.5071 7.02881C29.5146 7.03531 29.5216 7.04229 29.5281 7.04978C29.5316 7.05278 29.5346 7.05628 29.5376 7.05928C29.5461 7.06726 29.5546 7.07575 29.5626 7.08424L29.579 7.10071C29.5805 7.10221 29.5815 7.10321 29.5825 7.10471L29.5995 7.1217C29.612 7.13418 29.6245 7.14666 29.6365 7.15915C29.638 7.16115 29.6395 7.16264 29.6415 7.16463C29.6445 7.16763 29.6475 7.17063 29.65 7.17363C29.6564 7.17962 29.6624 7.1856 29.6684 7.1921C29.7069 7.23055 29.7443 7.27001 29.7823 7.30945V7.30996C29.8132 7.34191 29.8437 7.37436 29.8742 7.40683C29.8762 7.40932 29.8787 7.41132 29.8806 7.41382L29.8811 7.41432C29.8816 7.41482 29.8821 7.41582 29.8826 7.41632C29.8956 7.4303 29.9086 7.44378 29.9211 7.45777C29.9281 7.46525 29.9351 7.47225 29.9416 7.47974C29.9481 7.48722 29.9551 7.49422 29.9621 7.5017C30.0215 7.56612 30.0804 7.63104 30.1383 7.69645C30.1528 7.71243 30.1673 7.72892 30.1813 7.7449C30.2197 7.78784 30.2577 7.83079 30.2951 7.87423L30.3326 7.91768C30.383 7.9761 30.4329 8.03452 30.4819 8.09395C30.5293 8.14988 30.5758 8.20681 30.6217 8.26373C30.6232 8.26523 30.6247 8.26723 30.6257 8.26873C30.6337 8.27822 30.6412 8.2877 30.6492 8.2972C30.6577 8.30768 30.6662 8.31817 30.6741 8.32865C30.7206 8.38657 30.767 8.4445 30.8125 8.50343C30.818 8.51042 30.824 8.51791 30.8289 8.5249C30.8293 8.52523 30.8294 8.52557 30.8294 8.5259C30.8314 8.5289 30.8339 8.5314 30.8364 8.5344C30.8364 8.53488 30.8369 8.53538 30.8374 8.53588C30.8464 8.54688 30.8554 8.55836 30.8639 8.56985C30.8754 8.58433 30.8869 8.5988 30.8984 8.61379C30.9233 8.64624 30.9483 8.67921 30.9728 8.71216C30.9957 8.74313 31.0187 8.77358 31.0422 8.80455C31.0447 8.80753 31.0467 8.81103 31.0492 8.81403C31.0751 8.84899 31.1011 8.88444 31.1271 8.91989C31.1281 8.92089 31.1286 8.92189 31.1296 8.92339L31.1371 8.93389C31.1381 8.93487 31.1386 8.93637 31.1396 8.93737C31.1475 8.94886 31.156 8.95934 31.164 8.97083C31.18 8.99231 31.1955 9.01428 31.211 9.03625C31.2284 9.06071 31.2459 9.08518 31.2634 9.10965C31.2649 9.11215 31.2669 9.11415 31.2684 9.11665C31.2824 9.13662 31.2963 9.15609 31.3098 9.17607C31.3223 9.19354 31.3343 9.21102 31.3463 9.22851C31.3588 9.24599 31.3713 9.26396 31.3832 9.28193C31.3872 9.28743 31.3912 9.29341 31.3952 9.29941C31.3967 9.30191 31.3987 9.30441 31.4002 9.3069C31.4092 9.31889 31.4172 9.33138 31.4257 9.34386C31.4282 9.34735 31.4307 9.35085 31.4332 9.35435C31.4335 9.35468 31.4337 9.35501 31.4337 9.35535V9.35583C31.4337 9.35583 31.4342 9.35635 31.4342 9.35683C31.4372 9.36083 31.4397 9.36433 31.4422 9.36832C31.4452 9.37232 31.4477 9.37682 31.4507 9.3808C31.4816 9.42625 31.5121 9.47169 31.542 9.51764C31.5515 9.53161 31.561 9.54609 31.5705 9.56008C31.579 9.57356 31.588 9.58655 31.5965 9.60003C31.5975 9.60203 31.599 9.60353 31.6 9.60552C31.602 9.60901 31.6045 9.61201 31.6065 9.61551C31.6234 9.64098 31.6399 9.66695 31.6564 9.69242C31.6684 9.71089 31.6804 9.72987 31.6928 9.74884C31.6943 9.75184 31.6963 9.75484 31.6983 9.75784C31.7043 9.76682 31.7098 9.77631 31.7158 9.78529C31.7208 9.79278 31.7258 9.80077 31.7303 9.80876C31.7333 9.81376 31.7363 9.81826 31.7393 9.82324C31.7423 9.82774 31.7448 9.83174 31.7473 9.83623C31.7478 9.83673 31.7478 9.83773 31.7488 9.83823C31.7488 9.83873 31.7493 9.83923 31.7498 9.83973C31.7503 9.84123 31.7513 9.84223 31.7523 9.84371C31.7578 9.85271 31.7638 9.86169 31.7697 9.87118C31.7722 9.87518 31.7747 9.87968 31.7772 9.88366C31.7927 9.90863 31.8082 9.9336 31.8232 9.95857C31.8392 9.98404 31.8546 10.009 31.8701 10.0345C31.8976 10.0794 31.9246 10.1244 31.9515 10.1698C31.9645 10.1918 31.9775 10.2142 31.9905 10.2362C32.0149 10.2777 32.0394 10.3196 32.0634 10.3611C32.0639 10.3621 32.0649 10.3636 32.0654 10.3646C32.0674 10.3676 32.0689 10.371 32.0709 10.374C32.0858 10.4 32.1008 10.4265 32.1158 10.4529C32.1308 10.4794 32.1458 10.5054 32.1602 10.5318C32.1872 10.5798 32.2137 10.6282 32.2401 10.6767C32.2486 10.6921 32.2576 10.7081 32.2661 10.7241C32.2721 10.7351 32.2776 10.7456 32.2836 10.7566C32.2976 10.783 32.3121 10.8095 32.326 10.8365C32.345 10.8714 32.3635 10.9064 32.3815 10.9418C32.4634 11.0986 32.5428 11.2569 32.6192 11.4167C32.6421 11.4642 32.6646 11.5121 32.6866 11.5595L32.7255 11.6434C32.731 11.6554 32.7365 11.6674 32.742 11.6794C32.7495 11.6954 32.7565 11.7113 32.764 11.7273C32.766 11.7313 32.7675 11.7358 32.7695 11.7398C32.77 11.7403 32.77 11.7413 32.7705 11.7418C32.773 11.7478 32.7755 11.7533 32.7785 11.7593C32.7994 11.8062 32.8204 11.8532 32.8409 11.9001C32.8614 11.947 32.8818 11.9945 32.9018 12.0414C32.9053 12.0494 32.9083 12.0569 32.9118 12.0644C32.9263 12.0983 32.9407 12.1328 32.9547 12.1668C32.9862 12.2417 33.0167 12.3166 33.0466 12.3925C33.0571 12.4179 33.0676 12.4439 33.0776 12.4699C33.0796 12.4749 33.0816 12.4804 33.0836 12.4853C33.0841 12.4858 33.0841 12.4868 33.0846 12.4873C33.103 12.5348 33.121 12.5817 33.139 12.6292C33.1405 12.6337 33.1425 12.6377 33.144 12.6417C33.1655 12.6981 33.1864 12.7545 33.2069 12.8114C33.2169 12.8384 33.2269 12.8654 33.2364 12.8928C33.2424 12.9083 33.2479 12.9243 33.2533 12.9403C33.2628 12.9662 33.2723 12.9927 33.2813 13.0192C33.2943 13.0561 33.3073 13.0931 33.3198 13.1305C33.3253 13.1465 33.3308 13.163 33.3362 13.179C33.3547 13.2329 33.3727 13.2873 33.3902 13.3418C33.3907 13.3428 33.3907 13.3433 33.3912 13.3443C33.4117 13.4072 33.4321 13.4696 33.4516 13.5325C33.4536 13.5385 33.4551 13.5445 33.4571 13.55C33.4666 13.5804 33.4756 13.6104 33.4846 13.6409C33.4866 13.6459 33.488 13.6514 33.4895 13.6569C33.4895 13.6574 33.49 13.6579 33.49 13.6584C33.499 13.6873 33.508 13.7168 33.5165 13.7462C33.5345 13.8072 33.552 13.8676 33.5695 13.9285C33.5779 13.959 33.5864 13.9894 33.5949 14.0199C33.6034 14.0504 33.6114 14.0808 33.6199 14.1113C33.6364 14.1707 33.6518 14.2301 33.6673 14.2896C33.6688 14.2945 33.6698 14.2995 33.6713 14.3045C33.6828 14.35 33.6943 14.3949 33.7053 14.4404C33.7108 14.4628 33.7163 14.4848 33.7218 14.5068C33.7223 14.5093 33.7232 14.5118 33.7238 14.5143C33.7242 14.5168 33.7252 14.5193 33.7257 14.5218C33.7277 14.5292 33.7292 14.5372 33.7312 14.5447C33.7332 14.5537 33.7357 14.5632 33.7377 14.5722C33.7482 14.6161 33.7582 14.6601 33.7687 14.7045C33.7822 14.763 33.7952 14.8214 33.8076 14.8798C33.8111 14.8958 33.8146 14.9122 33.8181 14.9282C33.8251 14.9612 33.8321 14.9946 33.8391 15.0276C33.8426 15.0431 33.8456 15.0581 33.8486 15.0735C33.8551 15.106 33.8621 15.1385 33.8681 15.1709C33.8746 15.2034 33.8811 15.2353 33.8871 15.2683C33.898 15.3242 33.9085 15.3807 33.9185 15.4376C33.9225 15.4576 33.926 15.4775 33.9295 15.4975C33.93 15.5005 33.9305 15.504 33.931 15.507C33.9375 15.5429 33.944 15.5789 33.9495 15.6149C33.9525 15.6298 33.9545 15.6443 33.957 15.6593C33.9664 15.7157 33.9754 15.7717 33.9839 15.8281C33.9849 15.8341 33.9859 15.8401 33.9869 15.8461C33.9974 15.9155 34.0079 15.9849 34.0174 16.0543C34.0184 16.0618 34.0194 16.0693 34.0204 16.0768V16.0783C34.0214 16.0853 34.0224 16.0927 34.0234 16.0997C34.0249 16.1067 34.0259 16.1137 34.0264 16.1212C34.0299 16.1432 34.0329 16.1652 34.0353 16.1866C34.0378 16.2046 34.0398 16.2226 34.0423 16.2406C34.0433 16.248 34.0443 16.255 34.0448 16.262C34.0453 16.2675 34.0463 16.2725 34.0468 16.278V16.2795C34.0468 16.2798 34.047 16.2802 34.0473 16.2805V16.282C34.0477 16.2823 34.0478 16.2827 34.0478 16.283V16.284C34.0483 16.2865 34.0488 16.2895 34.0488 16.292C34.0503 16.303 34.0518 16.314 34.0528 16.3249C34.0533 16.3259 34.0533 16.3264 34.0533 16.3274C34.0573 16.3604 34.0613 16.3934 34.0648 16.4258C34.0653 16.4303 34.0658 16.4353 34.0663 16.4398C34.0673 16.4468 34.0683 16.4538 34.0688 16.4608C34.0718 16.4877 34.0748 16.5147 34.0778 16.5417C34.0803 16.5646 34.0828 16.5876 34.0853 16.6106C34.0858 16.6146 34.0863 16.6186 34.0868 16.6226C34.0868 16.6246 34.0873 16.6266 34.0873 16.6286C34.0873 16.6306 34.0878 16.6326 34.0878 16.6346C34.0913 16.6685 34.0943 16.703 34.0978 16.7369C34.1023 16.7829 34.1068 16.8293 34.1108 16.8752C34.1158 16.9347 34.1207 16.9946 34.1252 17.0545C34.1302 17.1214 34.1352 17.1888 34.1392 17.2563C34.1432 17.3152 34.1467 17.3736 34.1497 17.4325C34.1522 17.479 34.1542 17.5259 34.1562 17.5729C34.1582 17.6193 34.1602 17.6662 34.1617 17.7127C34.1637 17.7596 34.1647 17.8066 34.1662 17.8535C34.1667 17.866 34.1667 17.8785 34.1672 17.891V17.8984C34.1672 17.9044 34.1677 17.9109 34.1677 17.9169C34.1677 17.9264 34.1682 17.9359 34.1682 17.9454V17.9529C34.1692 17.9923 34.1697 18.0323 34.1702 18.0722C34.1712 18.1406 34.1717 18.209 34.1717 18.2775C34.1717 21.8799 32.9737 25.2026 30.9538 27.8682Z"/>
</mask>
<path d="M18.1956 1C8.69867 1 1 8.69868 1 18.1956C1 22.4726 2.56151 26.3851 5.14621 29.3938C5.99213 30.3795 6.94841 31.2679 7.99557 32.0404C10.8489 34.1467 14.3769 35.3911 18.1956 35.3911C22.0931 35.3911 25.688 34.0943 28.5713 31.9086C29.6005 31.1291 30.5393 30.2357 31.3688 29.248C33.8791 26.2593 35.3906 22.4042 35.3906 18.1956C35.3906 8.69868 27.692 1 18.1956 1ZM30.9538 27.8682C30.5129 28.451 30.032 29.0028 29.5161 29.5186C29.4712 29.5636 29.4257 29.6085 29.3803 29.6525C29.3508 29.6814 29.3214 29.7099 29.2919 29.7383L29.2874 29.7428C29.2839 29.7463 29.2804 29.7493 29.2769 29.7528L29.2759 29.7538L29.2734 29.7563C29.248 29.7803 29.2225 29.8048 29.197 29.8287C29.1176 29.9041 29.0377 29.978 28.9568 30.0514C28.9174 30.0874 28.8779 30.1229 28.838 30.1583C28.8115 30.1818 28.7851 30.2052 28.7581 30.2282C28.7396 30.2447 28.7211 30.2612 28.7022 30.2772C28.6837 30.2931 28.6647 30.3091 28.6462 30.3256C28.6028 30.363 28.5588 30.4005 28.5149 30.4375C28.4275 30.5114 28.3386 30.5843 28.2492 30.6567C28.2118 30.6871 28.1743 30.7171 28.1369 30.7466C28.1124 30.7655 28.0884 30.7845 28.0645 30.8035C28.0405 30.8225 28.016 30.8414 27.9916 30.8604C27.9871 30.8639 27.9826 30.8674 27.9781 30.8709C27.9326 30.9059 27.8867 30.9408 27.8408 30.9753C27.7978 31.0077 27.7549 31.0397 27.7119 31.0716C27.7079 31.0746 27.7039 31.0776 27.6999 31.0806C27.6959 31.0836 27.6924 31.0861 27.6885 31.0891C27.686 31.0911 27.683 31.0931 27.6805 31.0946C27.653 31.1151 27.6255 31.1351 27.5981 31.155C27.5961 31.1565 27.5941 31.158 27.5921 31.1595C27.5836 31.1655 27.5751 31.172 27.5666 31.178C27.5371 31.1995 27.5072 31.2205 27.4777 31.2414C27.4318 31.2744 27.3853 31.3068 27.3389 31.3393C27.3329 31.3433 27.3274 31.3473 27.3214 31.3513C27.2765 31.3827 27.2315 31.4137 27.1861 31.4442C27.1601 31.4616 27.1342 31.4791 27.1082 31.4966C27.0707 31.5216 27.0328 31.5465 26.9953 31.5715C26.899 31.6349 26.8016 31.6973 26.7042 31.7583C26.6648 31.7832 26.6253 31.8077 26.5859 31.8317C26.5499 31.8541 26.5134 31.8761 26.477 31.8981C26.471 31.9016 26.4655 31.9051 26.4595 31.9086C26.4291 31.927 26.3986 31.945 26.3681 31.963C26.3227 31.9905 26.2768 32.0169 26.2308 32.0439C26.1988 32.0624 26.1669 32.0804 26.1349 32.0988C26.0875 32.1258 26.0401 32.1528 25.9926 32.1787C25.9517 32.2017 25.9107 32.2242 25.8698 32.2461C25.8538 32.2551 25.8378 32.2636 25.8213 32.2726C25.7819 32.2941 25.7424 32.3151 25.7025 32.336C25.6775 32.349 25.653 32.362 25.6281 32.375C25.5771 32.402 25.5262 32.4284 25.4753 32.4544C25.4698 32.4569 25.4638 32.4599 25.4583 32.4629C25.4508 32.4664 25.4438 32.4704 25.4363 32.4739C25.3789 32.5028 25.3215 32.5318 25.2635 32.5597C25.263 32.5597 25.263 32.5602 25.2625 32.5602C25.2311 32.5762 25.1991 32.5917 25.1672 32.6067C25.0643 32.6566 24.9609 32.7051 24.8566 32.7525C24.8086 32.7745 24.7602 32.7959 24.7117 32.8174C24.6693 32.8364 24.6269 32.8549 24.5844 32.8733C24.5624 32.8828 24.5405 32.8923 24.5185 32.9013C24.478 32.9188 24.4371 32.9363 24.3967 32.9527C24.3927 32.9547 24.3887 32.9562 24.3852 32.9577C24.3332 32.9797 24.2813 33.0007 24.2294 33.0217C24.1749 33.0436 24.121 33.0651 24.0666 33.0866C24.0121 33.108 23.9577 33.129 23.9028 33.1495C23.8908 33.154 23.8793 33.1585 23.8673 33.163C23.8254 33.179 23.7834 33.1944 23.741 33.2099C23.698 33.2259 23.6546 33.2414 23.6111 33.2569C23.6032 33.2594 23.5957 33.2624 23.5877 33.2648C23.5278 33.2863 23.4673 33.3073 23.4069 33.3278C23.3725 33.3397 23.3385 33.3512 23.304 33.3627C23.2926 33.3667 23.2806 33.3702 23.2691 33.3742C23.2661 33.3752 23.2626 33.3762 23.2596 33.3772C23.2177 33.3912 23.1762 33.4047 23.1343 33.4181C23.1038 33.4281 23.0733 33.4376 23.0429 33.4471C22.9964 33.4616 22.95 33.4761 22.9036 33.4901C22.8561 33.5045 22.8092 33.519 22.7617 33.5325C22.7557 33.5345 22.7493 33.536 22.7433 33.538C22.7008 33.5505 22.6584 33.5625 22.6159 33.5745C22.5705 33.5874 22.5245 33.6004 22.4786 33.6129C22.4436 33.6224 22.4082 33.6324 22.3727 33.6414C22.3622 33.6444 22.3518 33.6469 22.3413 33.6494C22.3213 33.6548 22.3013 33.6598 22.2813 33.6653C22.2614 33.6703 22.2414 33.6758 22.2214 33.6808C22.2109 33.6833 22.201 33.6863 22.1905 33.6888C22.146 33.6998 22.1016 33.7113 22.0571 33.7218C22.0197 33.7307 21.9827 33.7402 21.9453 33.7487C21.9378 33.7502 21.9303 33.7522 21.9228 33.7537C21.9188 33.7547 21.9148 33.7557 21.9108 33.7567C21.8719 33.7662 21.8324 33.7752 21.7935 33.7837C21.793 33.7837 21.792 33.7842 21.7915 33.7842C21.7905 33.7847 21.789 33.7847 21.788 33.7852C21.776 33.7877 21.7635 33.7907 21.7515 33.7932C21.7151 33.8012 21.6791 33.8092 21.6422 33.8171C21.6342 33.8191 21.6257 33.8206 21.6172 33.8226C21.6107 33.8236 21.6042 33.8251 21.5977 33.8266C21.5882 33.8286 21.5782 33.8306 21.5688 33.8326C21.5243 33.8421 21.4804 33.8511 21.4354 33.8601C21.393 33.8691 21.3505 33.8776 21.3076 33.8856C21.2577 33.8955 21.2077 33.9045 21.1578 33.9135C21.1118 33.9225 21.0654 33.9305 21.019 33.9385C20.975 33.9465 20.9316 33.954 20.8876 33.961C20.8262 33.9709 20.7643 33.9809 20.7024 33.9904C20.6989 33.9909 20.6954 33.9914 20.6919 33.9919C20.6439 33.9994 20.596 34.0064 20.5481 34.0129C20.5206 34.0169 20.4931 34.0209 20.4657 34.0249C20.4572 34.0259 20.4487 34.0274 20.4402 34.0284C20.3933 34.0349 20.3468 34.0409 20.2999 34.0468C20.2355 34.0553 20.1705 34.0628 20.1061 34.0703C20.0457 34.0773 19.9858 34.0838 19.9254 34.0898C19.8799 34.0948 19.8345 34.0993 19.7885 34.1033C19.7381 34.1083 19.6877 34.1128 19.6367 34.1168C19.6162 34.1188 19.5953 34.1203 19.5743 34.1223C19.5383 34.1252 19.5019 34.1277 19.4654 34.1307C19.4579 34.1312 19.451 34.1317 19.4435 34.1322C19.41 34.1347 19.3761 34.1372 19.3421 34.1392C19.3386 34.1392 19.3346 34.1397 19.3311 34.1397C19.3186 34.1407 19.3056 34.1417 19.2932 34.1422C19.2607 34.1447 19.2282 34.1467 19.1953 34.1482C19.1883 34.1487 19.1818 34.1487 19.1748 34.1492C19.1249 34.1527 19.0739 34.1547 19.0235 34.1572C19.0205 34.1572 19.018 34.1577 19.015 34.1577H19.0125C18.9551 34.1607 18.8977 34.1627 18.8402 34.1647C18.7838 34.1667 18.7274 34.1687 18.6704 34.1702C18.607 34.1712 18.5441 34.1727 18.4807 34.1732C18.4123 34.1742 18.3434 34.1747 18.275 34.1747C18.2065 34.1747 18.1376 34.1742 18.0697 34.1732C18.0562 34.1732 18.0433 34.1727 18.0303 34.1727C18.0198 34.1727 18.0098 34.1722 17.9993 34.1722C17.9634 34.1717 17.9274 34.1712 17.8915 34.1702H17.888C17.854 34.1692 17.821 34.1682 17.7871 34.1672C17.7776 34.1672 17.7686 34.1667 17.7591 34.1662C17.7032 34.1652 17.6473 34.1627 17.5923 34.1602L17.5784 34.1597L17.5639 34.1587C17.5524 34.1587 17.5414 34.1582 17.5299 34.1572C17.5209 34.1567 17.5124 34.1567 17.5034 34.1562C17.481 34.1552 17.458 34.1542 17.4355 34.1527C17.4211 34.1522 17.4071 34.1512 17.3926 34.1502H17.3861C17.3826 34.1502 17.3791 34.1497 17.3751 34.1492C17.3716 34.1492 17.3681 34.1492 17.3646 34.1487C17.3631 34.1487 17.3616 34.1482 17.3601 34.1482C17.3546 34.1482 17.3486 34.1477 17.3432 34.1472C17.3392 34.1472 17.3357 34.1472 17.3317 34.1467C17.3147 34.1462 17.2972 34.1452 17.2797 34.1437C17.2633 34.1427 17.2473 34.1417 17.2308 34.1402C17.2248 34.1402 17.2193 34.1402 17.2138 34.1392H17.2078C17.2003 34.1387 17.1933 34.1382 17.1863 34.1377C17.1769 34.1372 17.1679 34.1367 17.1589 34.1357H17.1559C17.1539 34.1357 17.1519 34.1357 17.1499 34.1352C17.1489 34.1352 17.1484 34.1352 17.1474 34.1347H17.1469C17.1449 34.1347 17.1434 34.1347 17.1414 34.1342H17.1389C17.1099 34.1327 17.081 34.1307 17.052 34.1282L17.0131 34.1252C16.9631 34.1213 16.9137 34.1173 16.8638 34.1128C16.8593 34.1123 16.8548 34.1123 16.8503 34.1118C16.8468 34.1113 16.8428 34.1108 16.8393 34.1108C16.8193 34.1088 16.7988 34.1068 16.7784 34.1048C16.7759 34.1048 16.7734 34.1043 16.7709 34.1043C16.7404 34.1013 16.71 34.0988 16.6795 34.0958C16.677 34.0958 16.675 34.0953 16.6725 34.0948C16.669 34.0948 16.6655 34.0943 16.6625 34.0938C16.652 34.0928 16.642 34.0918 16.6316 34.0908C16.6246 34.0898 16.6171 34.0893 16.6101 34.0883C16.6041 34.0878 16.5976 34.0868 16.5916 34.0863H16.5891C16.5871 34.0858 16.5851 34.0858 16.5831 34.0858C16.5761 34.0848 16.5691 34.0843 16.5621 34.0833C16.5482 34.0818 16.5342 34.0803 16.5202 34.0788C16.5107 34.0778 16.5012 34.0763 16.4917 34.0753C16.4708 34.0733 16.4498 34.0708 16.4288 34.0683C16.4258 34.0678 16.4223 34.0678 16.4193 34.0673C16.4009 34.0653 16.3824 34.0633 16.3644 34.0608C16.3424 34.0583 16.321 34.0553 16.2995 34.0528C16.292 34.0518 16.285 34.0508 16.2775 34.0498C16.2515 34.0473 16.2256 34.0439 16.2001 34.0404C16.1786 34.0374 16.1572 34.0349 16.1362 34.0319L16.1032 34.0274C16.0927 34.0259 16.0828 34.0244 16.0723 34.0229C16.0443 34.0194 16.0163 34.0154 15.9884 34.0109C15.9479 34.0054 15.907 33.9994 15.8665 33.9934C15.8625 33.9924 15.858 33.9919 15.8541 33.9914C15.8001 33.9829 15.7462 33.9744 15.6923 33.9654C15.6903 33.9654 15.6878 33.9649 15.6858 33.9645C15.6733 33.9625 15.6603 33.9605 15.6473 33.9585C15.6448 33.958 15.6418 33.9575 15.6388 33.957C15.6288 33.9555 15.6189 33.9535 15.6089 33.9515C15.6004 33.95 15.5914 33.9485 15.5829 33.947H15.5809C15.5799 33.9465 15.5789 33.9465 15.5779 33.9465C15.5759 33.946 15.5744 33.946 15.5724 33.9455C15.5669 33.9445 15.5614 33.9435 15.5559 33.9425C15.5534 33.9425 15.5509 33.942 15.5484 33.9415C15.53 33.9385 15.512 33.935 15.4935 33.932C15.464 33.9265 15.4351 33.9215 15.4056 33.916C15.3941 33.914 15.3822 33.912 15.3707 33.9095C15.3627 33.908 15.3542 33.9065 15.3462 33.905C15.3452 33.905 15.3442 33.9045 15.3432 33.9045C15.3172 33.9 15.2913 33.8955 15.2658 33.89C15.2628 33.8896 15.2593 33.889 15.2563 33.888C15.2488 33.8866 15.2413 33.8851 15.2338 33.8836C15.2253 33.8821 15.2174 33.8801 15.2089 33.8786C15.1834 33.8741 15.1579 33.8691 15.133 33.8636C15.121 33.8616 15.109 33.8591 15.097 33.8566C15.0885 33.8551 15.08 33.8536 15.0715 33.8516C15.0441 33.8461 15.0161 33.8401 14.9887 33.8341C14.9647 33.8296 14.9407 33.8246 14.9172 33.8191C14.9043 33.8161 14.8908 33.8137 14.8778 33.8107C14.8334 33.8012 14.7889 33.7912 14.7445 33.7807C14.734 33.7787 14.7235 33.7762 14.713 33.7737C14.687 33.7677 14.6611 33.7617 14.6356 33.7557C14.5982 33.7472 14.5607 33.7382 14.5237 33.7292C14.5143 33.7268 14.5053 33.7248 14.4958 33.7223C14.4828 33.7193 14.4698 33.7163 14.4568 33.7128C14.4114 33.7018 14.3664 33.6908 14.3215 33.6793C14.3 33.6733 14.2786 33.6678 14.2576 33.6623C14.2471 33.6598 14.2361 33.6568 14.2256 33.6538C14.2106 33.6498 14.1952 33.6459 14.1802 33.6419C14.1512 33.6344 14.1223 33.6264 14.0933 33.6184C14.0838 33.6159 14.0738 33.6129 14.0643 33.6104C14.0523 33.6074 14.0404 33.6039 14.0284 33.6004C14.0254 33.5999 14.0224 33.5989 14.0199 33.5984C14.0159 33.5974 14.0119 33.5964 14.0084 33.5954C14.0034 33.5939 13.9989 33.5929 13.9944 33.5914C13.9844 33.5884 13.9744 33.5859 13.9645 33.5829H13.964C13.9595 33.5814 13.955 33.5804 13.9505 33.5789C13.904 33.5665 13.8581 33.553 13.8122 33.5395C13.8107 33.539 13.8092 33.5385 13.8077 33.538C13.7707 33.5275 13.7338 33.5165 13.6968 33.5055C13.6713 33.4976 13.6459 33.4901 13.6204 33.4821C13.6084 33.4786 13.5964 33.4746 13.5844 33.4711C13.558 33.4631 13.532 33.4546 13.506 33.4466C13.4781 33.4381 13.4506 33.4291 13.4232 33.4201C13.4032 33.4136 13.3827 33.4072 13.3627 33.4007C13.3622 33.4012 13.3622 33.4007 13.3617 33.4007C13.3108 33.3842 13.2599 33.3672 13.2089 33.3502C13.187 33.3427 13.1645 33.3348 13.1425 33.3273C13.0691 33.3028 12.9962 33.2773 12.9233 33.2509C12.9223 33.2504 12.9208 33.2499 12.9198 33.2499C12.8509 33.2254 12.783 33.2004 12.715 33.175C12.7091 33.173 12.7036 33.171 12.6986 33.1685C12.6931 33.1665 12.6876 33.1645 12.6821 33.1625L12.6816 33.162C12.6441 33.148 12.6067 33.134 12.5697 33.1195C12.5677 33.1185 12.5652 33.118 12.5632 33.117C12.5578 33.1155 12.5523 33.1135 12.5473 33.111C12.5468 33.111 12.5463 33.1105 12.5458 33.1105C12.5373 33.1075 12.5293 33.104 12.5208 33.1011C12.5058 33.0956 12.4913 33.0896 12.4774 33.0841C12.4769 33.0841 12.4769 33.0836 12.4764 33.0836C12.4429 33.0706 12.4094 33.0571 12.376 33.0436C12.365 33.0396 12.3545 33.0351 12.3435 33.0306C12.3335 33.0266 12.3236 33.0227 12.3136 33.0187C12.3006 33.0137 12.2881 33.0082 12.2756 33.0032C12.2127 32.9777 12.1498 32.9517 12.0874 32.9253C12.0774 32.9213 12.0674 32.9168 12.0574 32.9123C12.0439 32.9063 12.0299 32.9008 12.0164 32.8948C12.0129 32.8933 12.0095 32.8918 12.006 32.8903C12.0025 32.8888 11.999 32.8878 11.996 32.8858C11.9775 32.8783 11.959 32.8703 11.941 32.8624C11.9111 32.8494 11.8816 32.8364 11.8517 32.8229C11.7812 32.7924 11.7113 32.7605 11.6419 32.7285C11.617 32.717 11.592 32.7061 11.5675 32.6941C11.564 32.6926 11.561 32.6911 11.5575 32.6896C11.55 32.6861 11.543 32.6826 11.5361 32.6791C11.5356 32.6786 11.5346 32.6786 11.5341 32.6781C11.5321 32.6771 11.5301 32.6761 11.5281 32.6751C11.5201 32.6716 11.5126 32.6676 11.5046 32.6641C11.5011 32.6626 11.4971 32.6606 11.4936 32.6591C11.4846 32.6551 11.4761 32.6511 11.4671 32.6466C11.4457 32.6366 11.4242 32.6267 11.4032 32.6162C11.3987 32.6142 11.3947 32.6122 11.3902 32.6102C11.3753 32.6032 11.3603 32.5957 11.3458 32.5882C11.3223 32.5772 11.2989 32.5657 11.2759 32.5542C11.2594 32.5468 11.2434 32.5388 11.2275 32.5308C11.22 32.5268 11.213 32.5233 11.206 32.5198C11.1805 32.5073 11.155 32.4943 11.1296 32.4813C11.0991 32.4664 11.0687 32.4509 11.0382 32.4354C11.0332 32.4329 11.0277 32.4299 11.0227 32.4274C11.0162 32.4239 11.0092 32.4204 11.0027 32.4169C10.9443 32.387 10.8859 32.3565 10.828 32.3255C10.814 32.3185 10.8005 32.3111 10.787 32.3036C10.7286 32.2726 10.6702 32.2411 10.6122 32.2087C10.6082 32.2067 10.6042 32.2047 10.6003 32.2022C10.5993 32.2017 10.5988 32.2012 10.5978 32.2007C10.5653 32.1832 10.5328 32.1652 10.5009 32.1468C10.4674 32.1283 10.4345 32.1098 10.4015 32.0908C10.4 32.0898 10.399 32.0893 10.398 32.0888C10.3301 32.0499 10.2632 32.0109 10.1963 31.9715C10.1958 31.971 10.1953 31.9705 10.1948 31.9705C10.1548 31.947 10.1154 31.9231 10.0759 31.8996C10.048 31.8826 10.02 31.8656 9.99253 31.8487C9.96357 31.8312 9.9346 31.8132 9.90613 31.7957C9.88166 31.7807 9.8572 31.7653 9.83323 31.7503C9.82873 31.7473 9.82424 31.7448 9.81974 31.7418C9.78729 31.7213 9.75433 31.7003 9.72187 31.6794C9.67293 31.6484 9.6245 31.6169 9.57606 31.5855C9.57406 31.584 9.57156 31.5825 9.56956 31.581C9.54659 31.566 9.52412 31.551 9.50166 31.5366C9.50016 31.5351 9.49816 31.5341 9.49666 31.5331C9.49466 31.5316 9.49266 31.5306 9.49067 31.5291C9.4597 31.5081 9.42825 31.4876 9.39728 31.4666C9.28193 31.3887 9.16758 31.3093 9.05422 31.2279C9.02925 31.2105 9.00429 31.1925 8.97932 31.1745C8.92589 31.1366 8.87345 31.0976 8.82102 31.0587C8.76859 31.0202 8.71666 30.9808 8.66472 30.9413C8.61179 30.9014 8.55935 30.8604 8.50642 30.8195C8.45449 30.7785 8.40206 30.7376 8.35012 30.6961C8.31517 30.6682 8.28071 30.6402 8.24625 30.6122C8.19133 30.5678 8.13689 30.5223 8.08246 30.4769C8.0525 30.4519 8.02254 30.427 7.99308 30.4015C7.96312 30.376 7.93315 30.3506 7.90369 30.3251C7.86624 30.2931 7.82879 30.2607 7.79184 30.2277C7.75438 30.1953 7.71743 30.1628 7.68097 30.1298C7.64402 30.0969 7.60707 30.0639 7.57062 30.0305C7.49771 29.9641 7.4253 29.8966 7.35339 29.8287C7.32793 29.8053 7.30196 29.7803 7.27699 29.7563L7.27449 29.7538L7.27349 29.7528C7.27 29.7493 7.26651 29.7463 7.26301 29.7428L7.25851 29.7383C7.22905 29.7099 7.19959 29.6814 7.17013 29.6525C7.12468 29.6085 7.07924 29.5636 7.0343 29.5186C6.51796 29.0023 6.03707 28.4505 5.59613 27.8677C3.57621 25.2021 2.37823 21.8799 2.37823 18.2775C2.37823 9.49816 9.49565 2.38073 18.275 2.38073C18.3434 2.38073 18.4118 2.38123 18.4797 2.38223H18.4822C18.5381 2.38273 18.5941 2.38373 18.6495 2.38523C18.6655 2.38523 18.6819 2.38573 18.6979 2.38623C18.7499 2.38773 18.8018 2.38923 18.8537 2.39123C18.8877 2.39223 18.9221 2.39372 18.9561 2.39522C19.01 2.39722 19.064 2.39972 19.1174 2.40272C19.1773 2.4057 19.2367 2.4092 19.2962 2.4132C19.3636 2.4172 19.431 2.42218 19.4979 2.42717C19.5538 2.43117 19.6098 2.43567 19.6657 2.44066C19.7041 2.44415 19.7426 2.44765 19.781 2.45115C19.8135 2.45414 19.846 2.45714 19.8784 2.46064C19.9109 2.46364 19.9433 2.46762 19.9758 2.47112C20.0177 2.47512 20.0592 2.47962 20.1006 2.48461C20.1626 2.49159 20.224 2.49909 20.2854 2.50707C20.2954 2.50807 20.3054 2.50907 20.3149 2.51057C20.3763 2.51806 20.4372 2.52656 20.4981 2.53504C20.5625 2.54403 20.627 2.55352 20.6909 2.56301C20.6929 2.56351 20.6944 2.56351 20.6959 2.56401C20.7618 2.57399 20.8277 2.58448 20.8931 2.59546C21.024 2.61694 21.1548 2.6404 21.2841 2.66537C21.347 2.67736 21.41 2.68985 21.4724 2.70233C21.4744 2.70282 21.4769 2.70333 21.4789 2.70382C21.5423 2.71682 21.6057 2.73029 21.6691 2.74427C21.6716 2.74427 21.6741 2.74477 21.6761 2.74577C21.7216 2.75526 21.767 2.76575 21.8125 2.77574C21.8189 2.77724 21.8249 2.77872 21.8314 2.78022C21.8709 2.78921 21.9098 2.79821 21.9488 2.80769C21.9642 2.81069 21.9797 2.81469 21.9947 2.81818C22.0012 2.81968 22.0077 2.82118 22.0142 2.82318C22.0441 2.83016 22.0741 2.83766 22.1041 2.84514C22.192 2.86663 22.2793 2.88908 22.3662 2.91256C22.4032 2.92205 22.4401 2.93203 22.4771 2.94252C22.5275 2.956 22.5775 2.96948 22.6269 2.98397C22.6758 2.99795 22.7248 3.01194 22.7737 3.02641C22.8052 3.0359 22.8371 3.04539 22.8686 3.05487C22.9495 3.07885 23.0299 3.10382 23.1103 3.12978C23.1417 3.13976 23.1727 3.14976 23.2042 3.15975C23.2611 3.17822 23.3175 3.1972 23.3735 3.21618C23.4304 3.23515 23.4868 3.25512 23.5432 3.2746C23.5522 3.2776 23.5607 3.28059 23.5692 3.28359C23.6231 3.30306 23.6766 3.32204 23.7305 3.34151C23.734 3.34301 23.7375 3.34401 23.741 3.34551C23.7939 3.36499 23.8464 3.38446 23.8993 3.40443C23.9642 3.4289 24.0286 3.45386 24.093 3.47933C24.1135 3.48733 24.134 3.49532 24.155 3.5038C24.1929 3.51878 24.2304 3.53427 24.2683 3.54925C24.3777 3.59369 24.4865 3.63964 24.5944 3.68658C24.5949 3.68658 24.5954 3.68708 24.5959 3.68708C24.6264 3.70055 24.6568 3.71354 24.6873 3.72751C24.7542 3.75648 24.8206 3.78645 24.8865 3.8169C24.944 3.84337 25.0009 3.86984 25.0583 3.89681C25.0698 3.90229 25.0813 3.90779 25.0928 3.91278C25.0997 3.91628 25.1067 3.91977 25.1137 3.92327C25.1657 3.94824 25.2176 3.97321 25.2695 3.99868C25.308 4.01715 25.3459 4.03613 25.3844 4.0556C25.4223 4.07458 25.4608 4.09405 25.4987 4.11352C25.5172 4.12252 25.5357 4.1325 25.5542 4.14199L25.6096 4.17046C25.6106 4.17096 25.6121 4.17196 25.6136 4.17245C25.6146 4.17295 25.6161 4.17345 25.6171 4.17445C25.651 4.19192 25.6845 4.20941 25.718 4.22739C25.7769 4.25834 25.8358 4.2903 25.8942 4.32276C25.9132 4.33325 25.9322 4.34323 25.9507 4.35372C25.9851 4.3727 26.0196 4.39217 26.054 4.41115C26.0555 4.41214 26.057 4.41265 26.0585 4.41365C26.097 4.43562 26.1349 4.45709 26.1734 4.47906C26.2103 4.50004 26.2468 4.52151 26.2837 4.54298C26.3217 4.56495 26.3596 4.58692 26.3976 4.6099C26.4355 4.63237 26.4735 4.65484 26.5109 4.6783C26.5134 4.6793 26.5159 4.6808 26.5179 4.6823C26.5724 4.71526 26.6268 4.74921 26.6812 4.78268C26.6992 4.79416 26.7172 4.80564 26.7352 4.81713C26.7556 4.82961 26.7761 4.8426 26.7966 4.85558C26.8236 4.87256 26.85 4.89003 26.877 4.90702C26.8785 4.90802 26.8805 4.90902 26.882 4.91002C26.8865 4.91301 26.8915 4.916 26.896 4.919C26.9005 4.922 26.9045 4.9245 26.9089 4.92749C26.9943 4.98292 27.0792 5.03934 27.1631 5.09578C27.1681 5.09928 27.1726 5.10226 27.1771 5.10576C27.1816 5.10876 27.1861 5.11176 27.1906 5.11475C27.1941 5.11675 27.1971 5.11875 27.2001 5.12074C27.2031 5.12324 27.2066 5.12524 27.2096 5.12773C27.2136 5.13023 27.2171 5.13323 27.221 5.13573C27.2615 5.1627 27.3019 5.19065 27.3419 5.21862C27.3584 5.2301 27.3743 5.24159 27.3908 5.25307C27.3913 5.25357 27.3918 5.25407 27.3923 5.25407L27.3928 5.25457C27.3943 5.25557 27.3958 5.25657 27.3973 5.25757C27.4328 5.28204 27.4682 5.30701 27.5032 5.33197C27.5386 5.35694 27.5736 5.38291 27.6085 5.40838C27.6335 5.42586 27.658 5.44383 27.6825 5.46231C27.7019 5.47629 27.7214 5.49027 27.7404 5.50525C27.7674 5.52473 27.7938 5.5447 27.8203 5.56467C27.8822 5.61112 27.9441 5.65806 28.0055 5.7065C28.0071 5.7075 28.0085 5.7085 28.01 5.71H28.0105C28.0145 5.71299 28.0185 5.71598 28.0225 5.71948C28.0245 5.72098 28.0265 5.72297 28.029 5.72497C28.0315 5.72647 28.034 5.72847 28.0365 5.73047C28.0395 5.73246 28.042 5.73446 28.0445 5.73645C28.0795 5.76342 28.1139 5.79089 28.1484 5.81835C28.1588 5.82634 28.1688 5.83434 28.1788 5.84232C28.1938 5.85381 28.2083 5.86579 28.2228 5.87728C28.2298 5.88277 28.2363 5.88777 28.2427 5.89376C28.2517 5.90074 28.2607 5.90774 28.2692 5.91523C28.2695 5.91556 28.2699 5.91573 28.2702 5.91573C28.2757 5.92023 28.2812 5.92471 28.2867 5.92921C28.3057 5.94469 28.3246 5.96017 28.3431 5.97516C28.3751 6.00112 28.407 6.02758 28.439 6.05455C28.4405 6.05555 28.4415 6.05655 28.443 6.05755C28.5089 6.11249 28.5748 6.16791 28.6397 6.22433C28.6592 6.24131 28.6787 6.2578 28.6982 6.27478C28.7301 6.30273 28.7621 6.3307 28.7935 6.35867C28.808 6.37165 28.823 6.38462 28.8375 6.39762C28.8704 6.42657 28.9029 6.45554 28.9354 6.48501C28.9678 6.51446 29.0003 6.54393 29.0322 6.5734C29.0972 6.63282 29.1611 6.69274 29.2245 6.75316C29.249 6.77613 29.2734 6.7996 29.2974 6.82308C29.3353 6.85953 29.3733 6.89598 29.4108 6.93344C29.4113 6.93392 29.4123 6.93492 29.4128 6.93544C29.4133 6.93544 29.4138 6.93592 29.4143 6.93692L29.4158 6.93842C29.4178 6.94042 29.4192 6.94192 29.4212 6.94342C29.4502 6.97189 29.4787 7.00034 29.5071 7.02881C29.5146 7.03531 29.5216 7.04229 29.5281 7.04978C29.5316 7.05278 29.5346 7.05628 29.5376 7.05928C29.5461 7.06726 29.5546 7.07575 29.5626 7.08424L29.579 7.10071C29.5805 7.10221 29.5815 7.10321 29.5825 7.10471L29.5995 7.1217C29.612 7.13418 29.6245 7.14666 29.6365 7.15915C29.638 7.16115 29.6395 7.16264 29.6415 7.16463C29.6445 7.16763 29.6475 7.17063 29.65 7.17363C29.6564 7.17962 29.6624 7.1856 29.6684 7.1921C29.7069 7.23055 29.7443 7.27001 29.7823 7.30945V7.30996C29.8132 7.34191 29.8437 7.37436 29.8742 7.40683C29.8762 7.40932 29.8787 7.41132 29.8806 7.41382L29.8811 7.41432C29.8816 7.41482 29.8821 7.41582 29.8826 7.41632C29.8956 7.4303 29.9086 7.44378 29.9211 7.45777C29.9281 7.46525 29.9351 7.47225 29.9416 7.47974C29.9481 7.48722 29.9551 7.49422 29.9621 7.5017C30.0215 7.56612 30.0804 7.63104 30.1383 7.69645C30.1528 7.71243 30.1673 7.72892 30.1813 7.7449C30.2197 7.78784 30.2577 7.83079 30.2951 7.87423L30.3326 7.91768C30.383 7.9761 30.4329 8.03452 30.4819 8.09395C30.5293 8.14988 30.5758 8.20681 30.6217 8.26373C30.6232 8.26523 30.6247 8.26723 30.6257 8.26873C30.6337 8.27822 30.6412 8.2877 30.6492 8.2972C30.6577 8.30768 30.6662 8.31817 30.6741 8.32865C30.7206 8.38657 30.767 8.4445 30.8125 8.50343C30.818 8.51042 30.824 8.51791 30.8289 8.5249C30.8293 8.52523 30.8294 8.52557 30.8294 8.5259C30.8314 8.5289 30.8339 8.5314 30.8364 8.5344C30.8364 8.53488 30.8369 8.53538 30.8374 8.53588C30.8464 8.54688 30.8554 8.55836 30.8639 8.56985C30.8754 8.58433 30.8869 8.5988 30.8984 8.61379C30.9233 8.64624 30.9483 8.67921 30.9728 8.71216C30.9957 8.74313 31.0187 8.77358 31.0422 8.80455C31.0447 8.80753 31.0467 8.81103 31.0492 8.81403C31.0751 8.84899 31.1011 8.88444 31.1271 8.91989C31.1281 8.92089 31.1286 8.92189 31.1296 8.92339L31.1371 8.93389C31.1381 8.93487 31.1386 8.93637 31.1396 8.93737C31.1475 8.94886 31.156 8.95934 31.164 8.97083C31.18 8.99231 31.1955 9.01428 31.211 9.03625C31.2284 9.06071 31.2459 9.08518 31.2634 9.10965C31.2649 9.11215 31.2669 9.11415 31.2684 9.11665C31.2824 9.13662 31.2963 9.15609 31.3098 9.17607C31.3223 9.19354 31.3343 9.21102 31.3463 9.22851C31.3588 9.24599 31.3713 9.26396 31.3832 9.28193C31.3872 9.28743 31.3912 9.29341 31.3952 9.29941C31.3967 9.30191 31.3987 9.30441 31.4002 9.3069C31.4092 9.31889 31.4172 9.33138 31.4257 9.34386C31.4282 9.34735 31.4307 9.35085 31.4332 9.35435C31.4335 9.35468 31.4337 9.35501 31.4337 9.35535V9.35583C31.4337 9.35583 31.4342 9.35635 31.4342 9.35683C31.4372 9.36083 31.4397 9.36433 31.4422 9.36832C31.4452 9.37232 31.4477 9.37682 31.4507 9.3808C31.4816 9.42625 31.5121 9.47169 31.542 9.51764C31.5515 9.53161 31.561 9.54609 31.5705 9.56008C31.579 9.57356 31.588 9.58655 31.5965 9.60003C31.5975 9.60203 31.599 9.60353 31.6 9.60552C31.602 9.60901 31.6045 9.61201 31.6065 9.61551C31.6234 9.64098 31.6399 9.66695 31.6564 9.69242C31.6684 9.71089 31.6804 9.72987 31.6928 9.74884C31.6943 9.75184 31.6963 9.75484 31.6983 9.75784C31.7043 9.76682 31.7098 9.77631 31.7158 9.78529C31.7208 9.79278 31.7258 9.80077 31.7303 9.80876C31.7333 9.81376 31.7363 9.81826 31.7393 9.82324C31.7423 9.82774 31.7448 9.83174 31.7473 9.83623C31.7478 9.83673 31.7478 9.83773 31.7488 9.83823C31.7488 9.83873 31.7493 9.83923 31.7498 9.83973C31.7503 9.84123 31.7513 9.84223 31.7523 9.84371C31.7578 9.85271 31.7638 9.86169 31.7697 9.87118C31.7722 9.87518 31.7747 9.87968 31.7772 9.88366C31.7927 9.90863 31.8082 9.9336 31.8232 9.95857C31.8392 9.98404 31.8546 10.009 31.8701 10.0345C31.8976 10.0794 31.9246 10.1244 31.9515 10.1698C31.9645 10.1918 31.9775 10.2142 31.9905 10.2362C32.0149 10.2777 32.0394 10.3196 32.0634 10.3611C32.0639 10.3621 32.0649 10.3636 32.0654 10.3646C32.0674 10.3676 32.0689 10.371 32.0709 10.374C32.0858 10.4 32.1008 10.4265 32.1158 10.4529C32.1308 10.4794 32.1458 10.5054 32.1602 10.5318C32.1872 10.5798 32.2137 10.6282 32.2401 10.6767C32.2486 10.6921 32.2576 10.7081 32.2661 10.7241C32.2721 10.7351 32.2776 10.7456 32.2836 10.7566C32.2976 10.783 32.3121 10.8095 32.326 10.8365C32.345 10.8714 32.3635 10.9064 32.3815 10.9418C32.4634 11.0986 32.5428 11.2569 32.6192 11.4167C32.6421 11.4642 32.6646 11.5121 32.6866 11.5595L32.7255 11.6434C32.731 11.6554 32.7365 11.6674 32.742 11.6794C32.7495 11.6954 32.7565 11.7113 32.764 11.7273C32.766 11.7313 32.7675 11.7358 32.7695 11.7398C32.77 11.7403 32.77 11.7413 32.7705 11.7418C32.773 11.7478 32.7755 11.7533 32.7785 11.7593C32.7994 11.8062 32.8204 11.8532 32.8409 11.9001C32.8614 11.947 32.8818 11.9945 32.9018 12.0414C32.9053 12.0494 32.9083 12.0569 32.9118 12.0644C32.9263 12.0983 32.9407 12.1328 32.9547 12.1668C32.9862 12.2417 33.0167 12.3166 33.0466 12.3925C33.0571 12.4179 33.0676 12.4439 33.0776 12.4699C33.0796 12.4749 33.0816 12.4804 33.0836 12.4853C33.0841 12.4858 33.0841 12.4868 33.0846 12.4873C33.103 12.5348 33.121 12.5817 33.139 12.6292C33.1405 12.6337 33.1425 12.6377 33.144 12.6417C33.1655 12.6981 33.1864 12.7545 33.2069 12.8114C33.2169 12.8384 33.2269 12.8654 33.2364 12.8928C33.2424 12.9083 33.2479 12.9243 33.2533 12.9403C33.2628 12.9662 33.2723 12.9927 33.2813 13.0192C33.2943 13.0561 33.3073 13.0931 33.3198 13.1305C33.3253 13.1465 33.3308 13.163 33.3362 13.179C33.3547 13.2329 33.3727 13.2873 33.3902 13.3418C33.3907 13.3428 33.3907 13.3433 33.3912 13.3443C33.4117 13.4072 33.4321 13.4696 33.4516 13.5325C33.4536 13.5385 33.4551 13.5445 33.4571 13.55C33.4666 13.5804 33.4756 13.6104 33.4846 13.6409C33.4866 13.6459 33.488 13.6514 33.4895 13.6569C33.4895 13.6574 33.49 13.6579 33.49 13.6584C33.499 13.6873 33.508 13.7168 33.5165 13.7462C33.5345 13.8072 33.552 13.8676 33.5695 13.9285C33.5779 13.959 33.5864 13.9894 33.5949 14.0199C33.6034 14.0504 33.6114 14.0808 33.6199 14.1113C33.6364 14.1707 33.6518 14.2301 33.6673 14.2896C33.6688 14.2945 33.6698 14.2995 33.6713 14.3045C33.6828 14.35 33.6943 14.3949 33.7053 14.4404C33.7108 14.4628 33.7163 14.4848 33.7218 14.5068C33.7223 14.5093 33.7232 14.5118 33.7238 14.5143C33.7242 14.5168 33.7252 14.5193 33.7257 14.5218C33.7277 14.5292 33.7292 14.5372 33.7312 14.5447C33.7332 14.5537 33.7357 14.5632 33.7377 14.5722C33.7482 14.6161 33.7582 14.6601 33.7687 14.7045C33.7822 14.763 33.7952 14.8214 33.8076 14.8798C33.8111 14.8958 33.8146 14.9122 33.8181 14.9282C33.8251 14.9612 33.8321 14.9946 33.8391 15.0276C33.8426 15.0431 33.8456 15.0581 33.8486 15.0735C33.8551 15.106 33.8621 15.1385 33.8681 15.1709C33.8746 15.2034 33.8811 15.2353 33.8871 15.2683C33.898 15.3242 33.9085 15.3807 33.9185 15.4376C33.9225 15.4576 33.926 15.4775 33.9295 15.4975C33.93 15.5005 33.9305 15.504 33.931 15.507C33.9375 15.5429 33.944 15.5789 33.9495 15.6149C33.9525 15.6298 33.9545 15.6443 33.957 15.6593C33.9664 15.7157 33.9754 15.7717 33.9839 15.8281C33.9849 15.8341 33.9859 15.8401 33.9869 15.8461C33.9974 15.9155 34.0079 15.9849 34.0174 16.0543C34.0184 16.0618 34.0194 16.0693 34.0204 16.0768V16.0783C34.0214 16.0853 34.0224 16.0927 34.0234 16.0997C34.0249 16.1067 34.0259 16.1137 34.0264 16.1212C34.0299 16.1432 34.0329 16.1652 34.0353 16.1866C34.0378 16.2046 34.0398 16.2226 34.0423 16.2406C34.0433 16.248 34.0443 16.255 34.0448 16.262C34.0453 16.2675 34.0463 16.2725 34.0468 16.278V16.2795C34.0468 16.2798 34.047 16.2802 34.0473 16.2805V16.282C34.0477 16.2823 34.0478 16.2827 34.0478 16.283V16.284C34.0483 16.2865 34.0488 16.2895 34.0488 16.292C34.0503 16.303 34.0518 16.314 34.0528 16.3249C34.0533 16.3259 34.0533 16.3264 34.0533 16.3274C34.0573 16.3604 34.0613 16.3934 34.0648 16.4258C34.0653 16.4303 34.0658 16.4353 34.0663 16.4398C34.0673 16.4468 34.0683 16.4538 34.0688 16.4608C34.0718 16.4877 34.0748 16.5147 34.0778 16.5417C34.0803 16.5646 34.0828 16.5876 34.0853 16.6106C34.0858 16.6146 34.0863 16.6186 34.0868 16.6226C34.0868 16.6246 34.0873 16.6266 34.0873 16.6286C34.0873 16.6306 34.0878 16.6326 34.0878 16.6346C34.0913 16.6685 34.0943 16.703 34.0978 16.7369C34.1023 16.7829 34.1068 16.8293 34.1108 16.8752C34.1158 16.9347 34.1207 16.9946 34.1252 17.0545C34.1302 17.1214 34.1352 17.1888 34.1392 17.2563C34.1432 17.3152 34.1467 17.3736 34.1497 17.4325C34.1522 17.479 34.1542 17.5259 34.1562 17.5729C34.1582 17.6193 34.1602 17.6662 34.1617 17.7127C34.1637 17.7596 34.1647 17.8066 34.1662 17.8535C34.1667 17.866 34.1667 17.8785 34.1672 17.891V17.8984C34.1672 17.9044 34.1677 17.9109 34.1677 17.9169C34.1677 17.9264 34.1682 17.9359 34.1682 17.9454V17.9529C34.1692 17.9923 34.1697 18.0323 34.1702 18.0722C34.1712 18.1406 34.1717 18.209 34.1717 18.2775C34.1717 21.8799 32.9737 25.2026 30.9538 27.8682Z" fill="#053C48"/>
<path d="M18.1956 1C8.69867 1 1 8.69868 1 18.1956C1 22.4726 2.56151 26.3851 5.14621 29.3938C5.99213 30.3795 6.94841 31.2679 7.99557 32.0404C10.8489 34.1467 14.3769 35.3911 18.1956 35.3911C22.0931 35.3911 25.688 34.0943 28.5713 31.9086C29.6005 31.1291 30.5393 30.2357 31.3688 29.248C33.8791 26.2593 35.3906 22.4042 35.3906 18.1956C35.3906 8.69868 27.692 1 18.1956 1ZM30.9538 27.8682C30.5129 28.451 30.032 29.0028 29.5161 29.5186C29.4712 29.5636 29.4257 29.6085 29.3803 29.6525C29.3508 29.6814 29.3214 29.7099 29.2919 29.7383L29.2874 29.7428C29.2839 29.7463 29.2804 29.7493 29.2769 29.7528L29.2759 29.7538L29.2734 29.7563C29.248 29.7803 29.2225 29.8048 29.197 29.8287C29.1176 29.9041 29.0377 29.978 28.9568 30.0514C28.9174 30.0874 28.8779 30.1229 28.838 30.1583C28.8115 30.1818 28.7851 30.2052 28.7581 30.2282C28.7396 30.2447 28.7211 30.2612 28.7022 30.2772C28.6837 30.2931 28.6647 30.3091 28.6462 30.3256C28.6028 30.363 28.5588 30.4005 28.5149 30.4375C28.4275 30.5114 28.3386 30.5843 28.2492 30.6567C28.2118 30.6871 28.1743 30.7171 28.1369 30.7466C28.1124 30.7655 28.0884 30.7845 28.0645 30.8035C28.0405 30.8225 28.016 30.8414 27.9916 30.8604C27.9871 30.8639 27.9826 30.8674 27.9781 30.8709C27.9326 30.9059 27.8867 30.9408 27.8408 30.9753C27.7978 31.0077 27.7549 31.0397 27.7119 31.0716C27.7079 31.0746 27.7039 31.0776 27.6999 31.0806C27.6959 31.0836 27.6924 31.0861 27.6885 31.0891C27.686 31.0911 27.683 31.0931 27.6805 31.0946C27.653 31.1151 27.6255 31.1351 27.5981 31.155C27.5961 31.1565 27.5941 31.158 27.5921 31.1595C27.5836 31.1655 27.5751 31.172 27.5666 31.178C27.5371 31.1995 27.5072 31.2205 27.4777 31.2414C27.4318 31.2744 27.3853 31.3068 27.3389 31.3393C27.3329 31.3433 27.3274 31.3473 27.3214 31.3513C27.2765 31.3827 27.2315 31.4137 27.1861 31.4442C27.1601 31.4616 27.1342 31.4791 27.1082 31.4966C27.0707 31.5216 27.0328 31.5465 26.9953 31.5715C26.899 31.6349 26.8016 31.6973 26.7042 31.7583C26.6648 31.7832 26.6253 31.8077 26.5859 31.8317C26.5499 31.8541 26.5134 31.8761 26.477 31.8981C26.471 31.9016 26.4655 31.9051 26.4595 31.9086C26.4291 31.927 26.3986 31.945 26.3681 31.963C26.3227 31.9905 26.2768 32.0169 26.2308 32.0439C26.1988 32.0624 26.1669 32.0804 26.1349 32.0988C26.0875 32.1258 26.0401 32.1528 25.9926 32.1787C25.9517 32.2017 25.9107 32.2242 25.8698 32.2461C25.8538 32.2551 25.8378 32.2636 25.8213 32.2726C25.7819 32.2941 25.7424 32.3151 25.7025 32.336C25.6775 32.349 25.653 32.362 25.6281 32.375C25.5771 32.402 25.5262 32.4284 25.4753 32.4544C25.4698 32.4569 25.4638 32.4599 25.4583 32.4629C25.4508 32.4664 25.4438 32.4704 25.4363 32.4739C25.3789 32.5028 25.3215 32.5318 25.2635 32.5597C25.263 32.5597 25.263 32.5602 25.2625 32.5602C25.2311 32.5762 25.1991 32.5917 25.1672 32.6067C25.0643 32.6566 24.9609 32.7051 24.8566 32.7525C24.8086 32.7745 24.7602 32.7959 24.7117 32.8174C24.6693 32.8364 24.6269 32.8549 24.5844 32.8733C24.5624 32.8828 24.5405 32.8923 24.5185 32.9013C24.478 32.9188 24.4371 32.9363 24.3967 32.9527C24.3927 32.9547 24.3887 32.9562 24.3852 32.9577C24.3332 32.9797 24.2813 33.0007 24.2294 33.0217C24.1749 33.0436 24.121 33.0651 24.0666 33.0866C24.0121 33.108 23.9577 33.129 23.9028 33.1495C23.8908 33.154 23.8793 33.1585 23.8673 33.163C23.8254 33.179 23.7834 33.1944 23.741 33.2099C23.698 33.2259 23.6546 33.2414 23.6111 33.2569C23.6032 33.2594 23.5957 33.2624 23.5877 33.2648C23.5278 33.2863 23.4673 33.3073 23.4069 33.3278C23.3725 33.3397 23.3385 33.3512 23.304 33.3627C23.2926 33.3667 23.2806 33.3702 23.2691 33.3742C23.2661 33.3752 23.2626 33.3762 23.2596 33.3772C23.2177 33.3912 23.1762 33.4047 23.1343 33.4181C23.1038 33.4281 23.0733 33.4376 23.0429 33.4471C22.9964 33.4616 22.95 33.4761 22.9036 33.4901C22.8561 33.5045 22.8092 33.519 22.7617 33.5325C22.7557 33.5345 22.7493 33.536 22.7433 33.538C22.7008 33.5505 22.6584 33.5625 22.6159 33.5745C22.5705 33.5874 22.5245 33.6004 22.4786 33.6129C22.4436 33.6224 22.4082 33.6324 22.3727 33.6414C22.3622 33.6444 22.3518 33.6469 22.3413 33.6494C22.3213 33.6548 22.3013 33.6598 22.2813 33.6653C22.2614 33.6703 22.2414 33.6758 22.2214 33.6808C22.2109 33.6833 22.201 33.6863 22.1905 33.6888C22.146 33.6998 22.1016 33.7113 22.0571 33.7218C22.0197 33.7307 21.9827 33.7402 21.9453 33.7487C21.9378 33.7502 21.9303 33.7522 21.9228 33.7537C21.9188 33.7547 21.9148 33.7557 21.9108 33.7567C21.8719 33.7662 21.8324 33.7752 21.7935 33.7837C21.793 33.7837 21.792 33.7842 21.7915 33.7842C21.7905 33.7847 21.789 33.7847 21.788 33.7852C21.776 33.7877 21.7635 33.7907 21.7515 33.7932C21.7151 33.8012 21.6791 33.8092 21.6422 33.8171C21.6342 33.8191 21.6257 33.8206 21.6172 33.8226C21.6107 33.8236 21.6042 33.8251 21.5977 33.8266C21.5882 33.8286 21.5782 33.8306 21.5688 33.8326C21.5243 33.8421 21.4804 33.8511 21.4354 33.8601C21.393 33.8691 21.3505 33.8776 21.3076 33.8856C21.2577 33.8955 21.2077 33.9045 21.1578 33.9135C21.1118 33.9225 21.0654 33.9305 21.019 33.9385C20.975 33.9465 20.9316 33.954 20.8876 33.961C20.8262 33.9709 20.7643 33.9809 20.7024 33.9904C20.6989 33.9909 20.6954 33.9914 20.6919 33.9919C20.6439 33.9994 20.596 34.0064 20.5481 34.0129C20.5206 34.0169 20.4931 34.0209 20.4657 34.0249C20.4572 34.0259 20.4487 34.0274 20.4402 34.0284C20.3933 34.0349 20.3468 34.0409 20.2999 34.0468C20.2355 34.0553 20.1705 34.0628 20.1061 34.0703C20.0457 34.0773 19.9858 34.0838 19.9254 34.0898C19.8799 34.0948 19.8345 34.0993 19.7885 34.1033C19.7381 34.1083 19.6877 34.1128 19.6367 34.1168C19.6162 34.1188 19.5953 34.1203 19.5743 34.1223C19.5383 34.1252 19.5019 34.1277 19.4654 34.1307C19.4579 34.1312 19.451 34.1317 19.4435 34.1322C19.41 34.1347 19.3761 34.1372 19.3421 34.1392C19.3386 34.1392 19.3346 34.1397 19.3311 34.1397C19.3186 34.1407 19.3056 34.1417 19.2932 34.1422C19.2607 34.1447 19.2282 34.1467 19.1953 34.1482C19.1883 34.1487 19.1818 34.1487 19.1748 34.1492C19.1249 34.1527 19.0739 34.1547 19.0235 34.1572C19.0205 34.1572 19.018 34.1577 19.015 34.1577H19.0125C18.9551 34.1607 18.8977 34.1627 18.8402 34.1647C18.7838 34.1667 18.7274 34.1687 18.6704 34.1702C18.607 34.1712 18.5441 34.1727 18.4807 34.1732C18.4123 34.1742 18.3434 34.1747 18.275 34.1747C18.2065 34.1747 18.1376 34.1742 18.0697 34.1732C18.0562 34.1732 18.0433 34.1727 18.0303 34.1727C18.0198 34.1727 18.0098 34.1722 17.9993 34.1722C17.9634 34.1717 17.9274 34.1712 17.8915 34.1702H17.888C17.854 34.1692 17.821 34.1682 17.7871 34.1672C17.7776 34.1672 17.7686 34.1667 17.7591 34.1662C17.7032 34.1652 17.6473 34.1627 17.5923 34.1602L17.5784 34.1597L17.5639 34.1587C17.5524 34.1587 17.5414 34.1582 17.5299 34.1572C17.5209 34.1567 17.5124 34.1567 17.5034 34.1562C17.481 34.1552 17.458 34.1542 17.4355 34.1527C17.4211 34.1522 17.4071 34.1512 17.3926 34.1502H17.3861C17.3826 34.1502 17.3791 34.1497 17.3751 34.1492C17.3716 34.1492 17.3681 34.1492 17.3646 34.1487C17.3631 34.1487 17.3616 34.1482 17.3601 34.1482C17.3546 34.1482 17.3486 34.1477 17.3432 34.1472C17.3392 34.1472 17.3357 34.1472 17.3317 34.1467C17.3147 34.1462 17.2972 34.1452 17.2797 34.1437C17.2633 34.1427 17.2473 34.1417 17.2308 34.1402C17.2248 34.1402 17.2193 34.1402 17.2138 34.1392H17.2078C17.2003 34.1387 17.1933 34.1382 17.1863 34.1377C17.1769 34.1372 17.1679 34.1367 17.1589 34.1357H17.1559C17.1539 34.1357 17.1519 34.1357 17.1499 34.1352C17.1489 34.1352 17.1484 34.1352 17.1474 34.1347H17.1469C17.1449 34.1347 17.1434 34.1347 17.1414 34.1342H17.1389C17.1099 34.1327 17.081 34.1307 17.052 34.1282L17.0131 34.1252C16.9631 34.1213 16.9137 34.1173 16.8638 34.1128C16.8593 34.1123 16.8548 34.1123 16.8503 34.1118C16.8468 34.1113 16.8428 34.1108 16.8393 34.1108C16.8193 34.1088 16.7988 34.1068 16.7784 34.1048C16.7759 34.1048 16.7734 34.1043 16.7709 34.1043C16.7404 34.1013 16.71 34.0988 16.6795 34.0958C16.677 34.0958 16.675 34.0953 16.6725 34.0948C16.669 34.0948 16.6655 34.0943 16.6625 34.0938C16.652 34.0928 16.642 34.0918 16.6316 34.0908C16.6246 34.0898 16.6171 34.0893 16.6101 34.0883C16.6041 34.0878 16.5976 34.0868 16.5916 34.0863H16.5891C16.5871 34.0858 16.5851 34.0858 16.5831 34.0858C16.5761 34.0848 16.5691 34.0843 16.5621 34.0833C16.5482 34.0818 16.5342 34.0803 16.5202 34.0788C16.5107 34.0778 16.5012 34.0763 16.4917 34.0753C16.4708 34.0733 16.4498 34.0708 16.4288 34.0683C16.4258 34.0678 16.4223 34.0678 16.4193 34.0673C16.4009 34.0653 16.3824 34.0633 16.3644 34.0608C16.3424 34.0583 16.321 34.0553 16.2995 34.0528C16.292 34.0518 16.285 34.0508 16.2775 34.0498C16.2515 34.0473 16.2256 34.0439 16.2001 34.0404C16.1786 34.0374 16.1572 34.0349 16.1362 34.0319L16.1032 34.0274C16.0927 34.0259 16.0828 34.0244 16.0723 34.0229C16.0443 34.0194 16.0163 34.0154 15.9884 34.0109C15.9479 34.0054 15.907 33.9994 15.8665 33.9934C15.8625 33.9924 15.858 33.9919 15.8541 33.9914C15.8001 33.9829 15.7462 33.9744 15.6923 33.9654C15.6903 33.9654 15.6878 33.9649 15.6858 33.9645C15.6733 33.9625 15.6603 33.9605 15.6473 33.9585C15.6448 33.958 15.6418 33.9575 15.6388 33.957C15.6288 33.9555 15.6189 33.9535 15.6089 33.9515C15.6004 33.95 15.5914 33.9485 15.5829 33.947H15.5809C15.5799 33.9465 15.5789 33.9465 15.5779 33.9465C15.5759 33.946 15.5744 33.946 15.5724 33.9455C15.5669 33.9445 15.5614 33.9435 15.5559 33.9425C15.5534 33.9425 15.5509 33.942 15.5484 33.9415C15.53 33.9385 15.512 33.935 15.4935 33.932C15.464 33.9265 15.4351 33.9215 15.4056 33.916C15.3941 33.914 15.3822 33.912 15.3707 33.9095C15.3627 33.908 15.3542 33.9065 15.3462 33.905C15.3452 33.905 15.3442 33.9045 15.3432 33.9045C15.3172 33.9 15.2913 33.8955 15.2658 33.89C15.2628 33.8896 15.2593 33.889 15.2563 33.888C15.2488 33.8866 15.2413 33.8851 15.2338 33.8836C15.2253 33.8821 15.2174 33.8801 15.2089 33.8786C15.1834 33.8741 15.1579 33.8691 15.133 33.8636C15.121 33.8616 15.109 33.8591 15.097 33.8566C15.0885 33.8551 15.08 33.8536 15.0715 33.8516C15.0441 33.8461 15.0161 33.8401 14.9887 33.8341C14.9647 33.8296 14.9407 33.8246 14.9172 33.8191C14.9043 33.8161 14.8908 33.8137 14.8778 33.8107C14.8334 33.8012 14.7889 33.7912 14.7445 33.7807C14.734 33.7787 14.7235 33.7762 14.713 33.7737C14.687 33.7677 14.6611 33.7617 14.6356 33.7557C14.5982 33.7472 14.5607 33.7382 14.5237 33.7292C14.5143 33.7268 14.5053 33.7248 14.4958 33.7223C14.4828 33.7193 14.4698 33.7163 14.4568 33.7128C14.4114 33.7018 14.3664 33.6908 14.3215 33.6793C14.3 33.6733 14.2786 33.6678 14.2576 33.6623C14.2471 33.6598 14.2361 33.6568 14.2256 33.6538C14.2106 33.6498 14.1952 33.6459 14.1802 33.6419C14.1512 33.6344 14.1223 33.6264 14.0933 33.6184C14.0838 33.6159 14.0738 33.6129 14.0643 33.6104C14.0523 33.6074 14.0404 33.6039 14.0284 33.6004C14.0254 33.5999 14.0224 33.5989 14.0199 33.5984C14.0159 33.5974 14.0119 33.5964 14.0084 33.5954C14.0034 33.5939 13.9989 33.5929 13.9944 33.5914C13.9844 33.5884 13.9744 33.5859 13.9645 33.5829H13.964C13.9595 33.5814 13.955 33.5804 13.9505 33.5789C13.904 33.5665 13.8581 33.553 13.8122 33.5395C13.8107 33.539 13.8092 33.5385 13.8077 33.538C13.7707 33.5275 13.7338 33.5165 13.6968 33.5055C13.6713 33.4976 13.6459 33.4901 13.6204 33.4821C13.6084 33.4786 13.5964 33.4746 13.5844 33.4711C13.558 33.4631 13.532 33.4546 13.506 33.4466C13.4781 33.4381 13.4506 33.4291 13.4232 33.4201C13.4032 33.4136 13.3827 33.4072 13.3627 33.4007C13.3622 33.4012 13.3622 33.4007 13.3617 33.4007C13.3108 33.3842 13.2599 33.3672 13.2089 33.3502C13.187 33.3427 13.1645 33.3348 13.1425 33.3273C13.0691 33.3028 12.9962 33.2773 12.9233 33.2509C12.9223 33.2504 12.9208 33.2499 12.9198 33.2499C12.8509 33.2254 12.783 33.2004 12.715 33.175C12.7091 33.173 12.7036 33.171 12.6986 33.1685C12.6931 33.1665 12.6876 33.1645 12.6821 33.1625L12.6816 33.162C12.6441 33.148 12.6067 33.134 12.5697 33.1195C12.5677 33.1185 12.5652 33.118 12.5632 33.117C12.5578 33.1155 12.5523 33.1135 12.5473 33.111C12.5468 33.111 12.5463 33.1105 12.5458 33.1105C12.5373 33.1075 12.5293 33.104 12.5208 33.1011C12.5058 33.0956 12.4913 33.0896 12.4774 33.0841C12.4769 33.0841 12.4769 33.0836 12.4764 33.0836C12.4429 33.0706 12.4094 33.0571 12.376 33.0436C12.365 33.0396 12.3545 33.0351 12.3435 33.0306C12.3335 33.0266 12.3236 33.0227 12.3136 33.0187C12.3006 33.0137 12.2881 33.0082 12.2756 33.0032C12.2127 32.9777 12.1498 32.9517 12.0874 32.9253C12.0774 32.9213 12.0674 32.9168 12.0574 32.9123C12.0439 32.9063 12.0299 32.9008 12.0164 32.8948C12.0129 32.8933 12.0095 32.8918 12.006 32.8903C12.0025 32.8888 11.999 32.8878 11.996 32.8858C11.9775 32.8783 11.959 32.8703 11.941 32.8624C11.9111 32.8494 11.8816 32.8364 11.8517 32.8229C11.7812 32.7924 11.7113 32.7605 11.6419 32.7285C11.617 32.717 11.592 32.7061 11.5675 32.6941C11.564 32.6926 11.561 32.6911 11.5575 32.6896C11.55 32.6861 11.543 32.6826 11.5361 32.6791C11.5356 32.6786 11.5346 32.6786 11.5341 32.6781C11.5321 32.6771 11.5301 32.6761 11.5281 32.6751C11.5201 32.6716 11.5126 32.6676 11.5046 32.6641C11.5011 32.6626 11.4971 32.6606 11.4936 32.6591C11.4846 32.6551 11.4761 32.6511 11.4671 32.6466C11.4457 32.6366 11.4242 32.6267 11.4032 32.6162C11.3987 32.6142 11.3947 32.6122 11.3902 32.6102C11.3753 32.6032 11.3603 32.5957 11.3458 32.5882C11.3223 32.5772 11.2989 32.5657 11.2759 32.5542C11.2594 32.5468 11.2434 32.5388 11.2275 32.5308C11.22 32.5268 11.213 32.5233 11.206 32.5198C11.1805 32.5073 11.155 32.4943 11.1296 32.4813C11.0991 32.4664 11.0687 32.4509 11.0382 32.4354C11.0332 32.4329 11.0277 32.4299 11.0227 32.4274C11.0162 32.4239 11.0092 32.4204 11.0027 32.4169C10.9443 32.387 10.8859 32.3565 10.828 32.3255C10.814 32.3185 10.8005 32.3111 10.787 32.3036C10.7286 32.2726 10.6702 32.2411 10.6122 32.2087C10.6082 32.2067 10.6042 32.2047 10.6003 32.2022C10.5993 32.2017 10.5988 32.2012 10.5978 32.2007C10.5653 32.1832 10.5328 32.1652 10.5009 32.1468C10.4674 32.1283 10.4345 32.1098 10.4015 32.0908C10.4 32.0898 10.399 32.0893 10.398 32.0888C10.3301 32.0499 10.2632 32.0109 10.1963 31.9715C10.1958 31.971 10.1953 31.9705 10.1948 31.9705C10.1548 31.947 10.1154 31.9231 10.0759 31.8996C10.048 31.8826 10.02 31.8656 9.99253 31.8487C9.96357 31.8312 9.9346 31.8132 9.90613 31.7957C9.88166 31.7807 9.8572 31.7653 9.83323 31.7503C9.82873 31.7473 9.82424 31.7448 9.81974 31.7418C9.78729 31.7213 9.75433 31.7003 9.72187 31.6794C9.67293 31.6484 9.6245 31.6169 9.57606 31.5855C9.57406 31.584 9.57156 31.5825 9.56956 31.581C9.54659 31.566 9.52412 31.551 9.50166 31.5366C9.50016 31.5351 9.49816 31.5341 9.49666 31.5331C9.49466 31.5316 9.49266 31.5306 9.49067 31.5291C9.4597 31.5081 9.42825 31.4876 9.39728 31.4666C9.28193 31.3887 9.16758 31.3093 9.05422 31.2279C9.02925 31.2105 9.00429 31.1925 8.97932 31.1745C8.92589 31.1366 8.87345 31.0976 8.82102 31.0587C8.76859 31.0202 8.71666 30.9808 8.66472 30.9413C8.61179 30.9014 8.55935 30.8604 8.50642 30.8195C8.45449 30.7785 8.40206 30.7376 8.35012 30.6961C8.31517 30.6682 8.28071 30.6402 8.24625 30.6122C8.19133 30.5678 8.13689 30.5223 8.08246 30.4769C8.0525 30.4519 8.02254 30.427 7.99308 30.4015C7.96312 30.376 7.93315 30.3506 7.90369 30.3251C7.86624 30.2931 7.82879 30.2607 7.79184 30.2277C7.75438 30.1953 7.71743 30.1628 7.68097 30.1298C7.64402 30.0969 7.60707 30.0639 7.57062 30.0305C7.49771 29.9641 7.4253 29.8966 7.35339 29.8287C7.32793 29.8053 7.30196 29.7803 7.27699 29.7563L7.27449 29.7538L7.27349 29.7528C7.27 29.7493 7.26651 29.7463 7.26301 29.7428L7.25851 29.7383C7.22905 29.7099 7.19959 29.6814 7.17013 29.6525C7.12468 29.6085 7.07924 29.5636 7.0343 29.5186C6.51796 29.0023 6.03707 28.4505 5.59613 27.8677C3.57621 25.2021 2.37823 21.8799 2.37823 18.2775C2.37823 9.49816 9.49565 2.38073 18.275 2.38073C18.3434 2.38073 18.4118 2.38123 18.4797 2.38223H18.4822C18.5381 2.38273 18.5941 2.38373 18.6495 2.38523C18.6655 2.38523 18.6819 2.38573 18.6979 2.38623C18.7499 2.38773 18.8018 2.38923 18.8537 2.39123C18.8877 2.39223 18.9221 2.39372 18.9561 2.39522C19.01 2.39722 19.064 2.39972 19.1174 2.40272C19.1773 2.4057 19.2367 2.4092 19.2962 2.4132C19.3636 2.4172 19.431 2.42218 19.4979 2.42717C19.5538 2.43117 19.6098 2.43567 19.6657 2.44066C19.7041 2.44415 19.7426 2.44765 19.781 2.45115C19.8135 2.45414 19.846 2.45714 19.8784 2.46064C19.9109 2.46364 19.9433 2.46762 19.9758 2.47112C20.0177 2.47512 20.0592 2.47962 20.1006 2.48461C20.1626 2.49159 20.224 2.49909 20.2854 2.50707C20.2954 2.50807 20.3054 2.50907 20.3149 2.51057C20.3763 2.51806 20.4372 2.52656 20.4981 2.53504C20.5625 2.54403 20.627 2.55352 20.6909 2.56301C20.6929 2.56351 20.6944 2.56351 20.6959 2.56401C20.7618 2.57399 20.8277 2.58448 20.8931 2.59546C21.024 2.61694 21.1548 2.6404 21.2841 2.66537C21.347 2.67736 21.41 2.68985 21.4724 2.70233C21.4744 2.70282 21.4769 2.70333 21.4789 2.70382C21.5423 2.71682 21.6057 2.73029 21.6691 2.74427C21.6716 2.74427 21.6741 2.74477 21.6761 2.74577C21.7216 2.75526 21.767 2.76575 21.8125 2.77574C21.8189 2.77724 21.8249 2.77872 21.8314 2.78022C21.8709 2.78921 21.9098 2.79821 21.9488 2.80769C21.9642 2.81069 21.9797 2.81469 21.9947 2.81818C22.0012 2.81968 22.0077 2.82118 22.0142 2.82318C22.0441 2.83016 22.0741 2.83766 22.1041 2.84514C22.192 2.86663 22.2793 2.88908 22.3662 2.91256C22.4032 2.92205 22.4401 2.93203 22.4771 2.94252C22.5275 2.956 22.5775 2.96948 22.6269 2.98397C22.6758 2.99795 22.7248 3.01194 22.7737 3.02641C22.8052 3.0359 22.8371 3.04539 22.8686 3.05487C22.9495 3.07885 23.0299 3.10382 23.1103 3.12978C23.1417 3.13976 23.1727 3.14976 23.2042 3.15975C23.2611 3.17822 23.3175 3.1972 23.3735 3.21618C23.4304 3.23515 23.4868 3.25512 23.5432 3.2746C23.5522 3.2776 23.5607 3.28059 23.5692 3.28359C23.6231 3.30306 23.6766 3.32204 23.7305 3.34151C23.734 3.34301 23.7375 3.34401 23.741 3.34551C23.7939 3.36499 23.8464 3.38446 23.8993 3.40443C23.9642 3.4289 24.0286 3.45386 24.093 3.47933C24.1135 3.48733 24.134 3.49532 24.155 3.5038C24.1929 3.51878 24.2304 3.53427 24.2683 3.54925C24.3777 3.59369 24.4865 3.63964 24.5944 3.68658C24.5949 3.68658 24.5954 3.68708 24.5959 3.68708C24.6264 3.70055 24.6568 3.71354 24.6873 3.72751C24.7542 3.75648 24.8206 3.78645 24.8865 3.8169C24.944 3.84337 25.0009 3.86984 25.0583 3.89681C25.0698 3.90229 25.0813 3.90779 25.0928 3.91278C25.0997 3.91628 25.1067 3.91977 25.1137 3.92327C25.1657 3.94824 25.2176 3.97321 25.2695 3.99868C25.308 4.01715 25.3459 4.03613 25.3844 4.0556C25.4223 4.07458 25.4608 4.09405 25.4987 4.11352C25.5172 4.12252 25.5357 4.1325 25.5542 4.14199L25.6096 4.17046C25.6106 4.17096 25.6121 4.17196 25.6136 4.17245C25.6146 4.17295 25.6161 4.17345 25.6171 4.17445C25.651 4.19192 25.6845 4.20941 25.718 4.22739C25.7769 4.25834 25.8358 4.2903 25.8942 4.32276C25.9132 4.33325 25.9322 4.34323 25.9507 4.35372C25.9851 4.3727 26.0196 4.39217 26.054 4.41115C26.0555 4.41214 26.057 4.41265 26.0585 4.41365C26.097 4.43562 26.1349 4.45709 26.1734 4.47906C26.2103 4.50004 26.2468 4.52151 26.2837 4.54298C26.3217 4.56495 26.3596 4.58692 26.3976 4.6099C26.4355 4.63237 26.4735 4.65484 26.5109 4.6783C26.5134 4.6793 26.5159 4.6808 26.5179 4.6823C26.5724 4.71526 26.6268 4.74921 26.6812 4.78268C26.6992 4.79416 26.7172 4.80564 26.7352 4.81713C26.7556 4.82961 26.7761 4.8426 26.7966 4.85558C26.8236 4.87256 26.85 4.89003 26.877 4.90702C26.8785 4.90802 26.8805 4.90902 26.882 4.91002C26.8865 4.91301 26.8915 4.916 26.896 4.919C26.9005 4.922 26.9045 4.9245 26.9089 4.92749C26.9943 4.98292 27.0792 5.03934 27.1631 5.09578C27.1681 5.09928 27.1726 5.10226 27.1771 5.10576C27.1816 5.10876 27.1861 5.11176 27.1906 5.11475C27.1941 5.11675 27.1971 5.11875 27.2001 5.12074C27.2031 5.12324 27.2066 5.12524 27.2096 5.12773C27.2136 5.13023 27.2171 5.13323 27.221 5.13573C27.2615 5.1627 27.3019 5.19065 27.3419 5.21862C27.3584 5.2301 27.3743 5.24159 27.3908 5.25307C27.3913 5.25357 27.3918 5.25407 27.3923 5.25407L27.3928 5.25457C27.3943 5.25557 27.3958 5.25657 27.3973 5.25757C27.4328 5.28204 27.4682 5.30701 27.5032 5.33197C27.5386 5.35694 27.5736 5.38291 27.6085 5.40838C27.6335 5.42586 27.658 5.44383 27.6825 5.46231C27.7019 5.47629 27.7214 5.49027 27.7404 5.50525C27.7674 5.52473 27.7938 5.5447 27.8203 5.56467C27.8822 5.61112 27.9441 5.65806 28.0055 5.7065C28.0071 5.7075 28.0085 5.7085 28.01 5.71H28.0105C28.0145 5.71299 28.0185 5.71598 28.0225 5.71948C28.0245 5.72098 28.0265 5.72297 28.029 5.72497C28.0315 5.72647 28.034 5.72847 28.0365 5.73047C28.0395 5.73246 28.042 5.73446 28.0445 5.73645C28.0795 5.76342 28.1139 5.79089 28.1484 5.81835C28.1588 5.82634 28.1688 5.83434 28.1788 5.84232C28.1938 5.85381 28.2083 5.86579 28.2228 5.87728C28.2298 5.88277 28.2363 5.88777 28.2427 5.89376C28.2517 5.90074 28.2607 5.90774 28.2692 5.91523C28.2695 5.91556 28.2699 5.91573 28.2702 5.91573C28.2757 5.92023 28.2812 5.92471 28.2867 5.92921C28.3057 5.94469 28.3246 5.96017 28.3431 5.97516C28.3751 6.00112 28.407 6.02758 28.439 6.05455C28.4405 6.05555 28.4415 6.05655 28.443 6.05755C28.5089 6.11249 28.5748 6.16791 28.6397 6.22433C28.6592 6.24131 28.6787 6.2578 28.6982 6.27478C28.7301 6.30273 28.7621 6.3307 28.7935 6.35867C28.808 6.37165 28.823 6.38462 28.8375 6.39762C28.8704 6.42657 28.9029 6.45554 28.9354 6.48501C28.9678 6.51446 29.0003 6.54393 29.0322 6.5734C29.0972 6.63282 29.1611 6.69274 29.2245 6.75316C29.249 6.77613 29.2734 6.7996 29.2974 6.82308C29.3353 6.85953 29.3733 6.89598 29.4108 6.93344C29.4113 6.93392 29.4123 6.93492 29.4128 6.93544C29.4133 6.93544 29.4138 6.93592 29.4143 6.93692L29.4158 6.93842C29.4178 6.94042 29.4192 6.94192 29.4212 6.94342C29.4502 6.97189 29.4787 7.00034 29.5071 7.02881C29.5146 7.03531 29.5216 7.04229 29.5281 7.04978C29.5316 7.05278 29.5346 7.05628 29.5376 7.05928C29.5461 7.06726 29.5546 7.07575 29.5626 7.08424L29.579 7.10071C29.5805 7.10221 29.5815 7.10321 29.5825 7.10471L29.5995 7.1217C29.612 7.13418 29.6245 7.14666 29.6365 7.15915C29.638 7.16115 29.6395 7.16264 29.6415 7.16463C29.6445 7.16763 29.6475 7.17063 29.65 7.17363C29.6564 7.17962 29.6624 7.1856 29.6684 7.1921C29.7069 7.23055 29.7443 7.27001 29.7823 7.30945V7.30996C29.8132 7.34191 29.8437 7.37436 29.8742 7.40683C29.8762 7.40932 29.8787 7.41132 29.8806 7.41382L29.8811 7.41432C29.8816 7.41482 29.8821 7.41582 29.8826 7.41632C29.8956 7.4303 29.9086 7.44378 29.9211 7.45777C29.9281 7.46525 29.9351 7.47225 29.9416 7.47974C29.9481 7.48722 29.9551 7.49422 29.9621 7.5017C30.0215 7.56612 30.0804 7.63104 30.1383 7.69645C30.1528 7.71243 30.1673 7.72892 30.1813 7.7449C30.2197 7.78784 30.2577 7.83079 30.2951 7.87423L30.3326 7.91768C30.383 7.9761 30.4329 8.03452 30.4819 8.09395C30.5293 8.14988 30.5758 8.20681 30.6217 8.26373C30.6232 8.26523 30.6247 8.26723 30.6257 8.26873C30.6337 8.27822 30.6412 8.2877 30.6492 8.2972C30.6577 8.30768 30.6662 8.31817 30.6741 8.32865C30.7206 8.38657 30.767 8.4445 30.8125 8.50343C30.818 8.51042 30.824 8.51791 30.8289 8.5249C30.8293 8.52523 30.8294 8.52557 30.8294 8.5259C30.8314 8.5289 30.8339 8.5314 30.8364 8.5344C30.8364 8.53488 30.8369 8.53538 30.8374 8.53588C30.8464 8.54688 30.8554 8.55836 30.8639 8.56985C30.8754 8.58433 30.8869 8.5988 30.8984 8.61379C30.9233 8.64624 30.9483 8.67921 30.9728 8.71216C30.9957 8.74313 31.0187 8.77358 31.0422 8.80455C31.0447 8.80753 31.0467 8.81103 31.0492 8.81403C31.0751 8.84899 31.1011 8.88444 31.1271 8.91989C31.1281 8.92089 31.1286 8.92189 31.1296 8.92339L31.1371 8.93389C31.1381 8.93487 31.1386 8.93637 31.1396 8.93737C31.1475 8.94886 31.156 8.95934 31.164 8.97083C31.18 8.99231 31.1955 9.01428 31.211 9.03625C31.2284 9.06071 31.2459 9.08518 31.2634 9.10965C31.2649 9.11215 31.2669 9.11415 31.2684 9.11665C31.2824 9.13662 31.2963 9.15609 31.3098 9.17607C31.3223 9.19354 31.3343 9.21102 31.3463 9.22851C31.3588 9.24599 31.3713 9.26396 31.3832 9.28193C31.3872 9.28743 31.3912 9.29341 31.3952 9.29941C31.3967 9.30191 31.3987 9.30441 31.4002 9.3069C31.4092 9.31889 31.4172 9.33138 31.4257 9.34386C31.4282 9.34735 31.4307 9.35085 31.4332 9.35435C31.4335 9.35468 31.4337 9.35501 31.4337 9.35535V9.35583C31.4337 9.35583 31.4342 9.35635 31.4342 9.35683C31.4372 9.36083 31.4397 9.36433 31.4422 9.36832C31.4452 9.37232 31.4477 9.37682 31.4507 9.3808C31.4816 9.42625 31.5121 9.47169 31.542 9.51764C31.5515 9.53161 31.561 9.54609 31.5705 9.56008C31.579 9.57356 31.588 9.58655 31.5965 9.60003C31.5975 9.60203 31.599 9.60353 31.6 9.60552C31.602 9.60901 31.6045 9.61201 31.6065 9.61551C31.6234 9.64098 31.6399 9.66695 31.6564 9.69242C31.6684 9.71089 31.6804 9.72987 31.6928 9.74884C31.6943 9.75184 31.6963 9.75484 31.6983 9.75784C31.7043 9.76682 31.7098 9.77631 31.7158 9.78529C31.7208 9.79278 31.7258 9.80077 31.7303 9.80876C31.7333 9.81376 31.7363 9.81826 31.7393 9.82324C31.7423 9.82774 31.7448 9.83174 31.7473 9.83623C31.7478 9.83673 31.7478 9.83773 31.7488 9.83823C31.7488 9.83873 31.7493 9.83923 31.7498 9.83973C31.7503 9.84123 31.7513 9.84223 31.7523 9.84371C31.7578 9.85271 31.7638 9.86169 31.7697 9.87118C31.7722 9.87518 31.7747 9.87968 31.7772 9.88366C31.7927 9.90863 31.8082 9.9336 31.8232 9.95857C31.8392 9.98404 31.8546 10.009 31.8701 10.0345C31.8976 10.0794 31.9246 10.1244 31.9515 10.1698C31.9645 10.1918 31.9775 10.2142 31.9905 10.2362C32.0149 10.2777 32.0394 10.3196 32.0634 10.3611C32.0639 10.3621 32.0649 10.3636 32.0654 10.3646C32.0674 10.3676 32.0689 10.371 32.0709 10.374C32.0858 10.4 32.1008 10.4265 32.1158 10.4529C32.1308 10.4794 32.1458 10.5054 32.1602 10.5318C32.1872 10.5798 32.2137 10.6282 32.2401 10.6767C32.2486 10.6921 32.2576 10.7081 32.2661 10.7241C32.2721 10.7351 32.2776 10.7456 32.2836 10.7566C32.2976 10.783 32.3121 10.8095 32.326 10.8365C32.345 10.8714 32.3635 10.9064 32.3815 10.9418C32.4634 11.0986 32.5428 11.2569 32.6192 11.4167C32.6421 11.4642 32.6646 11.5121 32.6866 11.5595L32.7255 11.6434C32.731 11.6554 32.7365 11.6674 32.742 11.6794C32.7495 11.6954 32.7565 11.7113 32.764 11.7273C32.766 11.7313 32.7675 11.7358 32.7695 11.7398C32.77 11.7403 32.77 11.7413 32.7705 11.7418C32.773 11.7478 32.7755 11.7533 32.7785 11.7593C32.7994 11.8062 32.8204 11.8532 32.8409 11.9001C32.8614 11.947 32.8818 11.9945 32.9018 12.0414C32.9053 12.0494 32.9083 12.0569 32.9118 12.0644C32.9263 12.0983 32.9407 12.1328 32.9547 12.1668C32.9862 12.2417 33.0167 12.3166 33.0466 12.3925C33.0571 12.4179 33.0676 12.4439 33.0776 12.4699C33.0796 12.4749 33.0816 12.4804 33.0836 12.4853C33.0841 12.4858 33.0841 12.4868 33.0846 12.4873C33.103 12.5348 33.121 12.5817 33.139 12.6292C33.1405 12.6337 33.1425 12.6377 33.144 12.6417C33.1655 12.6981 33.1864 12.7545 33.2069 12.8114C33.2169 12.8384 33.2269 12.8654 33.2364 12.8928C33.2424 12.9083 33.2479 12.9243 33.2533 12.9403C33.2628 12.9662 33.2723 12.9927 33.2813 13.0192C33.2943 13.0561 33.3073 13.0931 33.3198 13.1305C33.3253 13.1465 33.3308 13.163 33.3362 13.179C33.3547 13.2329 33.3727 13.2873 33.3902 13.3418C33.3907 13.3428 33.3907 13.3433 33.3912 13.3443C33.4117 13.4072 33.4321 13.4696 33.4516 13.5325C33.4536 13.5385 33.4551 13.5445 33.4571 13.55C33.4666 13.5804 33.4756 13.6104 33.4846 13.6409C33.4866 13.6459 33.488 13.6514 33.4895 13.6569C33.4895 13.6574 33.49 13.6579 33.49 13.6584C33.499 13.6873 33.508 13.7168 33.5165 13.7462C33.5345 13.8072 33.552 13.8676 33.5695 13.9285C33.5779 13.959 33.5864 13.9894 33.5949 14.0199C33.6034 14.0504 33.6114 14.0808 33.6199 14.1113C33.6364 14.1707 33.6518 14.2301 33.6673 14.2896C33.6688 14.2945 33.6698 14.2995 33.6713 14.3045C33.6828 14.35 33.6943 14.3949 33.7053 14.4404C33.7108 14.4628 33.7163 14.4848 33.7218 14.5068C33.7223 14.5093 33.7232 14.5118 33.7238 14.5143C33.7242 14.5168 33.7252 14.5193 33.7257 14.5218C33.7277 14.5292 33.7292 14.5372 33.7312 14.5447C33.7332 14.5537 33.7357 14.5632 33.7377 14.5722C33.7482 14.6161 33.7582 14.6601 33.7687 14.7045C33.7822 14.763 33.7952 14.8214 33.8076 14.8798C33.8111 14.8958 33.8146 14.9122 33.8181 14.9282C33.8251 14.9612 33.8321 14.9946 33.8391 15.0276C33.8426 15.0431 33.8456 15.0581 33.8486 15.0735C33.8551 15.106 33.8621 15.1385 33.8681 15.1709C33.8746 15.2034 33.8811 15.2353 33.8871 15.2683C33.898 15.3242 33.9085 15.3807 33.9185 15.4376C33.9225 15.4576 33.926 15.4775 33.9295 15.4975C33.93 15.5005 33.9305 15.504 33.931 15.507C33.9375 15.5429 33.944 15.5789 33.9495 15.6149C33.9525 15.6298 33.9545 15.6443 33.957 15.6593C33.9664 15.7157 33.9754 15.7717 33.9839 15.8281C33.9849 15.8341 33.9859 15.8401 33.9869 15.8461C33.9974 15.9155 34.0079 15.9849 34.0174 16.0543C34.0184 16.0618 34.0194 16.0693 34.0204 16.0768V16.0783C34.0214 16.0853 34.0224 16.0927 34.0234 16.0997C34.0249 16.1067 34.0259 16.1137 34.0264 16.1212C34.0299 16.1432 34.0329 16.1652 34.0353 16.1866C34.0378 16.2046 34.0398 16.2226 34.0423 16.2406C34.0433 16.248 34.0443 16.255 34.0448 16.262C34.0453 16.2675 34.0463 16.2725 34.0468 16.278V16.2795C34.0468 16.2798 34.047 16.2802 34.0473 16.2805V16.282C34.0477 16.2823 34.0478 16.2827 34.0478 16.283V16.284C34.0483 16.2865 34.0488 16.2895 34.0488 16.292C34.0503 16.303 34.0518 16.314 34.0528 16.3249C34.0533 16.3259 34.0533 16.3264 34.0533 16.3274C34.0573 16.3604 34.0613 16.3934 34.0648 16.4258C34.0653 16.4303 34.0658 16.4353 34.0663 16.4398C34.0673 16.4468 34.0683 16.4538 34.0688 16.4608C34.0718 16.4877 34.0748 16.5147 34.0778 16.5417C34.0803 16.5646 34.0828 16.5876 34.0853 16.6106C34.0858 16.6146 34.0863 16.6186 34.0868 16.6226C34.0868 16.6246 34.0873 16.6266 34.0873 16.6286C34.0873 16.6306 34.0878 16.6326 34.0878 16.6346C34.0913 16.6685 34.0943 16.703 34.0978 16.7369C34.1023 16.7829 34.1068 16.8293 34.1108 16.8752C34.1158 16.9347 34.1207 16.9946 34.1252 17.0545C34.1302 17.1214 34.1352 17.1888 34.1392 17.2563C34.1432 17.3152 34.1467 17.3736 34.1497 17.4325C34.1522 17.479 34.1542 17.5259 34.1562 17.5729C34.1582 17.6193 34.1602 17.6662 34.1617 17.7127C34.1637 17.7596 34.1647 17.8066 34.1662 17.8535C34.1667 17.866 34.1667 17.8785 34.1672 17.891V17.8984C34.1672 17.9044 34.1677 17.9109 34.1677 17.9169C34.1677 17.9264 34.1682 17.9359 34.1682 17.9454V17.9529C34.1692 17.9923 34.1697 18.0323 34.1702 18.0722C34.1712 18.1406 34.1717 18.209 34.1717 18.2775C34.1717 21.8799 32.9737 25.2026 30.9538 27.8682Z" stroke="#053C48" stroke-width="1.2" mask="url(#path-3-outside-1_182_2037)"/>
<path d="M18.2782 9.00342C20.6104 9.00342 22.5025 10.9503 22.5025 13.3523C22.5025 15.7548 20.6104 17.7017 18.2788 17.7017C15.9467 17.7017 14.0547 15.7543 14.0547 13.3523C14.0547 10.9503 15.9467 9.00286 18.2782 9.00342Z" fill="#053C48"/>
<path d="M31.371 29.248C30.5415 30.2358 29.6027 31.1291 28.5735 31.9086C25.6902 34.0943 22.0953 35.3912 18.1978 35.3912C14.3792 35.3912 10.8512 34.1468 7.9978 32.0405C6.95063 31.268 5.99436 30.3796 5.14844 29.3938C5.27028 28.873 5.42109 28.3636 5.59836 27.8678C6.55064 25.2032 8.27344 22.9216 10.4876 21.3091C11.2452 20.7573 12.0601 20.284 12.922 19.9009C13.0149 19.8595 13.1088 19.8191 13.2032 19.7796C14.6268 19.1839 16.1714 18.8323 17.7878 18.7739C17.9501 18.7679 18.1134 18.7649 18.2767 18.7649C18.4405 18.7649 18.6038 18.7679 18.7661 18.7739C20.382 18.8328 21.927 19.1849 23.3507 19.7796C26.8637 21.2472 29.6422 24.1935 30.956 27.8683C31.1168 28.3177 31.2556 28.7781 31.371 29.248Z" fill="#053C48"/>
</svg>
