<svg width="33" height="32" viewBox="0 0 33 32" fill="none" xmlns="http://www.w3.org/2000/svg">
<g clip-path="url(#clip0_32_1884)">
<path d="M16.5 2.66663C8.91 2.66663 2.75 8.63996 2.75 16C2.75 23.36 8.91 29.3333 16.5 29.3333C24.09 29.3333 30.25 23.36 30.25 16C30.25 8.63996 24.09 2.66663 16.5 2.66663ZM16.5 6.66663C18.7825 6.66663 20.625 8.45329 20.625 10.6666C20.625 12.88 18.7825 14.6666 16.5 14.6666C14.2175 14.6666 12.375 12.88 12.375 10.6666C12.375 8.45329 14.2175 6.66663 16.5 6.66663ZM16.5 25.6C13.0625 25.6 10.0237 23.8933 8.25 21.3066C8.29125 18.6533 13.75 17.2 16.5 17.2C19.2363 17.2 24.7088 18.6533 24.75 21.3066C22.9763 23.8933 19.9375 25.6 16.5 25.6Z" fill="#059B90"/>
</g>
<defs>
<clipPath id="clip0_32_1884">
<rect width="33" height="32" fill="white"/>
</clipPath>
</defs>
</svg>
