<svg width="143" height="19" viewBox="0 0 143 19" fill="none" xmlns="http://www.w3.org/2000/svg">
<path d="M18.784 1.2L11.8 18.072H7.936L0.928 1.2H5.128L9.856 13.608L14.584 1.2H18.784ZM33.3828 14.544V18H20.5908V1.2H33.0468V4.632H24.2628V7.872H32.5428V11.16H24.2628V14.544H33.3828ZM39.5568 1.2L48.0287 12.12L47.7888 6.84V1.2H51.5568V18H48.3408L39.9888 7.248L40.1328 12.768V18H36.3408V1.2H39.5568ZM55.3017 1.2H62.1897C64.0377 1.2 65.5977 1.608 66.8937 2.376C68.1897 3.168 69.1017 4.176 69.6777 5.376C70.2537 6.6 70.5417 7.968 70.5417 9.48C70.5417 10.632 70.3737 11.688 70.0377 12.672C69.7017 13.68 69.2217 14.568 68.5737 15.384C67.9257 16.2 67.0617 16.824 65.9577 17.304C64.8537 17.784 63.6057 18 62.1897 18H55.3017V1.2ZM58.9977 4.584V14.544H62.1897C63.0537 14.544 63.7977 14.4 64.4457 14.112C65.0697 13.824 65.5497 13.416 65.8857 12.888C66.2217 12.384 66.4617 11.856 66.6057 11.28C66.7497 10.704 66.8457 10.104 66.8457 9.432C66.8457 8.064 66.4617 6.912 65.7177 5.976C64.9737 5.064 63.7977 4.584 62.1897 4.584H58.9977ZM86.164 14.544V18H73.372V1.2H85.828V4.632H77.044V7.872H85.324V11.16H77.044V14.544H86.164ZM89.122 1.2H96.01C97.858 1.2 99.418 1.608 100.714 2.376C102.01 3.168 102.922 4.176 103.498 5.376C104.074 6.6 104.362 7.968 104.362 9.48C104.362 10.632 104.194 11.688 103.858 12.672C103.522 13.68 103.042 14.568 102.394 15.384C101.746 16.2 100.882 16.824 99.778 17.304C98.674 17.784 97.426 18 96.01 18H89.122V1.2ZM92.818 4.584V14.544H96.01C96.874 14.544 97.618 14.4 98.266 14.112C98.89 13.824 99.37 13.416 99.706 12.888C100.042 12.384 100.282 11.856 100.426 11.28C100.57 10.704 100.666 10.104 100.666 9.432C100.666 8.064 100.282 6.912 99.538 5.976C98.794 5.064 97.618 4.584 96.01 4.584H92.818ZM124.376 9.6C124.376 12.312 123.536 14.448 121.88 16.032C120.2 17.616 118.016 18.408 115.304 18.408C112.568 18.408 110.384 17.616 108.728 16.032C107.048 14.448 106.232 12.312 106.232 9.6C106.232 6.912 107.048 4.752 108.728 3.168C110.384 1.584 112.568 0.792 115.304 0.792C118.016 0.792 120.2 1.584 121.88 3.168C123.536 4.752 124.376 6.912 124.376 9.6ZM120.704 9.6C120.704 8.04 120.2 6.744 119.192 5.712C118.184 4.68 116.888 4.152 115.304 4.152C113.72 4.152 112.424 4.68 111.416 5.712C110.408 6.768 109.904 8.064 109.904 9.6C109.904 11.184 110.408 12.504 111.416 13.512C112.424 14.52 113.72 15.024 115.304 15.024C116.912 15.024 118.208 14.52 119.216 13.512C120.2 12.504 120.704 11.184 120.704 9.6ZM142.065 17.712V18H137.913L133.617 12.48H130.905V18H127.161V1.2H135.129C137.049 1.2 138.585 1.752 139.689 2.856C140.793 3.96 141.345 5.304 141.345 6.864C141.321 8.112 141.033 9.192 140.505 10.056C139.953 10.92 138.945 11.616 137.457 12.144L142.065 17.712ZM135.129 4.416H130.905V9.312H135.177C135.969 9.312 136.569 9.072 137.001 8.592C137.433 8.112 137.649 7.584 137.649 6.96C137.625 6.312 137.409 5.736 136.977 5.208C136.545 4.68 135.921 4.416 135.129 4.416Z" fill="#004742"/>
</svg>
